%TF.GenerationSoftware,KiCad,Pcbnew,8.0.9-8.0.9-0~ubuntu24.04.1*%
%TF.CreationDate,2025-05-04T14:10:30+03:00*%
%TF.ProjectId,vario_kicad,76617269-6f5f-46b6-9963-61642e6b6963,rev?*%
%TF.SameCoordinates,Original*%
%TF.FileFunction,Legend,Bot*%
%TF.FilePolarity,Positive*%
%FSLAX46Y46*%
G04 Gerber Fmt 4.6, Leading zero omitted, Abs format (unit mm)*
G04 Created by KiCad (PCBNEW 8.0.9-8.0.9-0~ubuntu24.04.1) date 2025-05-04 14:10:30*
%MOMM*%
%LPD*%
G01*
G04 APERTURE LIST*
%ADD10C,0.200000*%
%ADD11C,0.120000*%
G04 APERTURE END LIST*
D10*
X148648422Y-144202742D02*
X148648422Y-145174171D01*
X148648422Y-145174171D02*
X148705564Y-145288457D01*
X148705564Y-145288457D02*
X148762707Y-145345600D01*
X148762707Y-145345600D02*
X148876993Y-145402742D01*
X148876993Y-145402742D02*
X149048422Y-145402742D01*
X149048422Y-145402742D02*
X149162707Y-145345600D01*
X148648422Y-144945600D02*
X148762707Y-145002742D01*
X148762707Y-145002742D02*
X148991279Y-145002742D01*
X148991279Y-145002742D02*
X149105564Y-144945600D01*
X149105564Y-144945600D02*
X149162707Y-144888457D01*
X149162707Y-144888457D02*
X149219850Y-144774171D01*
X149219850Y-144774171D02*
X149219850Y-144431314D01*
X149219850Y-144431314D02*
X149162707Y-144317028D01*
X149162707Y-144317028D02*
X149105564Y-144259885D01*
X149105564Y-144259885D02*
X148991279Y-144202742D01*
X148991279Y-144202742D02*
X148762707Y-144202742D01*
X148762707Y-144202742D02*
X148648422Y-144259885D01*
X148076993Y-145002742D02*
X148076993Y-144202742D01*
X148076993Y-143802742D02*
X148134136Y-143859885D01*
X148134136Y-143859885D02*
X148076993Y-143917028D01*
X148076993Y-143917028D02*
X148019850Y-143859885D01*
X148019850Y-143859885D02*
X148076993Y-143802742D01*
X148076993Y-143802742D02*
X148076993Y-143917028D01*
X147676993Y-144202742D02*
X147219850Y-144202742D01*
X147505564Y-143802742D02*
X147505564Y-144831314D01*
X147505564Y-144831314D02*
X147448421Y-144945600D01*
X147448421Y-144945600D02*
X147334136Y-145002742D01*
X147334136Y-145002742D02*
X147219850Y-145002742D01*
X146819850Y-145002742D02*
X146819850Y-143802742D01*
X146305565Y-145002742D02*
X146305565Y-144374171D01*
X146305565Y-144374171D02*
X146362707Y-144259885D01*
X146362707Y-144259885D02*
X146476993Y-144202742D01*
X146476993Y-144202742D02*
X146648422Y-144202742D01*
X146648422Y-144202742D02*
X146762707Y-144259885D01*
X146762707Y-144259885D02*
X146819850Y-144317028D01*
X145219851Y-144202742D02*
X145219851Y-145002742D01*
X145734136Y-144202742D02*
X145734136Y-144831314D01*
X145734136Y-144831314D02*
X145676993Y-144945600D01*
X145676993Y-144945600D02*
X145562708Y-145002742D01*
X145562708Y-145002742D02*
X145391279Y-145002742D01*
X145391279Y-145002742D02*
X145276993Y-144945600D01*
X145276993Y-144945600D02*
X145219851Y-144888457D01*
X144648422Y-145002742D02*
X144648422Y-143802742D01*
X144648422Y-144259885D02*
X144534137Y-144202742D01*
X144534137Y-144202742D02*
X144305565Y-144202742D01*
X144305565Y-144202742D02*
X144191279Y-144259885D01*
X144191279Y-144259885D02*
X144134137Y-144317028D01*
X144134137Y-144317028D02*
X144076994Y-144431314D01*
X144076994Y-144431314D02*
X144076994Y-144774171D01*
X144076994Y-144774171D02*
X144134137Y-144888457D01*
X144134137Y-144888457D02*
X144191279Y-144945600D01*
X144191279Y-144945600D02*
X144305565Y-145002742D01*
X144305565Y-145002742D02*
X144534137Y-145002742D01*
X144534137Y-145002742D02*
X144648422Y-144945600D01*
X143562708Y-144888457D02*
X143505565Y-144945600D01*
X143505565Y-144945600D02*
X143562708Y-145002742D01*
X143562708Y-145002742D02*
X143619851Y-144945600D01*
X143619851Y-144945600D02*
X143562708Y-144888457D01*
X143562708Y-144888457D02*
X143562708Y-145002742D01*
X142476994Y-144945600D02*
X142591279Y-145002742D01*
X142591279Y-145002742D02*
X142819851Y-145002742D01*
X142819851Y-145002742D02*
X142934136Y-144945600D01*
X142934136Y-144945600D02*
X142991279Y-144888457D01*
X142991279Y-144888457D02*
X143048422Y-144774171D01*
X143048422Y-144774171D02*
X143048422Y-144431314D01*
X143048422Y-144431314D02*
X142991279Y-144317028D01*
X142991279Y-144317028D02*
X142934136Y-144259885D01*
X142934136Y-144259885D02*
X142819851Y-144202742D01*
X142819851Y-144202742D02*
X142591279Y-144202742D01*
X142591279Y-144202742D02*
X142476994Y-144259885D01*
X141791280Y-145002742D02*
X141905565Y-144945600D01*
X141905565Y-144945600D02*
X141962708Y-144888457D01*
X141962708Y-144888457D02*
X142019851Y-144774171D01*
X142019851Y-144774171D02*
X142019851Y-144431314D01*
X142019851Y-144431314D02*
X141962708Y-144317028D01*
X141962708Y-144317028D02*
X141905565Y-144259885D01*
X141905565Y-144259885D02*
X141791280Y-144202742D01*
X141791280Y-144202742D02*
X141619851Y-144202742D01*
X141619851Y-144202742D02*
X141505565Y-144259885D01*
X141505565Y-144259885D02*
X141448423Y-144317028D01*
X141448423Y-144317028D02*
X141391280Y-144431314D01*
X141391280Y-144431314D02*
X141391280Y-144774171D01*
X141391280Y-144774171D02*
X141448423Y-144888457D01*
X141448423Y-144888457D02*
X141505565Y-144945600D01*
X141505565Y-144945600D02*
X141619851Y-145002742D01*
X141619851Y-145002742D02*
X141791280Y-145002742D01*
X140876994Y-145002742D02*
X140876994Y-144202742D01*
X140876994Y-144317028D02*
X140819851Y-144259885D01*
X140819851Y-144259885D02*
X140705566Y-144202742D01*
X140705566Y-144202742D02*
X140534137Y-144202742D01*
X140534137Y-144202742D02*
X140419851Y-144259885D01*
X140419851Y-144259885D02*
X140362709Y-144374171D01*
X140362709Y-144374171D02*
X140362709Y-145002742D01*
X140362709Y-144374171D02*
X140305566Y-144259885D01*
X140305566Y-144259885D02*
X140191280Y-144202742D01*
X140191280Y-144202742D02*
X140019851Y-144202742D01*
X140019851Y-144202742D02*
X139905566Y-144259885D01*
X139905566Y-144259885D02*
X139848423Y-144374171D01*
X139848423Y-144374171D02*
X139848423Y-145002742D01*
X138419851Y-143745600D02*
X139448423Y-145288457D01*
X138134137Y-144202742D02*
X137848423Y-145002742D01*
X137848423Y-145002742D02*
X137562708Y-144202742D01*
X136591280Y-145002742D02*
X136591280Y-144374171D01*
X136591280Y-144374171D02*
X136648422Y-144259885D01*
X136648422Y-144259885D02*
X136762708Y-144202742D01*
X136762708Y-144202742D02*
X136991280Y-144202742D01*
X136991280Y-144202742D02*
X137105565Y-144259885D01*
X136591280Y-144945600D02*
X136705565Y-145002742D01*
X136705565Y-145002742D02*
X136991280Y-145002742D01*
X136991280Y-145002742D02*
X137105565Y-144945600D01*
X137105565Y-144945600D02*
X137162708Y-144831314D01*
X137162708Y-144831314D02*
X137162708Y-144717028D01*
X137162708Y-144717028D02*
X137105565Y-144602742D01*
X137105565Y-144602742D02*
X136991280Y-144545600D01*
X136991280Y-144545600D02*
X136705565Y-144545600D01*
X136705565Y-144545600D02*
X136591280Y-144488457D01*
X136076994Y-144945600D02*
X135962708Y-145002742D01*
X135962708Y-145002742D02*
X135734137Y-145002742D01*
X135734137Y-145002742D02*
X135619851Y-144945600D01*
X135619851Y-144945600D02*
X135562708Y-144831314D01*
X135562708Y-144831314D02*
X135562708Y-144774171D01*
X135562708Y-144774171D02*
X135619851Y-144659885D01*
X135619851Y-144659885D02*
X135734137Y-144602742D01*
X135734137Y-144602742D02*
X135905566Y-144602742D01*
X135905566Y-144602742D02*
X136019851Y-144545600D01*
X136019851Y-144545600D02*
X136076994Y-144431314D01*
X136076994Y-144431314D02*
X136076994Y-144374171D01*
X136076994Y-144374171D02*
X136019851Y-144259885D01*
X136019851Y-144259885D02*
X135905566Y-144202742D01*
X135905566Y-144202742D02*
X135734137Y-144202742D01*
X135734137Y-144202742D02*
X135619851Y-144259885D01*
X135048422Y-145002742D02*
X135048422Y-144202742D01*
X135048422Y-143802742D02*
X135105565Y-143859885D01*
X135105565Y-143859885D02*
X135048422Y-143917028D01*
X135048422Y-143917028D02*
X134991279Y-143859885D01*
X134991279Y-143859885D02*
X135048422Y-143802742D01*
X135048422Y-143802742D02*
X135048422Y-143917028D01*
X134305565Y-145002742D02*
X134419850Y-144945600D01*
X134419850Y-144945600D02*
X134476993Y-144831314D01*
X134476993Y-144831314D02*
X134476993Y-143802742D01*
X133848422Y-145002742D02*
X133848422Y-143802742D01*
X133848422Y-143802742D02*
X133162708Y-145002742D01*
X133162708Y-145002742D02*
X133162708Y-143802742D01*
X132591279Y-144202742D02*
X132591279Y-145002742D01*
X132591279Y-144317028D02*
X132534136Y-144259885D01*
X132534136Y-144259885D02*
X132419851Y-144202742D01*
X132419851Y-144202742D02*
X132248422Y-144202742D01*
X132248422Y-144202742D02*
X132134136Y-144259885D01*
X132134136Y-144259885D02*
X132076994Y-144374171D01*
X132076994Y-144374171D02*
X132076994Y-145002742D01*
X131505565Y-145002742D02*
X131505565Y-144202742D01*
X131505565Y-143802742D02*
X131562708Y-143859885D01*
X131562708Y-143859885D02*
X131505565Y-143917028D01*
X131505565Y-143917028D02*
X131448422Y-143859885D01*
X131448422Y-143859885D02*
X131505565Y-143802742D01*
X131505565Y-143802742D02*
X131505565Y-143917028D01*
X130934136Y-145002742D02*
X130934136Y-143802742D01*
X130819851Y-144545600D02*
X130476993Y-145002742D01*
X130476993Y-144202742D02*
X130934136Y-144659885D01*
X129791279Y-145002742D02*
X129905564Y-144945600D01*
X129905564Y-144945600D02*
X129962707Y-144888457D01*
X129962707Y-144888457D02*
X130019850Y-144774171D01*
X130019850Y-144774171D02*
X130019850Y-144431314D01*
X130019850Y-144431314D02*
X129962707Y-144317028D01*
X129962707Y-144317028D02*
X129905564Y-144259885D01*
X129905564Y-144259885D02*
X129791279Y-144202742D01*
X129791279Y-144202742D02*
X129619850Y-144202742D01*
X129619850Y-144202742D02*
X129505564Y-144259885D01*
X129505564Y-144259885D02*
X129448422Y-144317028D01*
X129448422Y-144317028D02*
X129391279Y-144431314D01*
X129391279Y-144431314D02*
X129391279Y-144774171D01*
X129391279Y-144774171D02*
X129448422Y-144888457D01*
X129448422Y-144888457D02*
X129505564Y-144945600D01*
X129505564Y-144945600D02*
X129619850Y-145002742D01*
X129619850Y-145002742D02*
X129791279Y-145002742D01*
X128705565Y-145002742D02*
X128819850Y-144945600D01*
X128819850Y-144945600D02*
X128876993Y-144831314D01*
X128876993Y-144831314D02*
X128876993Y-143802742D01*
X128076994Y-145002742D02*
X128191279Y-144945600D01*
X128191279Y-144945600D02*
X128248422Y-144888457D01*
X128248422Y-144888457D02*
X128305565Y-144774171D01*
X128305565Y-144774171D02*
X128305565Y-144431314D01*
X128305565Y-144431314D02*
X128248422Y-144317028D01*
X128248422Y-144317028D02*
X128191279Y-144259885D01*
X128191279Y-144259885D02*
X128076994Y-144202742D01*
X128076994Y-144202742D02*
X127905565Y-144202742D01*
X127905565Y-144202742D02*
X127791279Y-144259885D01*
X127791279Y-144259885D02*
X127734137Y-144317028D01*
X127734137Y-144317028D02*
X127676994Y-144431314D01*
X127676994Y-144431314D02*
X127676994Y-144774171D01*
X127676994Y-144774171D02*
X127734137Y-144888457D01*
X127734137Y-144888457D02*
X127791279Y-144945600D01*
X127791279Y-144945600D02*
X127905565Y-145002742D01*
X127905565Y-145002742D02*
X128076994Y-145002742D01*
X127276994Y-144202742D02*
X126991280Y-145002742D01*
X126991280Y-145002742D02*
X126705565Y-144202742D01*
X125391279Y-143745600D02*
X126419851Y-145288457D01*
X125105565Y-144202742D02*
X124819851Y-145002742D01*
X124819851Y-145002742D02*
X124534136Y-144202742D01*
X123562708Y-145002742D02*
X123562708Y-144374171D01*
X123562708Y-144374171D02*
X123619850Y-144259885D01*
X123619850Y-144259885D02*
X123734136Y-144202742D01*
X123734136Y-144202742D02*
X123962708Y-144202742D01*
X123962708Y-144202742D02*
X124076993Y-144259885D01*
X123562708Y-144945600D02*
X123676993Y-145002742D01*
X123676993Y-145002742D02*
X123962708Y-145002742D01*
X123962708Y-145002742D02*
X124076993Y-144945600D01*
X124076993Y-144945600D02*
X124134136Y-144831314D01*
X124134136Y-144831314D02*
X124134136Y-144717028D01*
X124134136Y-144717028D02*
X124076993Y-144602742D01*
X124076993Y-144602742D02*
X123962708Y-144545600D01*
X123962708Y-144545600D02*
X123676993Y-144545600D01*
X123676993Y-144545600D02*
X123562708Y-144488457D01*
X122991279Y-145002742D02*
X122991279Y-144202742D01*
X122991279Y-144431314D02*
X122934136Y-144317028D01*
X122934136Y-144317028D02*
X122876994Y-144259885D01*
X122876994Y-144259885D02*
X122762708Y-144202742D01*
X122762708Y-144202742D02*
X122648422Y-144202742D01*
X122248422Y-145002742D02*
X122248422Y-144202742D01*
X122248422Y-143802742D02*
X122305565Y-143859885D01*
X122305565Y-143859885D02*
X122248422Y-143917028D01*
X122248422Y-143917028D02*
X122191279Y-143859885D01*
X122191279Y-143859885D02*
X122248422Y-143802742D01*
X122248422Y-143802742D02*
X122248422Y-143917028D01*
X121505565Y-145002742D02*
X121619850Y-144945600D01*
X121619850Y-144945600D02*
X121676993Y-144888457D01*
X121676993Y-144888457D02*
X121734136Y-144774171D01*
X121734136Y-144774171D02*
X121734136Y-144431314D01*
X121734136Y-144431314D02*
X121676993Y-144317028D01*
X121676993Y-144317028D02*
X121619850Y-144259885D01*
X121619850Y-144259885D02*
X121505565Y-144202742D01*
X121505565Y-144202742D02*
X121334136Y-144202742D01*
X121334136Y-144202742D02*
X121219850Y-144259885D01*
X121219850Y-144259885D02*
X121162708Y-144317028D01*
X121162708Y-144317028D02*
X121105565Y-144431314D01*
X121105565Y-144431314D02*
X121105565Y-144774171D01*
X121105565Y-144774171D02*
X121162708Y-144888457D01*
X121162708Y-144888457D02*
X121219850Y-144945600D01*
X121219850Y-144945600D02*
X121334136Y-145002742D01*
X121334136Y-145002742D02*
X121505565Y-145002742D01*
X165735600Y-130167292D02*
X165735600Y-131081578D01*
X165735600Y-126167292D02*
X165735600Y-127081578D01*
X166192742Y-126624435D02*
X165278457Y-126624435D01*
D11*
%TO.C,U1*%
X146775000Y-113875000D02*
X148275000Y-113875000D01*
X146775000Y-117375000D02*
X148275000Y-117375000D01*
X149775000Y-113875000D02*
X148275000Y-113875000D01*
X149775000Y-117375000D02*
X148275000Y-117375000D01*
X146327500Y-117390000D02*
X145847500Y-117390000D01*
X146087500Y-117060000D01*
X146327500Y-117390000D01*
G36*
X146327500Y-117390000D02*
G01*
X145847500Y-117390000D01*
X146087500Y-117060000D01*
X146327500Y-117390000D01*
G37*
%TO.C,C14*%
X158860000Y-118877836D02*
X158860000Y-118662164D01*
X159580000Y-118877836D02*
X159580000Y-118662164D01*
%TO.C,U8*%
X156950000Y-127877500D02*
X156950000Y-128527500D01*
X156950000Y-129177500D02*
X156950000Y-128527500D01*
X160070000Y-127877500D02*
X160070000Y-128527500D01*
X160070000Y-129177500D02*
X160070000Y-128527500D01*
X160350000Y-129930000D02*
X160020000Y-129690000D01*
X160350000Y-129450000D01*
X160350000Y-129930000D01*
G36*
X160350000Y-129930000D02*
G01*
X160020000Y-129690000D01*
X160350000Y-129450000D01*
X160350000Y-129930000D01*
G37*
%TO.C,C27*%
X121452164Y-133880000D02*
X121667836Y-133880000D01*
X121452164Y-134600000D02*
X121667836Y-134600000D01*
%TO.C,JP2*%
X164040000Y-135015000D02*
X166040000Y-135015000D01*
X164040000Y-137815000D02*
X164040000Y-135015000D01*
X166040000Y-135015000D02*
X166040000Y-137815000D01*
X166040000Y-137815000D02*
X164040000Y-137815000D01*
%TO.C,R29*%
X159913641Y-112070000D02*
X159606359Y-112070000D01*
X159913641Y-112830000D02*
X159606359Y-112830000D01*
%TO.C,C19*%
X155300000Y-128332164D02*
X155300000Y-128547836D01*
X156020000Y-128332164D02*
X156020000Y-128547836D01*
%TO.C,C25*%
X123070000Y-131297836D02*
X123070000Y-131082164D01*
X123790000Y-131297836D02*
X123790000Y-131082164D01*
%TO.C,C9*%
X140682164Y-113610000D02*
X140897836Y-113610000D01*
X140682164Y-114330000D02*
X140897836Y-114330000D01*
%TO.C,R31*%
X162380000Y-136553641D02*
X162380000Y-136246359D01*
X163140000Y-136553641D02*
X163140000Y-136246359D01*
%TO.C,Y1*%
X122830000Y-133515000D02*
X122830000Y-136365000D01*
X124430000Y-133515000D02*
X122830000Y-133515000D01*
X124430000Y-136365000D02*
X124430000Y-133515000D01*
%TO.C,U7*%
X159562500Y-113630000D02*
X160362500Y-113630000D01*
X159562500Y-116750000D02*
X160362500Y-116750000D01*
X161162500Y-113630000D02*
X160362500Y-113630000D01*
X161162500Y-116750000D02*
X160362500Y-116750000D01*
X161662500Y-113680000D02*
X161422500Y-113350000D01*
X161902500Y-113350000D01*
X161662500Y-113680000D01*
G36*
X161662500Y-113680000D02*
G01*
X161422500Y-113350000D01*
X161902500Y-113350000D01*
X161662500Y-113680000D01*
G37*
%TO.C,R32*%
X161120000Y-119093641D02*
X161120000Y-118786359D01*
X161880000Y-119093641D02*
X161880000Y-118786359D01*
%TO.C,R33*%
X157210000Y-121283641D02*
X157210000Y-120976359D01*
X157970000Y-121283641D02*
X157970000Y-120976359D01*
%TO.C,C7*%
X143110000Y-117947836D02*
X143110000Y-117732164D01*
X143830000Y-117947836D02*
X143830000Y-117732164D01*
%TO.C,C11*%
X124170000Y-131307836D02*
X124170000Y-131092164D01*
X124890000Y-131307836D02*
X124890000Y-131092164D01*
%TO.C,R16*%
X144823641Y-119610000D02*
X144516359Y-119610000D01*
X144823641Y-120370000D02*
X144516359Y-120370000D01*
%TO.C,R18*%
X143106359Y-113590000D02*
X143413641Y-113590000D01*
X143106359Y-114350000D02*
X143413641Y-114350000D01*
%TO.C,BT2*%
D10*
X163550000Y-123600000D02*
X166550000Y-123600000D01*
X166550000Y-133600000D01*
X163550000Y-133600000D01*
X163550000Y-123600000D01*
D11*
%TO.C,C5*%
X152920000Y-115787836D02*
X152920000Y-115572164D01*
X153640000Y-115787836D02*
X153640000Y-115572164D01*
%TO.C,C18*%
X160820000Y-128777836D02*
X160820000Y-128562164D01*
X161540000Y-128777836D02*
X161540000Y-128562164D01*
%TO.C,C6*%
X154400000Y-115787836D02*
X154400000Y-115572164D01*
X155120000Y-115787836D02*
X155120000Y-115572164D01*
%TO.C,C26*%
X121472164Y-135730000D02*
X121687836Y-135730000D01*
X121472164Y-136450000D02*
X121687836Y-136450000D01*
%TO.C,R28*%
X165236359Y-113920000D02*
X165543641Y-113920000D01*
X165236359Y-114680000D02*
X165543641Y-114680000D01*
%TD*%
M02*
