M48
; DRILL file {KiCad 8.0.9-8.0.9-0~ubuntu24.04.1} date 2025-05-04T14:55:01+0300
; FORMAT={-:-/ absolute / metric / decimal}
; #@! TF.CreationDate,2025-05-04T14:55:01+03:00
; #@! TF.GenerationSoftware,Kicad,Pcbnew,8.0.9-8.0.9-0~ubuntu24.04.1
; #@! TF.FileFunction,MixedPlating,1,4
FMAT,2
METRIC
; #@! TA.AperFunction,Plated,PTH,ViaDrill
T1C0.300
; #@! TA.AperFunction,Plated,PTH,ComponentDrill
T2C0.600
; #@! TA.AperFunction,Plated,PTH,ComponentDrill
T3C0.762
; #@! TA.AperFunction,Plated,PTH,ComponentDrill
T4C1.100
; #@! TA.AperFunction,Plated,PTH,ComponentDrill
T5C2.200
; #@! TA.AperFunction,NonPlated,NPTH,ComponentDrill
T6C0.650
%
G90
G05
T1
X107.07Y-112.33
X107.99Y-117.23
X109.13Y-122.28
X109.13Y-127.08
X113.54Y-112.01
X113.96Y-139.83
X115.61Y-140.81
X115.72Y-135.54
X118.36Y-102.88
X118.64Y-136.97
X118.89Y-128.6
X119.86Y-123.36
X120.54Y-131.35
X120.74Y-125.3
X120.9Y-123.64
X121.12Y-138.69
X121.22Y-139.88
X121.55Y-130.62
X121.89Y-121.44
X122.64Y-120.94
X122.75Y-118.03
X123.43Y-139.25
X123.51Y-102.87
X123.76Y-124.29
X124.41Y-123.51
X124.64Y-132.69
X124.8Y-140.28
X125.04Y-135.47
X125.4Y-130.72
X125.46Y-131.93
X126.45Y-115.1
X126.57Y-136.68
X127.49Y-128.47
X127.49Y-136.58
X127.62Y-146.74
X128.11Y-140.04
X128.33Y-125.57
X128.4Y-102.87
X128.46Y-135.36
X128.54Y-130.92
X129.02Y-139.3
X129.2Y-146.49
X129.94Y-108.2
X130.16Y-134.32
X130.21Y-138.61
X130.97Y-127.75
X131.87Y-112.98
X132.33Y-139.85
X133.56Y-128.57
X134.83Y-131.82
X135.89Y-139.68
X139.09Y-113.97
X139.6Y-146.76
X140.25Y-142.1
X141.6Y-146.79
X142.01Y-139.4
X142.62Y-115.22
X142.87Y-119.57
X142.92Y-139.4
X143.43Y-115.63
X150.59Y-132.13
X151.78Y-146.79
X152.01Y-129.4
X153.28Y-117.26
X153.96Y-118.51
X154.36Y-146.1
X155.5Y-130.0
X155.5Y-131.0
X155.66Y-126.9
X156.5Y-130.0
X156.5Y-131.0
X157.5Y-131.0
X157.59Y-119.11
X159.22Y-120.57
X159.46Y-131.0
X161.51Y-112.45
X162.7Y-128.91
X163.05Y-138.2
X163.41Y-115.37
X164.0Y-138.5
X164.0Y-139.5
X164.0Y-140.5
X165.0Y-138.5
X165.0Y-139.5
X165.0Y-140.5
X165.39Y-116.41
X166.0Y-138.49
X166.0Y-139.5
X166.0Y-140.5
T3
X104.8Y-137.35
X106.568Y-139.118
X108.336Y-140.886
X110.103Y-142.653
X111.871Y-144.421
X113.639Y-146.189
X165.05Y-125.1
X165.05Y-132.1
T4
X150.5Y-110.25
X150.5Y-120.25
T5
X105.0Y-105.0
X105.0Y-145.0
X165.0Y-105.0
X165.0Y-145.0
T6
X106.33Y-121.79
X106.33Y-127.57
T2
G00X103.05Y-120.36
M15
G01X102.25Y-120.36
M16
G05
G00X103.05Y-129.0
M15
G01X102.25Y-129.0
M16
G05
G00X107.38Y-120.36
M15
G01X106.28Y-120.36
M16
G05
G00X107.38Y-129.0
M15
G01X106.28Y-129.0
M16
G05
M30
