%TF.GenerationSoftware,KiCad,Pcbnew,8.0.9-8.0.9-0~ubuntu24.04.1*%
%TF.CreationDate,2025-05-04T14:54:54+03:00*%
%TF.ProjectId,vario_kicad,76617269-6f5f-46b6-9963-61642e6b6963,rev?*%
%TF.SameCoordinates,Original*%
%TF.FileFunction,Copper,L2,Inr*%
%TF.FilePolarity,Positive*%
%FSLAX46Y46*%
G04 Gerber Fmt 4.6, Leading zero omitted, Abs format (unit mm)*
G04 Created by KiCad (PCBNEW 8.0.9-8.0.9-0~ubuntu24.04.1) date 2025-05-04 14:54:54*
%MOMM*%
%LPD*%
G01*
G04 APERTURE LIST*
%TA.AperFunction,ComponentPad*%
%ADD10C,1.700000*%
%TD*%
%TA.AperFunction,ComponentPad*%
%ADD11C,3.500000*%
%TD*%
%TA.AperFunction,ComponentPad*%
%ADD12C,1.524000*%
%TD*%
%TA.AperFunction,HeatsinkPad*%
%ADD13O,2.100000X1.000000*%
%TD*%
%TA.AperFunction,HeatsinkPad*%
%ADD14O,1.800000X1.000000*%
%TD*%
%TA.AperFunction,ViaPad*%
%ADD15C,0.500000*%
%TD*%
G04 APERTURE END LIST*
D10*
%TO.N,Net-(U1-VoP)*%
%TO.C,LS1*%
X150500000Y-120250000D03*
%TO.N,Net-(U1-VoN)*%
X150500000Y-110250000D03*
%TD*%
D11*
%TO.N,GND*%
%TO.C,H3*%
X165000000Y-105000000D03*
%TD*%
%TO.N,GND*%
%TO.C,H4*%
X165000000Y-145000000D03*
%TD*%
%TO.N,GND*%
%TO.C,H2*%
X105000000Y-145000000D03*
%TD*%
D12*
%TO.N,VCC*%
%TO.C,J2*%
X104800000Y-137350000D03*
%TO.N,/mcu/SWDIO*%
X106567767Y-139117767D03*
%TO.N,/mcu/SWCLK*%
X108335534Y-140885534D03*
%TO.N,/mcu/NRST*%
X110103301Y-142653301D03*
%TO.N,/mcu/BOOT0*%
X111871068Y-144421068D03*
%TO.N,GND*%
X113638835Y-146188835D03*
%TD*%
D13*
%TO.N,GND*%
%TO.C,U4*%
X106830000Y-120360000D03*
D14*
X102650000Y-120360000D03*
D13*
X106830000Y-129000000D03*
D14*
X102650000Y-129000000D03*
%TD*%
D11*
%TO.N,GND*%
%TO.C,H1*%
X105000000Y-105000000D03*
%TD*%
D12*
%TO.N,VBATT*%
%TO.C,BT2*%
X165050000Y-125100000D03*
%TO.N,Net-(BT2--)*%
X165050000Y-132100000D03*
%TD*%
D15*
%TO.N,VBATT*%
X162700000Y-128910000D03*
%TO.N,GND*%
X165000000Y-138500000D03*
X129020000Y-139300000D03*
X107990000Y-117230000D03*
X122750000Y-118030000D03*
X135890000Y-139680000D03*
X133560000Y-128570000D03*
X153280000Y-117260000D03*
X130160000Y-134320000D03*
X118360000Y-102880000D03*
X130210000Y-138610000D03*
X124410000Y-123510000D03*
X142870000Y-119570000D03*
X107070000Y-112330000D03*
X115610000Y-140810000D03*
X125040000Y-135470000D03*
X141600000Y-146790000D03*
X166000000Y-139500000D03*
X163050000Y-138200000D03*
X129200000Y-146490000D03*
X115720000Y-135540000D03*
X120740000Y-125300000D03*
X139090000Y-113970000D03*
X125460000Y-131930000D03*
X166000000Y-140500000D03*
X164000000Y-140500000D03*
X165000000Y-140500000D03*
X142620000Y-115220000D03*
X152010000Y-129400000D03*
X128400000Y-102870000D03*
X159220000Y-120570000D03*
X155660000Y-126900000D03*
X154360000Y-146100000D03*
X123510000Y-102870000D03*
X124800000Y-140280000D03*
X164000000Y-139500000D03*
X159460000Y-131000000D03*
X142920000Y-139400000D03*
X129940000Y-108200000D03*
X122640000Y-120940000D03*
X128330000Y-125570000D03*
X164000000Y-138500000D03*
X166000000Y-138490000D03*
X134830000Y-131820000D03*
X161510000Y-112450000D03*
X126450000Y-115100000D03*
X132330000Y-139850000D03*
X163410000Y-115370000D03*
X165000000Y-139500000D03*
%TO.N,VCC*%
X131870000Y-112980000D03*
X156500000Y-131000000D03*
X125400000Y-130720000D03*
X157500000Y-131000000D03*
X155500000Y-130000000D03*
X118890000Y-128600000D03*
X139600000Y-146760000D03*
X118640000Y-136970000D03*
X113540000Y-112010000D03*
X127490000Y-136580000D03*
X127620000Y-146740000D03*
X151780000Y-146790000D03*
X126570000Y-136680000D03*
X156500000Y-130000000D03*
X155500000Y-131000000D03*
%TO.N,VBATT_SW*%
X153960000Y-118510000D03*
%TO.N,V_USB*%
X109130000Y-127080000D03*
X109130000Y-122280000D03*
X157590000Y-119110000D03*
%TO.N,/mcu/WKUP1*%
X140250000Y-142100000D03*
X128540000Y-130920000D03*
%TO.N,/mcu/NRST*%
X113960000Y-139830000D03*
X124640000Y-132690000D03*
%TO.N,Net-(D5-K)*%
X165390000Y-116410000D03*
%TO.N,/mcu/VBATT_SW_EN*%
X121120000Y-138690000D03*
X128110000Y-140040000D03*
%TO.N,/mcu/MEM_CS_ALT*%
X120900000Y-123640000D03*
X121550000Y-130620000D03*
%TO.N,/mcu/SPI1_NSS*%
X119860000Y-123360000D03*
X120540000Y-131350000D03*
%TO.N,/mcu/SPI1_MISO*%
X121890000Y-121440000D03*
X123760000Y-124290000D03*
%TO.N,/audio_amp/AUDIO_AMP_ENABLE*%
X130970000Y-127750000D03*
%TO.N,Net-(U1-INP)*%
X143430000Y-115630000D03*
%TO.N,/mcu/ADC_IN3*%
X127490000Y-128470000D03*
X150590000Y-132130000D03*
%TO.N,/mcu/BOOT0*%
X123430000Y-139250000D03*
X121220000Y-139880000D03*
%TO.N,/mcu/RTC_CALIB*%
X142010000Y-139400000D03*
X128460000Y-135360000D03*
%TD*%
%TA.AperFunction,Conductor*%
%TO.N,GND*%
G36*
X165002292Y-101000605D02*
G01*
X165364452Y-101017349D01*
X165373547Y-101018191D01*
X165730389Y-101067969D01*
X165739358Y-101069646D01*
X166090055Y-101152129D01*
X166098850Y-101154631D01*
X166440442Y-101269121D01*
X166448969Y-101272424D01*
X166778557Y-101417951D01*
X166786714Y-101422012D01*
X167101493Y-101597344D01*
X167109214Y-101602125D01*
X167406470Y-101805749D01*
X167413757Y-101811253D01*
X167690920Y-102041406D01*
X167697678Y-102047566D01*
X167952433Y-102302321D01*
X167958593Y-102309079D01*
X168188746Y-102586242D01*
X168194252Y-102593533D01*
X168397870Y-102890779D01*
X168402658Y-102898512D01*
X168577982Y-103213277D01*
X168582051Y-103221448D01*
X168727575Y-103551030D01*
X168730878Y-103559557D01*
X168845368Y-103901149D01*
X168847870Y-103909944D01*
X168930351Y-104260631D01*
X168932032Y-104269620D01*
X168981807Y-104626447D01*
X168982650Y-104635552D01*
X168999394Y-104997707D01*
X168999500Y-105002279D01*
X168999500Y-144997720D01*
X168999394Y-145002292D01*
X168982650Y-145364447D01*
X168981807Y-145373552D01*
X168932032Y-145730379D01*
X168930351Y-145739368D01*
X168847870Y-146090055D01*
X168845368Y-146098850D01*
X168730878Y-146440442D01*
X168727575Y-146448969D01*
X168582051Y-146778551D01*
X168577977Y-146786731D01*
X168402664Y-147101477D01*
X168397864Y-147109229D01*
X168328493Y-147210500D01*
X168194257Y-147406460D01*
X168188746Y-147413757D01*
X167958593Y-147690920D01*
X167952433Y-147697678D01*
X167697678Y-147952433D01*
X167690920Y-147958593D01*
X167413757Y-148188746D01*
X167406460Y-148194257D01*
X167109229Y-148397864D01*
X167101477Y-148402664D01*
X166786731Y-148577977D01*
X166778551Y-148582051D01*
X166448969Y-148727575D01*
X166440442Y-148730878D01*
X166098850Y-148845368D01*
X166090055Y-148847870D01*
X165739368Y-148930351D01*
X165730379Y-148932032D01*
X165373552Y-148981807D01*
X165364447Y-148982650D01*
X165002293Y-148999394D01*
X164997721Y-148999500D01*
X105002279Y-148999500D01*
X104997707Y-148999394D01*
X104635552Y-148982650D01*
X104626447Y-148981807D01*
X104269620Y-148932032D01*
X104260631Y-148930351D01*
X103909944Y-148847870D01*
X103901149Y-148845368D01*
X103559557Y-148730878D01*
X103551030Y-148727575D01*
X103221448Y-148582051D01*
X103213277Y-148577982D01*
X102898512Y-148402658D01*
X102890779Y-148397870D01*
X102593533Y-148194252D01*
X102586242Y-148188746D01*
X102309079Y-147958593D01*
X102302321Y-147952433D01*
X102047566Y-147697678D01*
X102041406Y-147690920D01*
X101811253Y-147413757D01*
X101805749Y-147406470D01*
X101602125Y-147109214D01*
X101597344Y-147101493D01*
X101422012Y-146786714D01*
X101417948Y-146778551D01*
X101409577Y-146759593D01*
X101272424Y-146448969D01*
X101269121Y-146440442D01*
X101154631Y-146098850D01*
X101152129Y-146090055D01*
X101069646Y-145739358D01*
X101067969Y-145730389D01*
X101018191Y-145373547D01*
X101017349Y-145364447D01*
X101016845Y-145353553D01*
X101000606Y-145002292D01*
X101000553Y-144999999D01*
X102745172Y-144999999D01*
X102745172Y-145000000D01*
X102764461Y-145294311D01*
X102822004Y-145583598D01*
X102916810Y-145862883D01*
X102916815Y-145862894D01*
X103047262Y-146127414D01*
X103211122Y-146372648D01*
X103211125Y-146372652D01*
X103240405Y-146406039D01*
X104063708Y-145582735D01*
X104160967Y-145716602D01*
X104283398Y-145839033D01*
X104417261Y-145936290D01*
X103593959Y-146759593D01*
X103627338Y-146788867D01*
X103627351Y-146788877D01*
X103872585Y-146952737D01*
X104137105Y-147083184D01*
X104137116Y-147083189D01*
X104416401Y-147177995D01*
X104705688Y-147235538D01*
X104999999Y-147254828D01*
X105000001Y-147254828D01*
X105294311Y-147235538D01*
X105583598Y-147177995D01*
X105862883Y-147083189D01*
X105862894Y-147083184D01*
X106127413Y-146952738D01*
X106372649Y-146788877D01*
X106406039Y-146759593D01*
X105582736Y-145936290D01*
X105716602Y-145839033D01*
X105839033Y-145716602D01*
X105936290Y-145582736D01*
X106759593Y-146406039D01*
X106788877Y-146372649D01*
X106952738Y-146127413D01*
X107045734Y-145938835D01*
X112399304Y-145938835D01*
X113350019Y-145938835D01*
X113333959Y-145954895D01*
X113283799Y-146041774D01*
X113257835Y-146138675D01*
X113257835Y-146238995D01*
X113283799Y-146335896D01*
X113333959Y-146422775D01*
X113350019Y-146438835D01*
X112399304Y-146438835D01*
X112448413Y-146622112D01*
X112541735Y-146822244D01*
X112668390Y-147003127D01*
X112824542Y-147159279D01*
X113005425Y-147285934D01*
X113205557Y-147379256D01*
X113388835Y-147428366D01*
X113388835Y-146477651D01*
X113404895Y-146493711D01*
X113491774Y-146543871D01*
X113588675Y-146569835D01*
X113688995Y-146569835D01*
X113785896Y-146543871D01*
X113872775Y-146493711D01*
X113888835Y-146477651D01*
X113888835Y-147428365D01*
X114072112Y-147379256D01*
X114272244Y-147285934D01*
X114453127Y-147159279D01*
X114609279Y-147003127D01*
X114735934Y-146822244D01*
X114774286Y-146739997D01*
X127164867Y-146739997D01*
X127164867Y-146740002D01*
X127183302Y-146868225D01*
X127221898Y-146952737D01*
X127237118Y-146986063D01*
X127254448Y-147006063D01*
X127321952Y-147083968D01*
X127399754Y-147133968D01*
X127430931Y-147154004D01*
X127555228Y-147190500D01*
X127555230Y-147190500D01*
X127684770Y-147190500D01*
X127684772Y-147190500D01*
X127809069Y-147154004D01*
X127918049Y-147083967D01*
X128002882Y-146986063D01*
X128056697Y-146868226D01*
X128072257Y-146760002D01*
X128072258Y-146759997D01*
X139144867Y-146759997D01*
X139144867Y-146760002D01*
X139163302Y-146888225D01*
X139192765Y-146952738D01*
X139217118Y-147006063D01*
X139243113Y-147036063D01*
X139301952Y-147103968D01*
X139379810Y-147154004D01*
X139410931Y-147174004D01*
X139535228Y-147210500D01*
X139535230Y-147210500D01*
X139664770Y-147210500D01*
X139664772Y-147210500D01*
X139789069Y-147174004D01*
X139898049Y-147103967D01*
X139982882Y-147006063D01*
X140036697Y-146888226D01*
X140046184Y-146822244D01*
X140050820Y-146789997D01*
X151324867Y-146789997D01*
X151324867Y-146790002D01*
X151343302Y-146918225D01*
X151374283Y-146986063D01*
X151397118Y-147036063D01*
X151460524Y-147109238D01*
X151481952Y-147133968D01*
X151569918Y-147190500D01*
X151590931Y-147204004D01*
X151715228Y-147240500D01*
X151715230Y-147240500D01*
X151844770Y-147240500D01*
X151844772Y-147240500D01*
X151969069Y-147204004D01*
X152078049Y-147133967D01*
X152162882Y-147036063D01*
X152216697Y-146918226D01*
X152235133Y-146790000D01*
X152234970Y-146788867D01*
X152216697Y-146661774D01*
X152162882Y-146543938D01*
X152162882Y-146543937D01*
X152078049Y-146446033D01*
X152078048Y-146446032D01*
X152078047Y-146446031D01*
X151969073Y-146375998D01*
X151969070Y-146375996D01*
X151969069Y-146375996D01*
X151969066Y-146375995D01*
X151844774Y-146339500D01*
X151844772Y-146339500D01*
X151715228Y-146339500D01*
X151715225Y-146339500D01*
X151590933Y-146375995D01*
X151590926Y-146375998D01*
X151481952Y-146446031D01*
X151397117Y-146543938D01*
X151343302Y-146661774D01*
X151324867Y-146789997D01*
X140050820Y-146789997D01*
X140055133Y-146760002D01*
X140055133Y-146759997D01*
X140036697Y-146631774D01*
X139996583Y-146543938D01*
X139982882Y-146513937D01*
X139898049Y-146416033D01*
X139898048Y-146416032D01*
X139898047Y-146416031D01*
X139789073Y-146345998D01*
X139789070Y-146345996D01*
X139789069Y-146345996D01*
X139789066Y-146345995D01*
X139664774Y-146309500D01*
X139664772Y-146309500D01*
X139535228Y-146309500D01*
X139535225Y-146309500D01*
X139410933Y-146345995D01*
X139410926Y-146345998D01*
X139301952Y-146416031D01*
X139217117Y-146513938D01*
X139163302Y-146631774D01*
X139144867Y-146759997D01*
X128072258Y-146759997D01*
X128075133Y-146740002D01*
X128075133Y-146739997D01*
X128056697Y-146611774D01*
X128025717Y-146543938D01*
X128002882Y-146493937D01*
X127918049Y-146396033D01*
X127918048Y-146396032D01*
X127918047Y-146396031D01*
X127809073Y-146325998D01*
X127809070Y-146325996D01*
X127809069Y-146325996D01*
X127809066Y-146325995D01*
X127684774Y-146289500D01*
X127684772Y-146289500D01*
X127555228Y-146289500D01*
X127555225Y-146289500D01*
X127430933Y-146325995D01*
X127430926Y-146325998D01*
X127321952Y-146396031D01*
X127237117Y-146493938D01*
X127183302Y-146611774D01*
X127164867Y-146739997D01*
X114774286Y-146739997D01*
X114829256Y-146622112D01*
X114878366Y-146438835D01*
X113927651Y-146438835D01*
X113943711Y-146422775D01*
X113993871Y-146335896D01*
X114019835Y-146238995D01*
X114019835Y-146138675D01*
X113993871Y-146041774D01*
X113943711Y-145954895D01*
X113927651Y-145938835D01*
X114878366Y-145938835D01*
X114829256Y-145755558D01*
X114735934Y-145555426D01*
X114609279Y-145374542D01*
X114453127Y-145218390D01*
X114272244Y-145091735D01*
X114075514Y-144999999D01*
X162745172Y-144999999D01*
X162745172Y-145000000D01*
X162764461Y-145294311D01*
X162822004Y-145583598D01*
X162916810Y-145862883D01*
X162916815Y-145862894D01*
X163047262Y-146127414D01*
X163211122Y-146372648D01*
X163211125Y-146372652D01*
X163240405Y-146406039D01*
X164063708Y-145582735D01*
X164160967Y-145716602D01*
X164283398Y-145839033D01*
X164417261Y-145936290D01*
X163593959Y-146759593D01*
X163627338Y-146788867D01*
X163627351Y-146788877D01*
X163872585Y-146952737D01*
X164137105Y-147083184D01*
X164137116Y-147083189D01*
X164416401Y-147177995D01*
X164705688Y-147235538D01*
X164999999Y-147254828D01*
X165000001Y-147254828D01*
X165294311Y-147235538D01*
X165583598Y-147177995D01*
X165862883Y-147083189D01*
X165862894Y-147083184D01*
X166127413Y-146952738D01*
X166372649Y-146788877D01*
X166406039Y-146759593D01*
X165582736Y-145936290D01*
X165716602Y-145839033D01*
X165839033Y-145716602D01*
X165936290Y-145582736D01*
X166759593Y-146406039D01*
X166788877Y-146372649D01*
X166952738Y-146127413D01*
X167083184Y-145862894D01*
X167083189Y-145862883D01*
X167177995Y-145583598D01*
X167235538Y-145294311D01*
X167254828Y-145000000D01*
X167254828Y-144999999D01*
X167235538Y-144705688D01*
X167177995Y-144416401D01*
X167083189Y-144137116D01*
X167083184Y-144137105D01*
X166952737Y-143872585D01*
X166788877Y-143627351D01*
X166788867Y-143627338D01*
X166759593Y-143593959D01*
X165936290Y-144417261D01*
X165839033Y-144283398D01*
X165716602Y-144160967D01*
X165582735Y-144063708D01*
X166406039Y-143240405D01*
X166372652Y-143211125D01*
X166372648Y-143211122D01*
X166127414Y-143047262D01*
X165862894Y-142916815D01*
X165862883Y-142916810D01*
X165583598Y-142822004D01*
X165294311Y-142764461D01*
X165000001Y-142745172D01*
X164999999Y-142745172D01*
X164705688Y-142764461D01*
X164416401Y-142822004D01*
X164137116Y-142916810D01*
X164137105Y-142916815D01*
X163872585Y-143047262D01*
X163627349Y-143211123D01*
X163593959Y-143240405D01*
X164417263Y-144063709D01*
X164283398Y-144160967D01*
X164160967Y-144283398D01*
X164063709Y-144417263D01*
X163240405Y-143593959D01*
X163211123Y-143627349D01*
X163047262Y-143872585D01*
X162916815Y-144137105D01*
X162916810Y-144137116D01*
X162822004Y-144416401D01*
X162764461Y-144705688D01*
X162745172Y-144999999D01*
X114075514Y-144999999D01*
X114072113Y-144998413D01*
X113888835Y-144949303D01*
X113888835Y-145900019D01*
X113872775Y-145883959D01*
X113785896Y-145833799D01*
X113688995Y-145807835D01*
X113588675Y-145807835D01*
X113491774Y-145833799D01*
X113404895Y-145883959D01*
X113388835Y-145900019D01*
X113388835Y-144949303D01*
X113205558Y-144998412D01*
X113005426Y-145091735D01*
X112824542Y-145218390D01*
X112668390Y-145374542D01*
X112541735Y-145555426D01*
X112448413Y-145755558D01*
X112399304Y-145938835D01*
X107045734Y-145938835D01*
X107083184Y-145862894D01*
X107083189Y-145862883D01*
X107177995Y-145583598D01*
X107235538Y-145294311D01*
X107254828Y-145000000D01*
X107254828Y-144999999D01*
X107235538Y-144705688D01*
X107178923Y-144421064D01*
X110903911Y-144421064D01*
X110903911Y-144421071D01*
X110922493Y-144609746D01*
X110922494Y-144609751D01*
X110977531Y-144791183D01*
X110977533Y-144791188D01*
X111039591Y-144907290D01*
X111066906Y-144958392D01*
X111187185Y-145104951D01*
X111187189Y-145104954D01*
X111325409Y-145218390D01*
X111333744Y-145225230D01*
X111500953Y-145314605D01*
X111627348Y-145352945D01*
X111682384Y-145369641D01*
X111682389Y-145369642D01*
X111871065Y-145388225D01*
X111871068Y-145388225D01*
X111871071Y-145388225D01*
X112059746Y-145369642D01*
X112059751Y-145369641D01*
X112061775Y-145369027D01*
X112241183Y-145314605D01*
X112408392Y-145225230D01*
X112554951Y-145104951D01*
X112675230Y-144958392D01*
X112764605Y-144791183D01*
X112819641Y-144609751D01*
X112819642Y-144609746D01*
X112838225Y-144421071D01*
X112838225Y-144421064D01*
X112819642Y-144232389D01*
X112819641Y-144232384D01*
X112790742Y-144137116D01*
X112764605Y-144050953D01*
X112675230Y-143883744D01*
X112554951Y-143737185D01*
X112421117Y-143627349D01*
X112408396Y-143616909D01*
X112408394Y-143616908D01*
X112408392Y-143616906D01*
X112365461Y-143593959D01*
X112241188Y-143527533D01*
X112241183Y-143527531D01*
X112059751Y-143472494D01*
X112059746Y-143472493D01*
X111871071Y-143453911D01*
X111871065Y-143453911D01*
X111682389Y-143472493D01*
X111682384Y-143472494D01*
X111500952Y-143527531D01*
X111500947Y-143527533D01*
X111333749Y-143616903D01*
X111333739Y-143616909D01*
X111187189Y-143737181D01*
X111187181Y-143737189D01*
X111066909Y-143883739D01*
X111066903Y-143883749D01*
X110977533Y-144050947D01*
X110977531Y-144050952D01*
X110922494Y-144232384D01*
X110922493Y-144232389D01*
X110903911Y-144421064D01*
X107178923Y-144421064D01*
X107177995Y-144416401D01*
X107083189Y-144137116D01*
X107083184Y-144137105D01*
X106952737Y-143872585D01*
X106788877Y-143627351D01*
X106788867Y-143627338D01*
X106759593Y-143593959D01*
X105936290Y-144417261D01*
X105839033Y-144283398D01*
X105716602Y-144160967D01*
X105582735Y-144063708D01*
X106406039Y-143240405D01*
X106372652Y-143211125D01*
X106372648Y-143211122D01*
X106127414Y-143047262D01*
X105862894Y-142916815D01*
X105862883Y-142916810D01*
X105583598Y-142822004D01*
X105294311Y-142764461D01*
X105000001Y-142745172D01*
X104999999Y-142745172D01*
X104705688Y-142764461D01*
X104416401Y-142822004D01*
X104137116Y-142916810D01*
X104137105Y-142916815D01*
X103872585Y-143047262D01*
X103627349Y-143211123D01*
X103593959Y-143240405D01*
X104417263Y-144063709D01*
X104283398Y-144160967D01*
X104160967Y-144283398D01*
X104063709Y-144417263D01*
X103240405Y-143593959D01*
X103211123Y-143627349D01*
X103047262Y-143872585D01*
X102916815Y-144137105D01*
X102916810Y-144137116D01*
X102822004Y-144416401D01*
X102764461Y-144705688D01*
X102745172Y-144999999D01*
X101000553Y-144999999D01*
X101000500Y-144997720D01*
X101000500Y-142653297D01*
X109136144Y-142653297D01*
X109136144Y-142653304D01*
X109154726Y-142841979D01*
X109154727Y-142841984D01*
X109209764Y-143023416D01*
X109209766Y-143023421D01*
X109278098Y-143151260D01*
X109299139Y-143190625D01*
X109299141Y-143190627D01*
X109299142Y-143190629D01*
X109315961Y-143211123D01*
X109419418Y-143337184D01*
X109565977Y-143457463D01*
X109733186Y-143546838D01*
X109859581Y-143585178D01*
X109914617Y-143601874D01*
X109914622Y-143601875D01*
X110103298Y-143620458D01*
X110103301Y-143620458D01*
X110103304Y-143620458D01*
X110291979Y-143601875D01*
X110291984Y-143601874D01*
X110473416Y-143546838D01*
X110640625Y-143457463D01*
X110787184Y-143337184D01*
X110907463Y-143190625D01*
X110996838Y-143023416D01*
X111051874Y-142841984D01*
X111051875Y-142841979D01*
X111070458Y-142653304D01*
X111070458Y-142653297D01*
X111051875Y-142464622D01*
X111051874Y-142464617D01*
X111015911Y-142346063D01*
X110996838Y-142283186D01*
X110907463Y-142115977D01*
X110894348Y-142099997D01*
X139794867Y-142099997D01*
X139794867Y-142100002D01*
X139813302Y-142228225D01*
X139867117Y-142346061D01*
X139867118Y-142346063D01*
X139951951Y-142443967D01*
X139951952Y-142443968D01*
X140060926Y-142514001D01*
X140060931Y-142514004D01*
X140185228Y-142550500D01*
X140185230Y-142550500D01*
X140314770Y-142550500D01*
X140314772Y-142550500D01*
X140439069Y-142514004D01*
X140548049Y-142443967D01*
X140632882Y-142346063D01*
X140686697Y-142228226D01*
X140705133Y-142100000D01*
X140686697Y-141971774D01*
X140632882Y-141853937D01*
X140548049Y-141756033D01*
X140548048Y-141756032D01*
X140548047Y-141756031D01*
X140439073Y-141685998D01*
X140439070Y-141685996D01*
X140439069Y-141685996D01*
X140439066Y-141685995D01*
X140314774Y-141649500D01*
X140314772Y-141649500D01*
X140185228Y-141649500D01*
X140185225Y-141649500D01*
X140060933Y-141685995D01*
X140060926Y-141685998D01*
X139951952Y-141756031D01*
X139867117Y-141853938D01*
X139813302Y-141971774D01*
X139794867Y-142099997D01*
X110894348Y-142099997D01*
X110787184Y-141969418D01*
X110646473Y-141853938D01*
X110640629Y-141849142D01*
X110640627Y-141849141D01*
X110640625Y-141849139D01*
X110601260Y-141828098D01*
X110473421Y-141759766D01*
X110473416Y-141759764D01*
X110291984Y-141704727D01*
X110291979Y-141704726D01*
X110103304Y-141686144D01*
X110103298Y-141686144D01*
X109914622Y-141704726D01*
X109914617Y-141704727D01*
X109733185Y-141759764D01*
X109733180Y-141759766D01*
X109565982Y-141849136D01*
X109565972Y-141849142D01*
X109419422Y-141969414D01*
X109419414Y-141969422D01*
X109299142Y-142115972D01*
X109299136Y-142115982D01*
X109209766Y-142283180D01*
X109209764Y-142283185D01*
X109154727Y-142464617D01*
X109154726Y-142464622D01*
X109136144Y-142653297D01*
X101000500Y-142653297D01*
X101000500Y-140885530D01*
X107368377Y-140885530D01*
X107368377Y-140885537D01*
X107386959Y-141074212D01*
X107386960Y-141074217D01*
X107441997Y-141255649D01*
X107441999Y-141255654D01*
X107510331Y-141383493D01*
X107531372Y-141422858D01*
X107651651Y-141569417D01*
X107758953Y-141657478D01*
X107793701Y-141685996D01*
X107798210Y-141689696D01*
X107965419Y-141779071D01*
X108091814Y-141817411D01*
X108146850Y-141834107D01*
X108146855Y-141834108D01*
X108335531Y-141852691D01*
X108335534Y-141852691D01*
X108335537Y-141852691D01*
X108524212Y-141834108D01*
X108524217Y-141834107D01*
X108705649Y-141779071D01*
X108872858Y-141689696D01*
X109019417Y-141569417D01*
X109139696Y-141422858D01*
X109229071Y-141255649D01*
X109284107Y-141074217D01*
X109284108Y-141074212D01*
X109302691Y-140885537D01*
X109302691Y-140885530D01*
X109284108Y-140696855D01*
X109284107Y-140696850D01*
X109267411Y-140641814D01*
X109229071Y-140515419D01*
X109139696Y-140348210D01*
X109019417Y-140201651D01*
X108872858Y-140081372D01*
X108795460Y-140040002D01*
X108705654Y-139991999D01*
X108705649Y-139991997D01*
X108524217Y-139936960D01*
X108524212Y-139936959D01*
X108335537Y-139918377D01*
X108335531Y-139918377D01*
X108146855Y-139936959D01*
X108146850Y-139936960D01*
X107965418Y-139991997D01*
X107965413Y-139991999D01*
X107798215Y-140081369D01*
X107798205Y-140081375D01*
X107651655Y-140201647D01*
X107651647Y-140201655D01*
X107531375Y-140348205D01*
X107531369Y-140348215D01*
X107441999Y-140515413D01*
X107441997Y-140515418D01*
X107386960Y-140696850D01*
X107386959Y-140696855D01*
X107368377Y-140885530D01*
X101000500Y-140885530D01*
X101000500Y-139117763D01*
X105600610Y-139117763D01*
X105600610Y-139117770D01*
X105619192Y-139306445D01*
X105619193Y-139306450D01*
X105674230Y-139487882D01*
X105674232Y-139487887D01*
X105730934Y-139593968D01*
X105763605Y-139655091D01*
X105763607Y-139655093D01*
X105763608Y-139655095D01*
X105801917Y-139701774D01*
X105883884Y-139801650D01*
X106030443Y-139921929D01*
X106158287Y-139990263D01*
X106191891Y-140008225D01*
X106197652Y-140011304D01*
X106324047Y-140049644D01*
X106379083Y-140066340D01*
X106379088Y-140066341D01*
X106567764Y-140084924D01*
X106567767Y-140084924D01*
X106567770Y-140084924D01*
X106756445Y-140066341D01*
X106756450Y-140066340D01*
X106937882Y-140011304D01*
X107105091Y-139921929D01*
X107217109Y-139829997D01*
X113504867Y-139829997D01*
X113504867Y-139830002D01*
X113523302Y-139958225D01*
X113572678Y-140066341D01*
X113577118Y-140076063D01*
X113661951Y-140173967D01*
X113661952Y-140173968D01*
X113739754Y-140223968D01*
X113770931Y-140244004D01*
X113895228Y-140280500D01*
X113895230Y-140280500D01*
X114024770Y-140280500D01*
X114024772Y-140280500D01*
X114149069Y-140244004D01*
X114258049Y-140173967D01*
X114342882Y-140076063D01*
X114396697Y-139958226D01*
X114407945Y-139879997D01*
X120764867Y-139879997D01*
X120764867Y-139880002D01*
X120783302Y-140008225D01*
X120816708Y-140081372D01*
X120837118Y-140126063D01*
X120902618Y-140201655D01*
X120921952Y-140223968D01*
X121030926Y-140294001D01*
X121030931Y-140294004D01*
X121155228Y-140330500D01*
X121155230Y-140330500D01*
X121284770Y-140330500D01*
X121284772Y-140330500D01*
X121409069Y-140294004D01*
X121518049Y-140223967D01*
X121602882Y-140126063D01*
X121642187Y-140039997D01*
X127654867Y-140039997D01*
X127654867Y-140040002D01*
X127673302Y-140168225D01*
X127707910Y-140244004D01*
X127727118Y-140286063D01*
X127811951Y-140383967D01*
X127811952Y-140383968D01*
X127920926Y-140454001D01*
X127920931Y-140454004D01*
X128045228Y-140490500D01*
X128045230Y-140490500D01*
X128174770Y-140490500D01*
X128174772Y-140490500D01*
X128299069Y-140454004D01*
X128408049Y-140383967D01*
X128492882Y-140286063D01*
X128546697Y-140168226D01*
X128565133Y-140040000D01*
X128560564Y-140008225D01*
X128546697Y-139911774D01*
X128518713Y-139850499D01*
X128492882Y-139793937D01*
X128408049Y-139696033D01*
X128408048Y-139696032D01*
X128408047Y-139696031D01*
X128299073Y-139625998D01*
X128299070Y-139625996D01*
X128299069Y-139625996D01*
X128299066Y-139625995D01*
X128174774Y-139589500D01*
X128174772Y-139589500D01*
X128045228Y-139589500D01*
X128045225Y-139589500D01*
X127920933Y-139625995D01*
X127920926Y-139625998D01*
X127811952Y-139696031D01*
X127727117Y-139793938D01*
X127673302Y-139911774D01*
X127654867Y-140039997D01*
X121642187Y-140039997D01*
X121656697Y-140008226D01*
X121666943Y-139936961D01*
X121675133Y-139880002D01*
X121675133Y-139879997D01*
X121656697Y-139751774D01*
X121633862Y-139701774D01*
X121602882Y-139633937D01*
X121518049Y-139536033D01*
X121518048Y-139536032D01*
X121518047Y-139536031D01*
X121409073Y-139465998D01*
X121409070Y-139465996D01*
X121409069Y-139465996D01*
X121409066Y-139465995D01*
X121284774Y-139429500D01*
X121284772Y-139429500D01*
X121155228Y-139429500D01*
X121155225Y-139429500D01*
X121030933Y-139465995D01*
X121030926Y-139465998D01*
X120921952Y-139536031D01*
X120837117Y-139633938D01*
X120783302Y-139751774D01*
X120764867Y-139879997D01*
X114407945Y-139879997D01*
X114415133Y-139830000D01*
X114412833Y-139814004D01*
X114396697Y-139701774D01*
X114375377Y-139655091D01*
X114342882Y-139583937D01*
X114258049Y-139486033D01*
X114258048Y-139486032D01*
X114258047Y-139486031D01*
X114149073Y-139415998D01*
X114149070Y-139415996D01*
X114149069Y-139415996D01*
X114149066Y-139415995D01*
X114024774Y-139379500D01*
X114024772Y-139379500D01*
X113895228Y-139379500D01*
X113895225Y-139379500D01*
X113770933Y-139415995D01*
X113770926Y-139415998D01*
X113661952Y-139486031D01*
X113577117Y-139583938D01*
X113523302Y-139701774D01*
X113504867Y-139829997D01*
X107217109Y-139829997D01*
X107251650Y-139801650D01*
X107371929Y-139655091D01*
X107461304Y-139487882D01*
X107516340Y-139306450D01*
X107516341Y-139306445D01*
X107521901Y-139249997D01*
X122974867Y-139249997D01*
X122974867Y-139250002D01*
X122993302Y-139378225D01*
X123042536Y-139486031D01*
X123047118Y-139496063D01*
X123131951Y-139593967D01*
X123131952Y-139593968D01*
X123227062Y-139655091D01*
X123240931Y-139664004D01*
X123365228Y-139700500D01*
X123365230Y-139700500D01*
X123494770Y-139700500D01*
X123494772Y-139700500D01*
X123619069Y-139664004D01*
X123728049Y-139593967D01*
X123812882Y-139496063D01*
X123856754Y-139399997D01*
X141554867Y-139399997D01*
X141554867Y-139400002D01*
X141573302Y-139528225D01*
X141627117Y-139646061D01*
X141627118Y-139646063D01*
X141711951Y-139743967D01*
X141711952Y-139743968D01*
X141801712Y-139801653D01*
X141820931Y-139814004D01*
X141945228Y-139850500D01*
X141945230Y-139850500D01*
X142074770Y-139850500D01*
X142074772Y-139850500D01*
X142199069Y-139814004D01*
X142308049Y-139743967D01*
X142392882Y-139646063D01*
X142446697Y-139528226D01*
X142462833Y-139415996D01*
X142465133Y-139400002D01*
X142465133Y-139399997D01*
X142446697Y-139271774D01*
X142392882Y-139153938D01*
X142392882Y-139153937D01*
X142308049Y-139056033D01*
X142308048Y-139056032D01*
X142308047Y-139056031D01*
X142199073Y-138985998D01*
X142199070Y-138985996D01*
X142199069Y-138985996D01*
X142199066Y-138985995D01*
X142074774Y-138949500D01*
X142074772Y-138949500D01*
X141945228Y-138949500D01*
X141945225Y-138949500D01*
X141820933Y-138985995D01*
X141820926Y-138985998D01*
X141711952Y-139056031D01*
X141627117Y-139153938D01*
X141573302Y-139271774D01*
X141554867Y-139399997D01*
X123856754Y-139399997D01*
X123866697Y-139378226D01*
X123877017Y-139306450D01*
X123885133Y-139250002D01*
X123885133Y-139249997D01*
X123866697Y-139121774D01*
X123858580Y-139104001D01*
X123812882Y-139003937D01*
X123728049Y-138906033D01*
X123728048Y-138906032D01*
X123728047Y-138906031D01*
X123619073Y-138835998D01*
X123619070Y-138835996D01*
X123619069Y-138835996D01*
X123619066Y-138835995D01*
X123494774Y-138799500D01*
X123494772Y-138799500D01*
X123365228Y-138799500D01*
X123365225Y-138799500D01*
X123240933Y-138835995D01*
X123240926Y-138835998D01*
X123131952Y-138906031D01*
X123047117Y-139003938D01*
X122993302Y-139121774D01*
X122974867Y-139249997D01*
X107521901Y-139249997D01*
X107534924Y-139117770D01*
X107534924Y-139117763D01*
X107516341Y-138929088D01*
X107516340Y-138929083D01*
X107482712Y-138818226D01*
X107461304Y-138747652D01*
X107430487Y-138689997D01*
X120664867Y-138689997D01*
X120664867Y-138690002D01*
X120683302Y-138818225D01*
X120737117Y-138936061D01*
X120737118Y-138936063D01*
X120795931Y-139003938D01*
X120821952Y-139033968D01*
X120856283Y-139056031D01*
X120930931Y-139104004D01*
X121055228Y-139140500D01*
X121055230Y-139140500D01*
X121184770Y-139140500D01*
X121184772Y-139140500D01*
X121309069Y-139104004D01*
X121418049Y-139033967D01*
X121502882Y-138936063D01*
X121556697Y-138818226D01*
X121575133Y-138690000D01*
X121559380Y-138580438D01*
X121556697Y-138561774D01*
X121502882Y-138443938D01*
X121502882Y-138443937D01*
X121418049Y-138346033D01*
X121418048Y-138346032D01*
X121418047Y-138346031D01*
X121309073Y-138275998D01*
X121309070Y-138275996D01*
X121309069Y-138275996D01*
X121309066Y-138275995D01*
X121184774Y-138239500D01*
X121184772Y-138239500D01*
X121055228Y-138239500D01*
X121055225Y-138239500D01*
X120930933Y-138275995D01*
X120930926Y-138275998D01*
X120821952Y-138346031D01*
X120737117Y-138443938D01*
X120683302Y-138561774D01*
X120664867Y-138689997D01*
X107430487Y-138689997D01*
X107371929Y-138580443D01*
X107251650Y-138433884D01*
X107105091Y-138313605D01*
X107034733Y-138275998D01*
X106937887Y-138224232D01*
X106937882Y-138224230D01*
X106756450Y-138169193D01*
X106756445Y-138169192D01*
X106567770Y-138150610D01*
X106567764Y-138150610D01*
X106379088Y-138169192D01*
X106379083Y-138169193D01*
X106197651Y-138224230D01*
X106197646Y-138224232D01*
X106030448Y-138313602D01*
X106030438Y-138313608D01*
X105883888Y-138433880D01*
X105883880Y-138433888D01*
X105763608Y-138580438D01*
X105763602Y-138580448D01*
X105674232Y-138747646D01*
X105674230Y-138747651D01*
X105619193Y-138929083D01*
X105619192Y-138929088D01*
X105600610Y-139117763D01*
X101000500Y-139117763D01*
X101000500Y-137349996D01*
X103832843Y-137349996D01*
X103832843Y-137350003D01*
X103851425Y-137538678D01*
X103851426Y-137538683D01*
X103906463Y-137720115D01*
X103906465Y-137720120D01*
X103974797Y-137847959D01*
X103995838Y-137887324D01*
X104116117Y-138033883D01*
X104262676Y-138154162D01*
X104429885Y-138243537D01*
X104536890Y-138275996D01*
X104611316Y-138298573D01*
X104611321Y-138298574D01*
X104799997Y-138317157D01*
X104800000Y-138317157D01*
X104800003Y-138317157D01*
X104988678Y-138298574D01*
X104988683Y-138298573D01*
X105170115Y-138243537D01*
X105337324Y-138154162D01*
X105483883Y-138033883D01*
X105604162Y-137887324D01*
X105693537Y-137720115D01*
X105748573Y-137538683D01*
X105748574Y-137538678D01*
X105767157Y-137350003D01*
X105767157Y-137349996D01*
X105748574Y-137161321D01*
X105748573Y-137161316D01*
X105729435Y-137098226D01*
X105693537Y-136979885D01*
X105688254Y-136970002D01*
X105688251Y-136969997D01*
X118184867Y-136969997D01*
X118184867Y-136970002D01*
X118203302Y-137098225D01*
X118232116Y-137161317D01*
X118257118Y-137216063D01*
X118341951Y-137313967D01*
X118341952Y-137313968D01*
X118398024Y-137350003D01*
X118450931Y-137384004D01*
X118575228Y-137420500D01*
X118575230Y-137420500D01*
X118704770Y-137420500D01*
X118704772Y-137420500D01*
X118829069Y-137384004D01*
X118938049Y-137313967D01*
X119022882Y-137216063D01*
X119076697Y-137098226D01*
X119082842Y-137055484D01*
X119095133Y-136970002D01*
X119095133Y-136969997D01*
X119076697Y-136841774D01*
X119069521Y-136826061D01*
X119022882Y-136723937D01*
X118984808Y-136679997D01*
X126114867Y-136679997D01*
X126114867Y-136680002D01*
X126133302Y-136808225D01*
X126147385Y-136839062D01*
X126187118Y-136926063D01*
X126271951Y-137023967D01*
X126271952Y-137023968D01*
X126380926Y-137094001D01*
X126380931Y-137094004D01*
X126505228Y-137130500D01*
X126505230Y-137130500D01*
X126634770Y-137130500D01*
X126634772Y-137130500D01*
X126759069Y-137094004D01*
X126868049Y-137023967D01*
X126952882Y-136926063D01*
X126972028Y-136884138D01*
X127013399Y-136839062D01*
X127073365Y-136826910D01*
X127129022Y-136852327D01*
X127136901Y-136860435D01*
X127191951Y-136923967D01*
X127300931Y-136994004D01*
X127425228Y-137030500D01*
X127425230Y-137030500D01*
X127554770Y-137030500D01*
X127554772Y-137030500D01*
X127679069Y-136994004D01*
X127788049Y-136923967D01*
X127872882Y-136826063D01*
X127926697Y-136708226D01*
X127932842Y-136665484D01*
X127945133Y-136580002D01*
X127945133Y-136579997D01*
X127926697Y-136451774D01*
X127903704Y-136401427D01*
X127872882Y-136333937D01*
X127788049Y-136236033D01*
X127788048Y-136236032D01*
X127788047Y-136236031D01*
X127679073Y-136165998D01*
X127679070Y-136165996D01*
X127679069Y-136165996D01*
X127679066Y-136165995D01*
X127554774Y-136129500D01*
X127554772Y-136129500D01*
X127425228Y-136129500D01*
X127425225Y-136129500D01*
X127300933Y-136165995D01*
X127300926Y-136165998D01*
X127191952Y-136236031D01*
X127107116Y-136333938D01*
X127087971Y-136375861D01*
X127046598Y-136420939D01*
X126986631Y-136433089D01*
X126930976Y-136407670D01*
X126923098Y-136399564D01*
X126868049Y-136336033D01*
X126868048Y-136336032D01*
X126759073Y-136265998D01*
X126759070Y-136265996D01*
X126759069Y-136265996D01*
X126759066Y-136265995D01*
X126634774Y-136229500D01*
X126634772Y-136229500D01*
X126505228Y-136229500D01*
X126505225Y-136229500D01*
X126380933Y-136265995D01*
X126380926Y-136265998D01*
X126271952Y-136336031D01*
X126187117Y-136433938D01*
X126133302Y-136551774D01*
X126114867Y-136679997D01*
X118984808Y-136679997D01*
X118938049Y-136626033D01*
X118938048Y-136626032D01*
X118938047Y-136626031D01*
X118829073Y-136555998D01*
X118829070Y-136555996D01*
X118829069Y-136555996D01*
X118814690Y-136551774D01*
X118704774Y-136519500D01*
X118704772Y-136519500D01*
X118575228Y-136519500D01*
X118575225Y-136519500D01*
X118450933Y-136555995D01*
X118450926Y-136555998D01*
X118341952Y-136626031D01*
X118257117Y-136723938D01*
X118203302Y-136841774D01*
X118184867Y-136969997D01*
X105688251Y-136969997D01*
X105672496Y-136940520D01*
X105604162Y-136812676D01*
X105483883Y-136666117D01*
X105378950Y-136580000D01*
X105337328Y-136545841D01*
X105337326Y-136545840D01*
X105337324Y-136545838D01*
X105288049Y-136519500D01*
X105170120Y-136456465D01*
X105170115Y-136456463D01*
X104988683Y-136401426D01*
X104988678Y-136401425D01*
X104800003Y-136382843D01*
X104799997Y-136382843D01*
X104611321Y-136401425D01*
X104611316Y-136401426D01*
X104429884Y-136456463D01*
X104429879Y-136456465D01*
X104262681Y-136545835D01*
X104262671Y-136545841D01*
X104116121Y-136666113D01*
X104116113Y-136666121D01*
X103995841Y-136812671D01*
X103995835Y-136812681D01*
X103906465Y-136979879D01*
X103906463Y-136979884D01*
X103851426Y-137161316D01*
X103851425Y-137161321D01*
X103832843Y-137349996D01*
X101000500Y-137349996D01*
X101000500Y-135359997D01*
X128004867Y-135359997D01*
X128004867Y-135360002D01*
X128023302Y-135488225D01*
X128077117Y-135606061D01*
X128077118Y-135606063D01*
X128161951Y-135703967D01*
X128161952Y-135703968D01*
X128270926Y-135774001D01*
X128270931Y-135774004D01*
X128395228Y-135810500D01*
X128395230Y-135810500D01*
X128524770Y-135810500D01*
X128524772Y-135810500D01*
X128649069Y-135774004D01*
X128758049Y-135703967D01*
X128842882Y-135606063D01*
X128896697Y-135488226D01*
X128915133Y-135360000D01*
X128896697Y-135231774D01*
X128842882Y-135113937D01*
X128758049Y-135016033D01*
X128758048Y-135016032D01*
X128758047Y-135016031D01*
X128649073Y-134945998D01*
X128649070Y-134945996D01*
X128649069Y-134945996D01*
X128649066Y-134945995D01*
X128524774Y-134909500D01*
X128524772Y-134909500D01*
X128395228Y-134909500D01*
X128395225Y-134909500D01*
X128270933Y-134945995D01*
X128270926Y-134945998D01*
X128161952Y-135016031D01*
X128077117Y-135113938D01*
X128023302Y-135231774D01*
X128004867Y-135359997D01*
X101000500Y-135359997D01*
X101000500Y-132689997D01*
X124184867Y-132689997D01*
X124184867Y-132690002D01*
X124203302Y-132818225D01*
X124242547Y-132904158D01*
X124257118Y-132936063D01*
X124306918Y-132993536D01*
X124341952Y-133033968D01*
X124450926Y-133104001D01*
X124450931Y-133104004D01*
X124575228Y-133140500D01*
X124575230Y-133140500D01*
X124704770Y-133140500D01*
X124704772Y-133140500D01*
X124829069Y-133104004D01*
X124938049Y-133033967D01*
X125022882Y-132936063D01*
X125076697Y-132818226D01*
X125095133Y-132690000D01*
X125087559Y-132637324D01*
X125076697Y-132561774D01*
X125036596Y-132473967D01*
X125022882Y-132443937D01*
X124938049Y-132346033D01*
X124938048Y-132346032D01*
X124938047Y-132346031D01*
X124829073Y-132275998D01*
X124829070Y-132275996D01*
X124829069Y-132275996D01*
X124829066Y-132275995D01*
X124704774Y-132239500D01*
X124704772Y-132239500D01*
X124575228Y-132239500D01*
X124575225Y-132239500D01*
X124450933Y-132275995D01*
X124450926Y-132275998D01*
X124341952Y-132346031D01*
X124257117Y-132443938D01*
X124203302Y-132561774D01*
X124184867Y-132689997D01*
X101000500Y-132689997D01*
X101000500Y-132129997D01*
X150134867Y-132129997D01*
X150134867Y-132130002D01*
X150153302Y-132258225D01*
X150207117Y-132376061D01*
X150207118Y-132376063D01*
X150265931Y-132443938D01*
X150291952Y-132473968D01*
X150400926Y-132544001D01*
X150400931Y-132544004D01*
X150525228Y-132580500D01*
X150525230Y-132580500D01*
X150654770Y-132580500D01*
X150654772Y-132580500D01*
X150779069Y-132544004D01*
X150888049Y-132473967D01*
X150972882Y-132376063D01*
X151026697Y-132258226D01*
X151045133Y-132130000D01*
X151040819Y-132099996D01*
X164082843Y-132099996D01*
X164082843Y-132100003D01*
X164101425Y-132288678D01*
X164101426Y-132288683D01*
X164156463Y-132470115D01*
X164156465Y-132470120D01*
X164158522Y-132473968D01*
X164245838Y-132637324D01*
X164366117Y-132783883D01*
X164512676Y-132904162D01*
X164679885Y-132993537D01*
X164806280Y-133031877D01*
X164861316Y-133048573D01*
X164861321Y-133048574D01*
X165049997Y-133067157D01*
X165050000Y-133067157D01*
X165050003Y-133067157D01*
X165238678Y-133048574D01*
X165238683Y-133048573D01*
X165420115Y-132993537D01*
X165587324Y-132904162D01*
X165733883Y-132783883D01*
X165854162Y-132637324D01*
X165943537Y-132470115D01*
X165998573Y-132288683D01*
X165998574Y-132288678D01*
X166017157Y-132100003D01*
X166017157Y-132099996D01*
X165998574Y-131911321D01*
X165998573Y-131911316D01*
X165981877Y-131856280D01*
X165943537Y-131729885D01*
X165854162Y-131562676D01*
X165733883Y-131416117D01*
X165678298Y-131370499D01*
X165587328Y-131295841D01*
X165587326Y-131295840D01*
X165587324Y-131295838D01*
X165547959Y-131274797D01*
X165420120Y-131206465D01*
X165420115Y-131206463D01*
X165238683Y-131151426D01*
X165238678Y-131151425D01*
X165050003Y-131132843D01*
X165049997Y-131132843D01*
X164861321Y-131151425D01*
X164861316Y-131151426D01*
X164679884Y-131206463D01*
X164679879Y-131206465D01*
X164512681Y-131295835D01*
X164512671Y-131295841D01*
X164366121Y-131416113D01*
X164366113Y-131416121D01*
X164245841Y-131562671D01*
X164245835Y-131562681D01*
X164156465Y-131729879D01*
X164156463Y-131729884D01*
X164101426Y-131911316D01*
X164101425Y-131911321D01*
X164082843Y-132099996D01*
X151040819Y-132099996D01*
X151026697Y-132001774D01*
X150972882Y-131883937D01*
X150888049Y-131786033D01*
X150888048Y-131786032D01*
X150888047Y-131786031D01*
X150779073Y-131715998D01*
X150779070Y-131715996D01*
X150779069Y-131715996D01*
X150779066Y-131715995D01*
X150654774Y-131679500D01*
X150654772Y-131679500D01*
X150525228Y-131679500D01*
X150525225Y-131679500D01*
X150400933Y-131715995D01*
X150400926Y-131715998D01*
X150291952Y-131786031D01*
X150207117Y-131883938D01*
X150153302Y-132001774D01*
X150134867Y-132129997D01*
X101000500Y-132129997D01*
X101000500Y-131349997D01*
X120084867Y-131349997D01*
X120084867Y-131350002D01*
X120103302Y-131478225D01*
X120141868Y-131562671D01*
X120157118Y-131596063D01*
X120241951Y-131693967D01*
X120241952Y-131693968D01*
X120350926Y-131764001D01*
X120350931Y-131764004D01*
X120475228Y-131800500D01*
X120475230Y-131800500D01*
X120604770Y-131800500D01*
X120604772Y-131800500D01*
X120729069Y-131764004D01*
X120838049Y-131693967D01*
X120922882Y-131596063D01*
X120976697Y-131478226D01*
X120985627Y-131416117D01*
X120995133Y-131350002D01*
X120995133Y-131349997D01*
X120976697Y-131221774D01*
X120922882Y-131103937D01*
X120838049Y-131006033D01*
X120838048Y-131006032D01*
X120838047Y-131006031D01*
X120729073Y-130935998D01*
X120729070Y-130935996D01*
X120729069Y-130935996D01*
X120729066Y-130935995D01*
X120604774Y-130899500D01*
X120604772Y-130899500D01*
X120475228Y-130899500D01*
X120475225Y-130899500D01*
X120350933Y-130935995D01*
X120350926Y-130935998D01*
X120241952Y-131006031D01*
X120157117Y-131103938D01*
X120103302Y-131221774D01*
X120084867Y-131349997D01*
X101000500Y-131349997D01*
X101000500Y-130619997D01*
X121094867Y-130619997D01*
X121094867Y-130620002D01*
X121113302Y-130748225D01*
X121158972Y-130848226D01*
X121167118Y-130866063D01*
X121227716Y-130935998D01*
X121251952Y-130963968D01*
X121317404Y-131006031D01*
X121360931Y-131034004D01*
X121485228Y-131070500D01*
X121485230Y-131070500D01*
X121614770Y-131070500D01*
X121614772Y-131070500D01*
X121739069Y-131034004D01*
X121848049Y-130963967D01*
X121932882Y-130866063D01*
X121986697Y-130748226D01*
X121990756Y-130719997D01*
X124944867Y-130719997D01*
X124944867Y-130720002D01*
X124963302Y-130848225D01*
X125016161Y-130963967D01*
X125017118Y-130966063D01*
X125088311Y-131048225D01*
X125101952Y-131063968D01*
X125209124Y-131132843D01*
X125210931Y-131134004D01*
X125335228Y-131170500D01*
X125335230Y-131170500D01*
X125464770Y-131170500D01*
X125464772Y-131170500D01*
X125589069Y-131134004D01*
X125698049Y-131063967D01*
X125782882Y-130966063D01*
X125803920Y-130919997D01*
X128084867Y-130919997D01*
X128084867Y-130920002D01*
X128103302Y-131048225D01*
X128142477Y-131134004D01*
X128157118Y-131166063D01*
X128241951Y-131263967D01*
X128241952Y-131263968D01*
X128291543Y-131295838D01*
X128350931Y-131334004D01*
X128475228Y-131370500D01*
X128475230Y-131370500D01*
X128604770Y-131370500D01*
X128604772Y-131370500D01*
X128729069Y-131334004D01*
X128838049Y-131263967D01*
X128922882Y-131166063D01*
X128976697Y-131048226D01*
X128988510Y-130966063D01*
X128995133Y-130920002D01*
X128995133Y-130919997D01*
X128976697Y-130791774D01*
X128956809Y-130748226D01*
X128922882Y-130673937D01*
X128838049Y-130576033D01*
X128838048Y-130576032D01*
X128838047Y-130576031D01*
X128729073Y-130505998D01*
X128729070Y-130505996D01*
X128729069Y-130505996D01*
X128729066Y-130505995D01*
X128604774Y-130469500D01*
X128604772Y-130469500D01*
X128475228Y-130469500D01*
X128475225Y-130469500D01*
X128350933Y-130505995D01*
X128350926Y-130505998D01*
X128241952Y-130576031D01*
X128157117Y-130673938D01*
X128103302Y-130791774D01*
X128084867Y-130919997D01*
X125803920Y-130919997D01*
X125836697Y-130848226D01*
X125844814Y-130791774D01*
X125855133Y-130720002D01*
X125855133Y-130719997D01*
X125836697Y-130591774D01*
X125811188Y-130535918D01*
X125782882Y-130473937D01*
X125698049Y-130376033D01*
X125698048Y-130376032D01*
X125698047Y-130376031D01*
X125589073Y-130305998D01*
X125589070Y-130305996D01*
X125589069Y-130305996D01*
X125589066Y-130305995D01*
X125464774Y-130269500D01*
X125464772Y-130269500D01*
X125335228Y-130269500D01*
X125335225Y-130269500D01*
X125210933Y-130305995D01*
X125210926Y-130305998D01*
X125101952Y-130376031D01*
X125017117Y-130473938D01*
X124963302Y-130591774D01*
X124944867Y-130719997D01*
X121990756Y-130719997D01*
X122005133Y-130620000D01*
X122000244Y-130585998D01*
X121986697Y-130491774D01*
X121974050Y-130464082D01*
X121932882Y-130373937D01*
X121848049Y-130276033D01*
X121848048Y-130276032D01*
X121848047Y-130276031D01*
X121739073Y-130205998D01*
X121739070Y-130205996D01*
X121739069Y-130205996D01*
X121739066Y-130205995D01*
X121614774Y-130169500D01*
X121614772Y-130169500D01*
X121485228Y-130169500D01*
X121485225Y-130169500D01*
X121360933Y-130205995D01*
X121360926Y-130205998D01*
X121251952Y-130276031D01*
X121167117Y-130373938D01*
X121113302Y-130491774D01*
X121094867Y-130619997D01*
X101000500Y-130619997D01*
X101000500Y-128750000D01*
X101280137Y-128750000D01*
X102083012Y-128750000D01*
X102065795Y-128759940D01*
X102009940Y-128815795D01*
X101970444Y-128884204D01*
X101950000Y-128960504D01*
X101950000Y-129039496D01*
X101970444Y-129115796D01*
X102009940Y-129184205D01*
X102065795Y-129240060D01*
X102083012Y-129250000D01*
X101280137Y-129250000D01*
X101288428Y-129291684D01*
X101288431Y-129291695D01*
X101363808Y-129473673D01*
X101363814Y-129473685D01*
X101473249Y-129637462D01*
X101473252Y-129637466D01*
X101612533Y-129776747D01*
X101612537Y-129776750D01*
X101776314Y-129886185D01*
X101776326Y-129886191D01*
X101958310Y-129961570D01*
X102151506Y-129999999D01*
X102151510Y-130000000D01*
X102399999Y-130000000D01*
X102400000Y-129999999D01*
X102400000Y-129300000D01*
X102900000Y-129300000D01*
X102900000Y-129999999D01*
X102900001Y-130000000D01*
X103148490Y-130000000D01*
X103148493Y-129999999D01*
X103341688Y-129961570D01*
X103341690Y-129961570D01*
X103523673Y-129886191D01*
X103523685Y-129886185D01*
X103687462Y-129776750D01*
X103687466Y-129776747D01*
X103826747Y-129637466D01*
X103826750Y-129637462D01*
X103936185Y-129473685D01*
X103936191Y-129473673D01*
X104011568Y-129291695D01*
X104011571Y-129291684D01*
X104019863Y-129250000D01*
X103216988Y-129250000D01*
X103234205Y-129240060D01*
X103290060Y-129184205D01*
X103329556Y-129115796D01*
X103350000Y-129039496D01*
X103350000Y-128960504D01*
X103329556Y-128884204D01*
X103290060Y-128815795D01*
X103234205Y-128759940D01*
X103216988Y-128750000D01*
X104019862Y-128750000D01*
X105310137Y-128750000D01*
X106113012Y-128750000D01*
X106095795Y-128759940D01*
X106039940Y-128815795D01*
X106000444Y-128884204D01*
X105980000Y-128960504D01*
X105980000Y-129039496D01*
X106000444Y-129115796D01*
X106039940Y-129184205D01*
X106095795Y-129240060D01*
X106113012Y-129250000D01*
X105310137Y-129250000D01*
X105318428Y-129291684D01*
X105318431Y-129291695D01*
X105393808Y-129473673D01*
X105393814Y-129473685D01*
X105503249Y-129637462D01*
X105503252Y-129637466D01*
X105642533Y-129776747D01*
X105642537Y-129776750D01*
X105806314Y-129886185D01*
X105806326Y-129886191D01*
X105988310Y-129961570D01*
X106181506Y-129999999D01*
X106181510Y-130000000D01*
X106579999Y-130000000D01*
X106580000Y-129999999D01*
X106580000Y-129300000D01*
X107080000Y-129300000D01*
X107080000Y-129999999D01*
X107080001Y-130000000D01*
X107478490Y-130000000D01*
X107478493Y-129999999D01*
X107478503Y-129999997D01*
X155044867Y-129999997D01*
X155044867Y-130000000D01*
X155063302Y-130128225D01*
X155117117Y-130246061D01*
X155117118Y-130246063D01*
X155201951Y-130343967D01*
X155201952Y-130343968D01*
X155315150Y-130416716D01*
X155353882Y-130464082D01*
X155357375Y-130525168D01*
X155324295Y-130576640D01*
X155315150Y-130583284D01*
X155201952Y-130656031D01*
X155117117Y-130753938D01*
X155063302Y-130871774D01*
X155044867Y-130999997D01*
X155044867Y-131000002D01*
X155063302Y-131128225D01*
X155082609Y-131170500D01*
X155117118Y-131246063D01*
X155193316Y-131334001D01*
X155201952Y-131343968D01*
X155243237Y-131370500D01*
X155310931Y-131414004D01*
X155435228Y-131450500D01*
X155435230Y-131450500D01*
X155564770Y-131450500D01*
X155564772Y-131450500D01*
X155689069Y-131414004D01*
X155798049Y-131343967D01*
X155882882Y-131246063D01*
X155909947Y-131186800D01*
X155951319Y-131141723D01*
X156011286Y-131129572D01*
X156066942Y-131154990D01*
X156090053Y-131186800D01*
X156117118Y-131246063D01*
X156193316Y-131334001D01*
X156201952Y-131343968D01*
X156243237Y-131370500D01*
X156310931Y-131414004D01*
X156435228Y-131450500D01*
X156435230Y-131450500D01*
X156564770Y-131450500D01*
X156564772Y-131450500D01*
X156689069Y-131414004D01*
X156798049Y-131343967D01*
X156882882Y-131246063D01*
X156909947Y-131186800D01*
X156951319Y-131141723D01*
X157011286Y-131129572D01*
X157066942Y-131154990D01*
X157090053Y-131186800D01*
X157117118Y-131246063D01*
X157193316Y-131334001D01*
X157201952Y-131343968D01*
X157243237Y-131370500D01*
X157310931Y-131414004D01*
X157435228Y-131450500D01*
X157435230Y-131450500D01*
X157564770Y-131450500D01*
X157564772Y-131450500D01*
X157689069Y-131414004D01*
X157798049Y-131343967D01*
X157882882Y-131246063D01*
X157936697Y-131128226D01*
X157950244Y-131034004D01*
X157955133Y-131000002D01*
X157955133Y-130999997D01*
X157936697Y-130871774D01*
X157909946Y-130813199D01*
X157882882Y-130753937D01*
X157798049Y-130656033D01*
X157798048Y-130656032D01*
X157798047Y-130656031D01*
X157689073Y-130585998D01*
X157689070Y-130585996D01*
X157689069Y-130585996D01*
X157657205Y-130576640D01*
X157564774Y-130549500D01*
X157564772Y-130549500D01*
X157435228Y-130549500D01*
X157435225Y-130549500D01*
X157310933Y-130585995D01*
X157310926Y-130585998D01*
X157201952Y-130656031D01*
X157117117Y-130753938D01*
X157090053Y-130813199D01*
X157048681Y-130858276D01*
X156988714Y-130870427D01*
X156933058Y-130845009D01*
X156909947Y-130813199D01*
X156882882Y-130753938D01*
X156882882Y-130753937D01*
X156798049Y-130656033D01*
X156798048Y-130656032D01*
X156798047Y-130656031D01*
X156684849Y-130583284D01*
X156646118Y-130535918D01*
X156642624Y-130474833D01*
X156675704Y-130423360D01*
X156684849Y-130416716D01*
X156751413Y-130373938D01*
X156798049Y-130343967D01*
X156882882Y-130246063D01*
X156936697Y-130128226D01*
X156955133Y-130000000D01*
X156936697Y-129871774D01*
X156882882Y-129753937D01*
X156798049Y-129656033D01*
X156798048Y-129656032D01*
X156798047Y-129656031D01*
X156689073Y-129585998D01*
X156689070Y-129585996D01*
X156689069Y-129585996D01*
X156689066Y-129585995D01*
X156564774Y-129549500D01*
X156564772Y-129549500D01*
X156435228Y-129549500D01*
X156435225Y-129549500D01*
X156310933Y-129585995D01*
X156310926Y-129585998D01*
X156201952Y-129656031D01*
X156117117Y-129753938D01*
X156090053Y-129813199D01*
X156048681Y-129858276D01*
X155988714Y-129870427D01*
X155933058Y-129845009D01*
X155909947Y-129813199D01*
X155882882Y-129753938D01*
X155882882Y-129753937D01*
X155798049Y-129656033D01*
X155798048Y-129656032D01*
X155798047Y-129656031D01*
X155689073Y-129585998D01*
X155689070Y-129585996D01*
X155689069Y-129585996D01*
X155689066Y-129585995D01*
X155564774Y-129549500D01*
X155564772Y-129549500D01*
X155435228Y-129549500D01*
X155435225Y-129549500D01*
X155310933Y-129585995D01*
X155310926Y-129585998D01*
X155201952Y-129656031D01*
X155117117Y-129753938D01*
X155063302Y-129871774D01*
X155044867Y-129999997D01*
X107478503Y-129999997D01*
X107671688Y-129961570D01*
X107671690Y-129961570D01*
X107853673Y-129886191D01*
X107853685Y-129886185D01*
X108017462Y-129776750D01*
X108017466Y-129776747D01*
X108156747Y-129637466D01*
X108156750Y-129637462D01*
X108266185Y-129473685D01*
X108266191Y-129473673D01*
X108341568Y-129291695D01*
X108341571Y-129291684D01*
X108349863Y-129250000D01*
X107546988Y-129250000D01*
X107564205Y-129240060D01*
X107620060Y-129184205D01*
X107659556Y-129115796D01*
X107680000Y-129039496D01*
X107680000Y-128960504D01*
X107659556Y-128884204D01*
X107620060Y-128815795D01*
X107564205Y-128759940D01*
X107546988Y-128750000D01*
X108349862Y-128750000D01*
X108341571Y-128708315D01*
X108341568Y-128708304D01*
X108296706Y-128599997D01*
X118434867Y-128599997D01*
X118434867Y-128600002D01*
X118453302Y-128728225D01*
X118493295Y-128815795D01*
X118507118Y-128846063D01*
X118562519Y-128910000D01*
X118591952Y-128943968D01*
X118617683Y-128960504D01*
X118700931Y-129014004D01*
X118825228Y-129050500D01*
X118825230Y-129050500D01*
X118954770Y-129050500D01*
X118954772Y-129050500D01*
X119079069Y-129014004D01*
X119188049Y-128943967D01*
X119272882Y-128846063D01*
X119326697Y-128728226D01*
X119345133Y-128600000D01*
X119340249Y-128566033D01*
X119326697Y-128471774D01*
X119325886Y-128469997D01*
X127034867Y-128469997D01*
X127034867Y-128470002D01*
X127053302Y-128598225D01*
X127107117Y-128716061D01*
X127107118Y-128716063D01*
X127164056Y-128781774D01*
X127191952Y-128813968D01*
X127194795Y-128815795D01*
X127300931Y-128884004D01*
X127425228Y-128920500D01*
X127425230Y-128920500D01*
X127554770Y-128920500D01*
X127554772Y-128920500D01*
X127590543Y-128909997D01*
X162244867Y-128909997D01*
X162244867Y-128910002D01*
X162263302Y-129038225D01*
X162268908Y-129050500D01*
X162317118Y-129156063D01*
X162401951Y-129253967D01*
X162401952Y-129253968D01*
X162441768Y-129279556D01*
X162510931Y-129324004D01*
X162635228Y-129360500D01*
X162635230Y-129360500D01*
X162764770Y-129360500D01*
X162764772Y-129360500D01*
X162889069Y-129324004D01*
X162998049Y-129253967D01*
X163082882Y-129156063D01*
X163136697Y-129038226D01*
X163150249Y-128943967D01*
X163155133Y-128910002D01*
X163155133Y-128909997D01*
X163136697Y-128781774D01*
X163112242Y-128728226D01*
X163082882Y-128663937D01*
X162998049Y-128566033D01*
X162998048Y-128566032D01*
X162998047Y-128566031D01*
X162889073Y-128495998D01*
X162889070Y-128495996D01*
X162889069Y-128495996D01*
X162889066Y-128495995D01*
X162764774Y-128459500D01*
X162764772Y-128459500D01*
X162635228Y-128459500D01*
X162635225Y-128459500D01*
X162510933Y-128495995D01*
X162510926Y-128495998D01*
X162401952Y-128566031D01*
X162317117Y-128663938D01*
X162263302Y-128781774D01*
X162244867Y-128909997D01*
X127590543Y-128909997D01*
X127679069Y-128884004D01*
X127788049Y-128813967D01*
X127872882Y-128716063D01*
X127926697Y-128598226D01*
X127941395Y-128495998D01*
X127945133Y-128470002D01*
X127945133Y-128469997D01*
X127926697Y-128341774D01*
X127872882Y-128223938D01*
X127872882Y-128223937D01*
X127788049Y-128126033D01*
X127788048Y-128126032D01*
X127788047Y-128126031D01*
X127679073Y-128055998D01*
X127679070Y-128055996D01*
X127679069Y-128055996D01*
X127657664Y-128049711D01*
X127554774Y-128019500D01*
X127554772Y-128019500D01*
X127425228Y-128019500D01*
X127425225Y-128019500D01*
X127300933Y-128055995D01*
X127300926Y-128055998D01*
X127191952Y-128126031D01*
X127107117Y-128223938D01*
X127053302Y-128341774D01*
X127034867Y-128469997D01*
X119325886Y-128469997D01*
X119321092Y-128459500D01*
X119272882Y-128353937D01*
X119188049Y-128256033D01*
X119188048Y-128256032D01*
X119188047Y-128256031D01*
X119079073Y-128185998D01*
X119079070Y-128185996D01*
X119079069Y-128185996D01*
X119079066Y-128185995D01*
X118954774Y-128149500D01*
X118954772Y-128149500D01*
X118825228Y-128149500D01*
X118825225Y-128149500D01*
X118700933Y-128185995D01*
X118700926Y-128185998D01*
X118591952Y-128256031D01*
X118507117Y-128353938D01*
X118453302Y-128471774D01*
X118434867Y-128599997D01*
X108296706Y-128599997D01*
X108266191Y-128526326D01*
X108266185Y-128526314D01*
X108156750Y-128362537D01*
X108156747Y-128362533D01*
X108017466Y-128223252D01*
X108017462Y-128223249D01*
X107853685Y-128113814D01*
X107853673Y-128113808D01*
X107671689Y-128038429D01*
X107478493Y-128000000D01*
X107080001Y-128000000D01*
X107080000Y-128000001D01*
X107080000Y-128700000D01*
X106580000Y-128700000D01*
X106580000Y-128147350D01*
X106598907Y-128089159D01*
X106629499Y-128061614D01*
X106683365Y-128030515D01*
X106790515Y-127923365D01*
X106866281Y-127792135D01*
X106877572Y-127749997D01*
X130514867Y-127749997D01*
X130514867Y-127750002D01*
X130533302Y-127878225D01*
X130559122Y-127934762D01*
X130587118Y-127996063D01*
X130643917Y-128061613D01*
X130671952Y-128093968D01*
X130758362Y-128149500D01*
X130780931Y-128164004D01*
X130905228Y-128200500D01*
X130905230Y-128200500D01*
X131034770Y-128200500D01*
X131034772Y-128200500D01*
X131159069Y-128164004D01*
X131268049Y-128093967D01*
X131352882Y-127996063D01*
X131406697Y-127878226D01*
X131412842Y-127835484D01*
X131425133Y-127750002D01*
X131425133Y-127749997D01*
X131406697Y-127621774D01*
X131365013Y-127530500D01*
X131352882Y-127503937D01*
X131268049Y-127406033D01*
X131268048Y-127406032D01*
X131268047Y-127406031D01*
X131159073Y-127335998D01*
X131159070Y-127335996D01*
X131159069Y-127335996D01*
X131159066Y-127335995D01*
X131034774Y-127299500D01*
X131034772Y-127299500D01*
X130905228Y-127299500D01*
X130905225Y-127299500D01*
X130780933Y-127335995D01*
X130780926Y-127335998D01*
X130671952Y-127406031D01*
X130587117Y-127503938D01*
X130533302Y-127621774D01*
X130514867Y-127749997D01*
X106877572Y-127749997D01*
X106905500Y-127645766D01*
X106905500Y-127494234D01*
X106866281Y-127347865D01*
X106866279Y-127347862D01*
X106866279Y-127347860D01*
X106790518Y-127216639D01*
X106790516Y-127216637D01*
X106790515Y-127216635D01*
X106683365Y-127109485D01*
X106683362Y-127109483D01*
X106683360Y-127109481D01*
X106632292Y-127079997D01*
X108674867Y-127079997D01*
X108674867Y-127080002D01*
X108693302Y-127208225D01*
X108697143Y-127216635D01*
X108747118Y-127326063D01*
X108831951Y-127423967D01*
X108831952Y-127423968D01*
X108940926Y-127494001D01*
X108940931Y-127494004D01*
X109065228Y-127530500D01*
X109065230Y-127530500D01*
X109194770Y-127530500D01*
X109194772Y-127530500D01*
X109319069Y-127494004D01*
X109428049Y-127423967D01*
X109512882Y-127326063D01*
X109566697Y-127208226D01*
X109585133Y-127080000D01*
X109566697Y-126951774D01*
X109512882Y-126833937D01*
X109428049Y-126736033D01*
X109428048Y-126736032D01*
X109428047Y-126736031D01*
X109319073Y-126665998D01*
X109319070Y-126665996D01*
X109319069Y-126665996D01*
X109319066Y-126665995D01*
X109194774Y-126629500D01*
X109194772Y-126629500D01*
X109065228Y-126629500D01*
X109065225Y-126629500D01*
X108940933Y-126665995D01*
X108940926Y-126665998D01*
X108831952Y-126736031D01*
X108747117Y-126833938D01*
X108693302Y-126951774D01*
X108674867Y-127079997D01*
X106632292Y-127079997D01*
X106552138Y-127033720D01*
X106552140Y-127033720D01*
X106495347Y-127018503D01*
X106405766Y-126994500D01*
X106254234Y-126994500D01*
X106164652Y-127018503D01*
X106107860Y-127033720D01*
X105976639Y-127109481D01*
X105869481Y-127216639D01*
X105793720Y-127347860D01*
X105793719Y-127347865D01*
X105754500Y-127494234D01*
X105754500Y-127645766D01*
X105782428Y-127749997D01*
X105793720Y-127792139D01*
X105869481Y-127923360D01*
X105869483Y-127923362D01*
X105869485Y-127923365D01*
X105880884Y-127934764D01*
X105908660Y-127989279D01*
X105899089Y-128049711D01*
X105855824Y-128092976D01*
X105848765Y-128096230D01*
X105806323Y-128113810D01*
X105806314Y-128113814D01*
X105642537Y-128223249D01*
X105642533Y-128223252D01*
X105503252Y-128362533D01*
X105503249Y-128362537D01*
X105393814Y-128526314D01*
X105393808Y-128526326D01*
X105318431Y-128708304D01*
X105318428Y-128708315D01*
X105310137Y-128750000D01*
X104019862Y-128750000D01*
X104011571Y-128708315D01*
X104011568Y-128708304D01*
X103936191Y-128526326D01*
X103936185Y-128526314D01*
X103826750Y-128362537D01*
X103826747Y-128362533D01*
X103687466Y-128223252D01*
X103687462Y-128223249D01*
X103523685Y-128113814D01*
X103523673Y-128113808D01*
X103341689Y-128038429D01*
X103148493Y-128000000D01*
X102900001Y-128000000D01*
X102900000Y-128000001D01*
X102900000Y-128700000D01*
X102400000Y-128700000D01*
X102400000Y-128000001D01*
X102399999Y-128000000D01*
X102151506Y-128000000D01*
X101958311Y-128038429D01*
X101958309Y-128038429D01*
X101776326Y-128113808D01*
X101776314Y-128113814D01*
X101612537Y-128223249D01*
X101612533Y-128223252D01*
X101473252Y-128362533D01*
X101473249Y-128362537D01*
X101363814Y-128526314D01*
X101363808Y-128526326D01*
X101288431Y-128708304D01*
X101288428Y-128708315D01*
X101280137Y-128750000D01*
X101000500Y-128750000D01*
X101000500Y-125099996D01*
X164082843Y-125099996D01*
X164082843Y-125100003D01*
X164101425Y-125288678D01*
X164101426Y-125288683D01*
X164156463Y-125470115D01*
X164156465Y-125470120D01*
X164224797Y-125597959D01*
X164245838Y-125637324D01*
X164366117Y-125783883D01*
X164512676Y-125904162D01*
X164679885Y-125993537D01*
X164806280Y-126031877D01*
X164861316Y-126048573D01*
X164861321Y-126048574D01*
X165049997Y-126067157D01*
X165050000Y-126067157D01*
X165050003Y-126067157D01*
X165238678Y-126048574D01*
X165238683Y-126048573D01*
X165420115Y-125993537D01*
X165587324Y-125904162D01*
X165733883Y-125783883D01*
X165854162Y-125637324D01*
X165943537Y-125470115D01*
X165998573Y-125288683D01*
X165998574Y-125288678D01*
X166017157Y-125100003D01*
X166017157Y-125099996D01*
X165998574Y-124911321D01*
X165998573Y-124911316D01*
X165981877Y-124856280D01*
X165943537Y-124729885D01*
X165854162Y-124562676D01*
X165733883Y-124416117D01*
X165587324Y-124295838D01*
X165547959Y-124274797D01*
X165420120Y-124206465D01*
X165420115Y-124206463D01*
X165238683Y-124151426D01*
X165238678Y-124151425D01*
X165050003Y-124132843D01*
X165049997Y-124132843D01*
X164861321Y-124151425D01*
X164861316Y-124151426D01*
X164679884Y-124206463D01*
X164679879Y-124206465D01*
X164512681Y-124295835D01*
X164512671Y-124295841D01*
X164366121Y-124416113D01*
X164366113Y-124416121D01*
X164245841Y-124562671D01*
X164245835Y-124562681D01*
X164156465Y-124729879D01*
X164156463Y-124729884D01*
X164101426Y-124911316D01*
X164101425Y-124911321D01*
X164082843Y-125099996D01*
X101000500Y-125099996D01*
X101000500Y-124289997D01*
X123304867Y-124289997D01*
X123304867Y-124290002D01*
X123323302Y-124418225D01*
X123377117Y-124536061D01*
X123377118Y-124536063D01*
X123461951Y-124633967D01*
X123461952Y-124633968D01*
X123570926Y-124704001D01*
X123570931Y-124704004D01*
X123695228Y-124740500D01*
X123695230Y-124740500D01*
X123824770Y-124740500D01*
X123824772Y-124740500D01*
X123949069Y-124704004D01*
X124058049Y-124633967D01*
X124142882Y-124536063D01*
X124196697Y-124418226D01*
X124215133Y-124290000D01*
X124196697Y-124161774D01*
X124142882Y-124043937D01*
X124058049Y-123946033D01*
X124058048Y-123946032D01*
X124058047Y-123946031D01*
X123949073Y-123875998D01*
X123949070Y-123875996D01*
X123949069Y-123875996D01*
X123949066Y-123875995D01*
X123824774Y-123839500D01*
X123824772Y-123839500D01*
X123695228Y-123839500D01*
X123695225Y-123839500D01*
X123570933Y-123875995D01*
X123570926Y-123875998D01*
X123461952Y-123946031D01*
X123377117Y-124043938D01*
X123323302Y-124161774D01*
X123304867Y-124289997D01*
X101000500Y-124289997D01*
X101000500Y-123359997D01*
X119404867Y-123359997D01*
X119404867Y-123360002D01*
X119423302Y-123488225D01*
X119461239Y-123571294D01*
X119477118Y-123606063D01*
X119506526Y-123640002D01*
X119561952Y-123703968D01*
X119661940Y-123768226D01*
X119670931Y-123774004D01*
X119795228Y-123810500D01*
X119795230Y-123810500D01*
X119924770Y-123810500D01*
X119924772Y-123810500D01*
X120049069Y-123774004D01*
X120158049Y-123703967D01*
X120242882Y-123606063D01*
X120258761Y-123571292D01*
X120300132Y-123526216D01*
X120360099Y-123514065D01*
X120415755Y-123539483D01*
X120445842Y-123592760D01*
X120446806Y-123626507D01*
X120444868Y-123639997D01*
X120444867Y-123640002D01*
X120463302Y-123768225D01*
X120512521Y-123875998D01*
X120517118Y-123886063D01*
X120569080Y-123946031D01*
X120601952Y-123983968D01*
X120695266Y-124043937D01*
X120710931Y-124054004D01*
X120835228Y-124090500D01*
X120835230Y-124090500D01*
X120964770Y-124090500D01*
X120964772Y-124090500D01*
X121089069Y-124054004D01*
X121198049Y-123983967D01*
X121282882Y-123886063D01*
X121336697Y-123768226D01*
X121355133Y-123640000D01*
X121353193Y-123626508D01*
X121336697Y-123511774D01*
X121313287Y-123460514D01*
X121282882Y-123393937D01*
X121198049Y-123296033D01*
X121198048Y-123296032D01*
X121198047Y-123296031D01*
X121089073Y-123225998D01*
X121089070Y-123225996D01*
X121089069Y-123225996D01*
X121089066Y-123225995D01*
X120964774Y-123189500D01*
X120964772Y-123189500D01*
X120835228Y-123189500D01*
X120835225Y-123189500D01*
X120710933Y-123225995D01*
X120710926Y-123225998D01*
X120601952Y-123296031D01*
X120517116Y-123393939D01*
X120501237Y-123428708D01*
X120459864Y-123473784D01*
X120399897Y-123485933D01*
X120344242Y-123460514D01*
X120314156Y-123407237D01*
X120313193Y-123373491D01*
X120315133Y-123360000D01*
X120296697Y-123231774D01*
X120242882Y-123113937D01*
X120158049Y-123016033D01*
X120158048Y-123016032D01*
X120158047Y-123016031D01*
X120049073Y-122945998D01*
X120049070Y-122945996D01*
X120049069Y-122945996D01*
X120049066Y-122945995D01*
X119924774Y-122909500D01*
X119924772Y-122909500D01*
X119795228Y-122909500D01*
X119795225Y-122909500D01*
X119670933Y-122945995D01*
X119670926Y-122945998D01*
X119561952Y-123016031D01*
X119477117Y-123113938D01*
X119423302Y-123231774D01*
X119404867Y-123359997D01*
X101000500Y-123359997D01*
X101000500Y-120110000D01*
X101280137Y-120110000D01*
X102083012Y-120110000D01*
X102065795Y-120119940D01*
X102009940Y-120175795D01*
X101970444Y-120244204D01*
X101950000Y-120320504D01*
X101950000Y-120399496D01*
X101970444Y-120475796D01*
X102009940Y-120544205D01*
X102065795Y-120600060D01*
X102083012Y-120610000D01*
X101280137Y-120610000D01*
X101288428Y-120651684D01*
X101288431Y-120651695D01*
X101363808Y-120833673D01*
X101363814Y-120833685D01*
X101473249Y-120997462D01*
X101473252Y-120997466D01*
X101612533Y-121136747D01*
X101612537Y-121136750D01*
X101776314Y-121246185D01*
X101776326Y-121246191D01*
X101958310Y-121321570D01*
X102151506Y-121359999D01*
X102151510Y-121360000D01*
X102399999Y-121360000D01*
X102400000Y-121359999D01*
X102400000Y-120660000D01*
X102900000Y-120660000D01*
X102900000Y-121359999D01*
X102900001Y-121360000D01*
X103148490Y-121360000D01*
X103148493Y-121359999D01*
X103341688Y-121321570D01*
X103341690Y-121321570D01*
X103523673Y-121246191D01*
X103523685Y-121246185D01*
X103687462Y-121136750D01*
X103687466Y-121136747D01*
X103826747Y-120997466D01*
X103826750Y-120997462D01*
X103936185Y-120833685D01*
X103936191Y-120833673D01*
X104011568Y-120651695D01*
X104011571Y-120651684D01*
X104019863Y-120610000D01*
X103216988Y-120610000D01*
X103234205Y-120600060D01*
X103290060Y-120544205D01*
X103329556Y-120475796D01*
X103350000Y-120399496D01*
X103350000Y-120320504D01*
X103329556Y-120244204D01*
X103290060Y-120175795D01*
X103234205Y-120119940D01*
X103216988Y-120110000D01*
X104019862Y-120110000D01*
X105310137Y-120110000D01*
X106113012Y-120110000D01*
X106095795Y-120119940D01*
X106039940Y-120175795D01*
X106000444Y-120244204D01*
X105980000Y-120320504D01*
X105980000Y-120399496D01*
X106000444Y-120475796D01*
X106039940Y-120544205D01*
X106095795Y-120600060D01*
X106113012Y-120610000D01*
X105310137Y-120610000D01*
X105318428Y-120651684D01*
X105318431Y-120651695D01*
X105393808Y-120833673D01*
X105393814Y-120833685D01*
X105503249Y-120997462D01*
X105503252Y-120997466D01*
X105642533Y-121136747D01*
X105642537Y-121136750D01*
X105806314Y-121246185D01*
X105806326Y-121246191D01*
X105848764Y-121263769D01*
X105895290Y-121303505D01*
X105909574Y-121363000D01*
X105886160Y-121419528D01*
X105880885Y-121425234D01*
X105869486Y-121436633D01*
X105869481Y-121436639D01*
X105793720Y-121567860D01*
X105793622Y-121568226D01*
X105754500Y-121714234D01*
X105754500Y-121865766D01*
X105773327Y-121936031D01*
X105793720Y-122012139D01*
X105869481Y-122143360D01*
X105869483Y-122143362D01*
X105869485Y-122143365D01*
X105976635Y-122250515D01*
X105976637Y-122250516D01*
X105976639Y-122250518D01*
X106107861Y-122326279D01*
X106107859Y-122326279D01*
X106107863Y-122326280D01*
X106107865Y-122326281D01*
X106254234Y-122365500D01*
X106254236Y-122365500D01*
X106405764Y-122365500D01*
X106405766Y-122365500D01*
X106552135Y-122326281D01*
X106552137Y-122326279D01*
X106552139Y-122326279D01*
X106632301Y-122279997D01*
X108674867Y-122279997D01*
X108674867Y-122280002D01*
X108693302Y-122408225D01*
X108747117Y-122526061D01*
X108747118Y-122526063D01*
X108831951Y-122623967D01*
X108831952Y-122623968D01*
X108940926Y-122694001D01*
X108940931Y-122694004D01*
X109065228Y-122730500D01*
X109065230Y-122730500D01*
X109194770Y-122730500D01*
X109194772Y-122730500D01*
X109319069Y-122694004D01*
X109428049Y-122623967D01*
X109512882Y-122526063D01*
X109566697Y-122408226D01*
X109585133Y-122280000D01*
X109566697Y-122151774D01*
X109512882Y-122033937D01*
X109428049Y-121936033D01*
X109428048Y-121936032D01*
X109428047Y-121936031D01*
X109319073Y-121865998D01*
X109319070Y-121865996D01*
X109319069Y-121865996D01*
X109318279Y-121865764D01*
X109194774Y-121829500D01*
X109194772Y-121829500D01*
X109065228Y-121829500D01*
X109065225Y-121829500D01*
X108940933Y-121865995D01*
X108940926Y-121865998D01*
X108831952Y-121936031D01*
X108747117Y-122033938D01*
X108693302Y-122151774D01*
X108674867Y-122279997D01*
X106632301Y-122279997D01*
X106683360Y-122250518D01*
X106683360Y-122250517D01*
X106683365Y-122250515D01*
X106790515Y-122143365D01*
X106866281Y-122012135D01*
X106905500Y-121865766D01*
X106905500Y-121714234D01*
X106866281Y-121567865D01*
X106866279Y-121567862D01*
X106866279Y-121567860D01*
X106792457Y-121439997D01*
X121434867Y-121439997D01*
X121434867Y-121440002D01*
X121453302Y-121568225D01*
X121507117Y-121686061D01*
X121507118Y-121686063D01*
X121531528Y-121714234D01*
X121591952Y-121783968D01*
X121662802Y-121829500D01*
X121700931Y-121854004D01*
X121825228Y-121890500D01*
X121825230Y-121890500D01*
X121954770Y-121890500D01*
X121954772Y-121890500D01*
X122079069Y-121854004D01*
X122188049Y-121783967D01*
X122272882Y-121686063D01*
X122326697Y-121568226D01*
X122345133Y-121440000D01*
X122344649Y-121436635D01*
X122326697Y-121311774D01*
X122314607Y-121285301D01*
X122272882Y-121193937D01*
X122188049Y-121096033D01*
X122188048Y-121096032D01*
X122188047Y-121096031D01*
X122079073Y-121025998D01*
X122079070Y-121025996D01*
X122079069Y-121025996D01*
X122079066Y-121025995D01*
X121954774Y-120989500D01*
X121954772Y-120989500D01*
X121825228Y-120989500D01*
X121825225Y-120989500D01*
X121700933Y-121025995D01*
X121700926Y-121025998D01*
X121591952Y-121096031D01*
X121507117Y-121193938D01*
X121453302Y-121311774D01*
X121434867Y-121439997D01*
X106792457Y-121439997D01*
X106790518Y-121436639D01*
X106790516Y-121436637D01*
X106790515Y-121436635D01*
X106683365Y-121329485D01*
X106683362Y-121329483D01*
X106629499Y-121298384D01*
X106588558Y-121252913D01*
X106580000Y-121212648D01*
X106580000Y-120660000D01*
X107080000Y-120660000D01*
X107080000Y-121359999D01*
X107080001Y-121360000D01*
X107478490Y-121360000D01*
X107478493Y-121359999D01*
X107671688Y-121321570D01*
X107671690Y-121321570D01*
X107853673Y-121246191D01*
X107853685Y-121246185D01*
X108017462Y-121136750D01*
X108017466Y-121136747D01*
X108156747Y-120997466D01*
X108156750Y-120997462D01*
X108266185Y-120833685D01*
X108266191Y-120833673D01*
X108341568Y-120651695D01*
X108341571Y-120651684D01*
X108349863Y-120610000D01*
X107546988Y-120610000D01*
X107564205Y-120600060D01*
X107620060Y-120544205D01*
X107659556Y-120475796D01*
X107680000Y-120399496D01*
X107680000Y-120320504D01*
X107661108Y-120249996D01*
X149444417Y-120249996D01*
X149444417Y-120250003D01*
X149464698Y-120455929D01*
X149464699Y-120455934D01*
X149524768Y-120653954D01*
X149622316Y-120836452D01*
X149747919Y-120989500D01*
X149753590Y-120996410D01*
X149753595Y-120996414D01*
X149913547Y-121127683D01*
X149913548Y-121127683D01*
X149913550Y-121127685D01*
X150096046Y-121225232D01*
X150223087Y-121263769D01*
X150294065Y-121285300D01*
X150294070Y-121285301D01*
X150499997Y-121305583D01*
X150500000Y-121305583D01*
X150500003Y-121305583D01*
X150705929Y-121285301D01*
X150705934Y-121285300D01*
X150903954Y-121225232D01*
X151086450Y-121127685D01*
X151246410Y-120996410D01*
X151377685Y-120836450D01*
X151475232Y-120653954D01*
X151535300Y-120455934D01*
X151535301Y-120455929D01*
X151555583Y-120250003D01*
X151555583Y-120249996D01*
X151535301Y-120044070D01*
X151535300Y-120044065D01*
X151517078Y-119983997D01*
X151475232Y-119846046D01*
X151377685Y-119663550D01*
X151246410Y-119503590D01*
X151210128Y-119473814D01*
X151086452Y-119372316D01*
X150903954Y-119274768D01*
X150705934Y-119214699D01*
X150705929Y-119214698D01*
X150500003Y-119194417D01*
X150499997Y-119194417D01*
X150294070Y-119214698D01*
X150294065Y-119214699D01*
X150096045Y-119274768D01*
X149913547Y-119372316D01*
X149753595Y-119503585D01*
X149753585Y-119503595D01*
X149622316Y-119663547D01*
X149524768Y-119846045D01*
X149464699Y-120044065D01*
X149464698Y-120044070D01*
X149444417Y-120249996D01*
X107661108Y-120249996D01*
X107659556Y-120244204D01*
X107620060Y-120175795D01*
X107564205Y-120119940D01*
X107546988Y-120110000D01*
X108349862Y-120110000D01*
X108341571Y-120068315D01*
X108341568Y-120068304D01*
X108266191Y-119886326D01*
X108266185Y-119886314D01*
X108156750Y-119722537D01*
X108156747Y-119722533D01*
X108017466Y-119583252D01*
X108017462Y-119583249D01*
X107853685Y-119473814D01*
X107853673Y-119473808D01*
X107671689Y-119398429D01*
X107478493Y-119360000D01*
X107080001Y-119360000D01*
X107080000Y-119360001D01*
X107080000Y-120060000D01*
X106580000Y-120060000D01*
X106580000Y-119360001D01*
X106579999Y-119360000D01*
X106181506Y-119360000D01*
X105988311Y-119398429D01*
X105988309Y-119398429D01*
X105806326Y-119473808D01*
X105806314Y-119473814D01*
X105642537Y-119583249D01*
X105642533Y-119583252D01*
X105503252Y-119722533D01*
X105503249Y-119722537D01*
X105393814Y-119886314D01*
X105393808Y-119886326D01*
X105318431Y-120068304D01*
X105318428Y-120068315D01*
X105310137Y-120110000D01*
X104019862Y-120110000D01*
X104011571Y-120068315D01*
X104011568Y-120068304D01*
X103936191Y-119886326D01*
X103936185Y-119886314D01*
X103826750Y-119722537D01*
X103826747Y-119722533D01*
X103687466Y-119583252D01*
X103687462Y-119583249D01*
X103523685Y-119473814D01*
X103523673Y-119473808D01*
X103341689Y-119398429D01*
X103148493Y-119360000D01*
X102900001Y-119360000D01*
X102900000Y-119360001D01*
X102900000Y-120060000D01*
X102400000Y-120060000D01*
X102400000Y-119360001D01*
X102399999Y-119360000D01*
X102151506Y-119360000D01*
X101958311Y-119398429D01*
X101958309Y-119398429D01*
X101776326Y-119473808D01*
X101776314Y-119473814D01*
X101612537Y-119583249D01*
X101612533Y-119583252D01*
X101473252Y-119722533D01*
X101473249Y-119722537D01*
X101363814Y-119886314D01*
X101363808Y-119886326D01*
X101288431Y-120068304D01*
X101288428Y-120068315D01*
X101280137Y-120110000D01*
X101000500Y-120110000D01*
X101000500Y-119109997D01*
X157134867Y-119109997D01*
X157134867Y-119110002D01*
X157153302Y-119238225D01*
X157169991Y-119274768D01*
X157207118Y-119356063D01*
X157243828Y-119398429D01*
X157291952Y-119453968D01*
X157400926Y-119524001D01*
X157400931Y-119524004D01*
X157525228Y-119560500D01*
X157525230Y-119560500D01*
X157654770Y-119560500D01*
X157654772Y-119560500D01*
X157779069Y-119524004D01*
X157888049Y-119453967D01*
X157972882Y-119356063D01*
X158026697Y-119238226D01*
X158045133Y-119110000D01*
X158026697Y-118981774D01*
X157972882Y-118863937D01*
X157888049Y-118766033D01*
X157888048Y-118766032D01*
X157888047Y-118766031D01*
X157779073Y-118695998D01*
X157779070Y-118695996D01*
X157779069Y-118695996D01*
X157779066Y-118695995D01*
X157654774Y-118659500D01*
X157654772Y-118659500D01*
X157525228Y-118659500D01*
X157525225Y-118659500D01*
X157400933Y-118695995D01*
X157400926Y-118695998D01*
X157291952Y-118766031D01*
X157207117Y-118863938D01*
X157153302Y-118981774D01*
X157134867Y-119109997D01*
X101000500Y-119109997D01*
X101000500Y-118509997D01*
X153504867Y-118509997D01*
X153504867Y-118510002D01*
X153523302Y-118638225D01*
X153549686Y-118695996D01*
X153577118Y-118756063D01*
X153661951Y-118853967D01*
X153661952Y-118853968D01*
X153677466Y-118863938D01*
X153770931Y-118924004D01*
X153895228Y-118960500D01*
X153895230Y-118960500D01*
X154024770Y-118960500D01*
X154024772Y-118960500D01*
X154149069Y-118924004D01*
X154258049Y-118853967D01*
X154342882Y-118756063D01*
X154396697Y-118638226D01*
X154415133Y-118510000D01*
X154396697Y-118381774D01*
X154342882Y-118263937D01*
X154258049Y-118166033D01*
X154258048Y-118166032D01*
X154258047Y-118166031D01*
X154149073Y-118095998D01*
X154149070Y-118095996D01*
X154149069Y-118095996D01*
X154149066Y-118095995D01*
X154024774Y-118059500D01*
X154024772Y-118059500D01*
X153895228Y-118059500D01*
X153895225Y-118059500D01*
X153770933Y-118095995D01*
X153770926Y-118095998D01*
X153661952Y-118166031D01*
X153577117Y-118263938D01*
X153523302Y-118381774D01*
X153504867Y-118509997D01*
X101000500Y-118509997D01*
X101000500Y-116409997D01*
X164934867Y-116409997D01*
X164934867Y-116410002D01*
X164953302Y-116538225D01*
X165007117Y-116656061D01*
X165007118Y-116656063D01*
X165091951Y-116753967D01*
X165091952Y-116753968D01*
X165200926Y-116824001D01*
X165200931Y-116824004D01*
X165325228Y-116860500D01*
X165325230Y-116860500D01*
X165454770Y-116860500D01*
X165454772Y-116860500D01*
X165579069Y-116824004D01*
X165688049Y-116753967D01*
X165772882Y-116656063D01*
X165826697Y-116538226D01*
X165845133Y-116410000D01*
X165826697Y-116281774D01*
X165772882Y-116163937D01*
X165688049Y-116066033D01*
X165688048Y-116066032D01*
X165688047Y-116066031D01*
X165579073Y-115995998D01*
X165579070Y-115995996D01*
X165579069Y-115995996D01*
X165579066Y-115995995D01*
X165454774Y-115959500D01*
X165454772Y-115959500D01*
X165325228Y-115959500D01*
X165325225Y-115959500D01*
X165200933Y-115995995D01*
X165200926Y-115995998D01*
X165091952Y-116066031D01*
X165007117Y-116163938D01*
X164953302Y-116281774D01*
X164934867Y-116409997D01*
X101000500Y-116409997D01*
X101000500Y-115629997D01*
X142974867Y-115629997D01*
X142974867Y-115630002D01*
X142993302Y-115758225D01*
X143047117Y-115876061D01*
X143047118Y-115876063D01*
X143131951Y-115973967D01*
X143131952Y-115973968D01*
X143166232Y-115995998D01*
X143240931Y-116044004D01*
X143365228Y-116080500D01*
X143365230Y-116080500D01*
X143494770Y-116080500D01*
X143494772Y-116080500D01*
X143619069Y-116044004D01*
X143728049Y-115973967D01*
X143812882Y-115876063D01*
X143866697Y-115758226D01*
X143885133Y-115630000D01*
X143866697Y-115501774D01*
X143812882Y-115383937D01*
X143728049Y-115286033D01*
X143728048Y-115286032D01*
X143728047Y-115286031D01*
X143619073Y-115215998D01*
X143619070Y-115215996D01*
X143619069Y-115215996D01*
X143619066Y-115215995D01*
X143494774Y-115179500D01*
X143494772Y-115179500D01*
X143365228Y-115179500D01*
X143365225Y-115179500D01*
X143240933Y-115215995D01*
X143240926Y-115215998D01*
X143131952Y-115286031D01*
X143047117Y-115383938D01*
X142993302Y-115501774D01*
X142974867Y-115629997D01*
X101000500Y-115629997D01*
X101000500Y-112979997D01*
X131414867Y-112979997D01*
X131414867Y-112980002D01*
X131433302Y-113108225D01*
X131487117Y-113226061D01*
X131487118Y-113226063D01*
X131571951Y-113323967D01*
X131571952Y-113323968D01*
X131680926Y-113394001D01*
X131680931Y-113394004D01*
X131805228Y-113430500D01*
X131805230Y-113430500D01*
X131934770Y-113430500D01*
X131934772Y-113430500D01*
X132059069Y-113394004D01*
X132168049Y-113323967D01*
X132252882Y-113226063D01*
X132306697Y-113108226D01*
X132325133Y-112980000D01*
X132306697Y-112851774D01*
X132252882Y-112733937D01*
X132168049Y-112636033D01*
X132168048Y-112636032D01*
X132168047Y-112636031D01*
X132059073Y-112565998D01*
X132059070Y-112565996D01*
X132059069Y-112565996D01*
X132059066Y-112565995D01*
X131934774Y-112529500D01*
X131934772Y-112529500D01*
X131805228Y-112529500D01*
X131805225Y-112529500D01*
X131680933Y-112565995D01*
X131680926Y-112565998D01*
X131571952Y-112636031D01*
X131487117Y-112733938D01*
X131433302Y-112851774D01*
X131414867Y-112979997D01*
X101000500Y-112979997D01*
X101000500Y-112009997D01*
X113084867Y-112009997D01*
X113084867Y-112010002D01*
X113103302Y-112138225D01*
X113157117Y-112256061D01*
X113157118Y-112256063D01*
X113241951Y-112353967D01*
X113241952Y-112353968D01*
X113350926Y-112424001D01*
X113350931Y-112424004D01*
X113475228Y-112460500D01*
X113475230Y-112460500D01*
X113604770Y-112460500D01*
X113604772Y-112460500D01*
X113729069Y-112424004D01*
X113838049Y-112353967D01*
X113922882Y-112256063D01*
X113976697Y-112138226D01*
X113995133Y-112010000D01*
X113976697Y-111881774D01*
X113922882Y-111763937D01*
X113838049Y-111666033D01*
X113838048Y-111666032D01*
X113838047Y-111666031D01*
X113729073Y-111595998D01*
X113729070Y-111595996D01*
X113729069Y-111595996D01*
X113729066Y-111595995D01*
X113604774Y-111559500D01*
X113604772Y-111559500D01*
X113475228Y-111559500D01*
X113475225Y-111559500D01*
X113350933Y-111595995D01*
X113350926Y-111595998D01*
X113241952Y-111666031D01*
X113157117Y-111763938D01*
X113103302Y-111881774D01*
X113084867Y-112009997D01*
X101000500Y-112009997D01*
X101000500Y-110249996D01*
X149444417Y-110249996D01*
X149444417Y-110250003D01*
X149464698Y-110455929D01*
X149464699Y-110455934D01*
X149524768Y-110653954D01*
X149622316Y-110836452D01*
X149753585Y-110996404D01*
X149753590Y-110996410D01*
X149753595Y-110996414D01*
X149913547Y-111127683D01*
X149913548Y-111127683D01*
X149913550Y-111127685D01*
X150096046Y-111225232D01*
X150233997Y-111267078D01*
X150294065Y-111285300D01*
X150294070Y-111285301D01*
X150499997Y-111305583D01*
X150500000Y-111305583D01*
X150500003Y-111305583D01*
X150705929Y-111285301D01*
X150705934Y-111285300D01*
X150903954Y-111225232D01*
X151086450Y-111127685D01*
X151246410Y-110996410D01*
X151377685Y-110836450D01*
X151475232Y-110653954D01*
X151535300Y-110455934D01*
X151535301Y-110455929D01*
X151555583Y-110250003D01*
X151555583Y-110249996D01*
X151535301Y-110044070D01*
X151535300Y-110044065D01*
X151517078Y-109983997D01*
X151475232Y-109846046D01*
X151377685Y-109663550D01*
X151246410Y-109503590D01*
X151246404Y-109503585D01*
X151086452Y-109372316D01*
X150903954Y-109274768D01*
X150705934Y-109214699D01*
X150705929Y-109214698D01*
X150500003Y-109194417D01*
X150499997Y-109194417D01*
X150294070Y-109214698D01*
X150294065Y-109214699D01*
X150096045Y-109274768D01*
X149913547Y-109372316D01*
X149753595Y-109503585D01*
X149753585Y-109503595D01*
X149622316Y-109663547D01*
X149524768Y-109846045D01*
X149464699Y-110044065D01*
X149464698Y-110044070D01*
X149444417Y-110249996D01*
X101000500Y-110249996D01*
X101000500Y-105002279D01*
X101000553Y-104999999D01*
X102745172Y-104999999D01*
X102745172Y-105000000D01*
X102764461Y-105294311D01*
X102822004Y-105583598D01*
X102916810Y-105862883D01*
X102916815Y-105862894D01*
X103047262Y-106127414D01*
X103211122Y-106372648D01*
X103211125Y-106372652D01*
X103240405Y-106406039D01*
X104063708Y-105582735D01*
X104160967Y-105716602D01*
X104283398Y-105839033D01*
X104417261Y-105936290D01*
X103593959Y-106759593D01*
X103627338Y-106788867D01*
X103627351Y-106788877D01*
X103872585Y-106952737D01*
X104137105Y-107083184D01*
X104137116Y-107083189D01*
X104416401Y-107177995D01*
X104705688Y-107235538D01*
X104999999Y-107254828D01*
X105000001Y-107254828D01*
X105294311Y-107235538D01*
X105583598Y-107177995D01*
X105862883Y-107083189D01*
X105862894Y-107083184D01*
X106127413Y-106952738D01*
X106372649Y-106788877D01*
X106406039Y-106759593D01*
X105582736Y-105936290D01*
X105716602Y-105839033D01*
X105839033Y-105716602D01*
X105936290Y-105582736D01*
X106759593Y-106406039D01*
X106788877Y-106372649D01*
X106952738Y-106127413D01*
X107083184Y-105862894D01*
X107083189Y-105862883D01*
X107177995Y-105583598D01*
X107235538Y-105294311D01*
X107254828Y-105000000D01*
X107254828Y-104999999D01*
X162745172Y-104999999D01*
X162745172Y-105000000D01*
X162764461Y-105294311D01*
X162822004Y-105583598D01*
X162916810Y-105862883D01*
X162916815Y-105862894D01*
X163047262Y-106127414D01*
X163211122Y-106372648D01*
X163211125Y-106372652D01*
X163240405Y-106406039D01*
X164063708Y-105582735D01*
X164160967Y-105716602D01*
X164283398Y-105839033D01*
X164417261Y-105936290D01*
X163593959Y-106759593D01*
X163627338Y-106788867D01*
X163627351Y-106788877D01*
X163872585Y-106952737D01*
X164137105Y-107083184D01*
X164137116Y-107083189D01*
X164416401Y-107177995D01*
X164705688Y-107235538D01*
X164999999Y-107254828D01*
X165000001Y-107254828D01*
X165294311Y-107235538D01*
X165583598Y-107177995D01*
X165862883Y-107083189D01*
X165862894Y-107083184D01*
X166127413Y-106952738D01*
X166372649Y-106788877D01*
X166406039Y-106759593D01*
X165582736Y-105936290D01*
X165716602Y-105839033D01*
X165839033Y-105716602D01*
X165936290Y-105582736D01*
X166759593Y-106406039D01*
X166788877Y-106372649D01*
X166952738Y-106127413D01*
X167083184Y-105862894D01*
X167083189Y-105862883D01*
X167177995Y-105583598D01*
X167235538Y-105294311D01*
X167254828Y-105000000D01*
X167254828Y-104999999D01*
X167235538Y-104705688D01*
X167177995Y-104416401D01*
X167083189Y-104137116D01*
X167083184Y-104137105D01*
X166952737Y-103872585D01*
X166788877Y-103627351D01*
X166788867Y-103627338D01*
X166759593Y-103593959D01*
X165936290Y-104417261D01*
X165839033Y-104283398D01*
X165716602Y-104160967D01*
X165582735Y-104063708D01*
X166406039Y-103240405D01*
X166372652Y-103211125D01*
X166372648Y-103211122D01*
X166127414Y-103047262D01*
X165862894Y-102916815D01*
X165862883Y-102916810D01*
X165583598Y-102822004D01*
X165294311Y-102764461D01*
X165000001Y-102745172D01*
X164999999Y-102745172D01*
X164705688Y-102764461D01*
X164416401Y-102822004D01*
X164137116Y-102916810D01*
X164137105Y-102916815D01*
X163872585Y-103047262D01*
X163627349Y-103211123D01*
X163593959Y-103240405D01*
X164417263Y-104063709D01*
X164283398Y-104160967D01*
X164160967Y-104283398D01*
X164063709Y-104417263D01*
X163240405Y-103593959D01*
X163211123Y-103627349D01*
X163047262Y-103872585D01*
X162916815Y-104137105D01*
X162916810Y-104137116D01*
X162822004Y-104416401D01*
X162764461Y-104705688D01*
X162745172Y-104999999D01*
X107254828Y-104999999D01*
X107235538Y-104705688D01*
X107177995Y-104416401D01*
X107083189Y-104137116D01*
X107083184Y-104137105D01*
X106952737Y-103872585D01*
X106788877Y-103627351D01*
X106788867Y-103627338D01*
X106759593Y-103593959D01*
X105936290Y-104417261D01*
X105839033Y-104283398D01*
X105716602Y-104160967D01*
X105582735Y-104063708D01*
X106406039Y-103240405D01*
X106372652Y-103211125D01*
X106372648Y-103211122D01*
X106127414Y-103047262D01*
X105862894Y-102916815D01*
X105862883Y-102916810D01*
X105583598Y-102822004D01*
X105294311Y-102764461D01*
X105000001Y-102745172D01*
X104999999Y-102745172D01*
X104705688Y-102764461D01*
X104416401Y-102822004D01*
X104137116Y-102916810D01*
X104137105Y-102916815D01*
X103872585Y-103047262D01*
X103627349Y-103211123D01*
X103593959Y-103240405D01*
X104417263Y-104063709D01*
X104283398Y-104160967D01*
X104160967Y-104283398D01*
X104063709Y-104417263D01*
X103240405Y-103593959D01*
X103211123Y-103627349D01*
X103047262Y-103872585D01*
X102916815Y-104137105D01*
X102916810Y-104137116D01*
X102822004Y-104416401D01*
X102764461Y-104705688D01*
X102745172Y-104999999D01*
X101000553Y-104999999D01*
X101000606Y-104997707D01*
X101014107Y-104705688D01*
X101017349Y-104635545D01*
X101018192Y-104626447D01*
X101067969Y-104269606D01*
X101069645Y-104260645D01*
X101152130Y-103909938D01*
X101154631Y-103901149D01*
X101246399Y-103627351D01*
X101269123Y-103559549D01*
X101272424Y-103551030D01*
X101409578Y-103240405D01*
X101417955Y-103221433D01*
X101422007Y-103213294D01*
X101597350Y-102898496D01*
X101602118Y-102890795D01*
X101805756Y-102593519D01*
X101811244Y-102586252D01*
X102041415Y-102309068D01*
X102047555Y-102302332D01*
X102302332Y-102047555D01*
X102309068Y-102041415D01*
X102586252Y-101811244D01*
X102593519Y-101805756D01*
X102890795Y-101602118D01*
X102898496Y-101597350D01*
X103213294Y-101422007D01*
X103221433Y-101417955D01*
X103551037Y-101272421D01*
X103559549Y-101269123D01*
X103901154Y-101154629D01*
X103909938Y-101152130D01*
X104260645Y-101069645D01*
X104269606Y-101067969D01*
X104626454Y-101018191D01*
X104635545Y-101017349D01*
X104997707Y-101000605D01*
X105002279Y-101000500D01*
X105092710Y-101000500D01*
X164907290Y-101000500D01*
X164997721Y-101000500D01*
X165002292Y-101000605D01*
G37*
%TD.AperFunction*%
%TD*%
M02*
