%TF.GenerationSoftware,KiCad,Pcbnew,8.0.9-8.0.9-0~ubuntu24.04.1*%
%TF.CreationDate,2025-05-04T14:54:54+03:00*%
%TF.ProjectId,vario_kicad,76617269-6f5f-46b6-9963-61642e6b6963,rev?*%
%TF.SameCoordinates,Original*%
%TF.FileFunction,Paste,Bot*%
%TF.FilePolarity,Positive*%
%FSLAX46Y46*%
G04 Gerber Fmt 4.6, Leading zero omitted, Abs format (unit mm)*
G04 Created by KiCad (PCBNEW 8.0.9-8.0.9-0~ubuntu24.04.1) date 2025-05-04 14:54:54*
%MOMM*%
%LPD*%
G01*
G04 APERTURE LIST*
G04 Aperture macros list*
%AMRoundRect*
0 Rectangle with rounded corners*
0 $1 Rounding radius*
0 $2 $3 $4 $5 $6 $7 $8 $9 X,Y pos of 4 corners*
0 Add a 4 corners polygon primitive as box body*
4,1,4,$2,$3,$4,$5,$6,$7,$8,$9,$2,$3,0*
0 Add four circle primitives for the rounded corners*
1,1,$1+$1,$2,$3*
1,1,$1+$1,$4,$5*
1,1,$1+$1,$6,$7*
1,1,$1+$1,$8,$9*
0 Add four rect primitives between the rounded corners*
20,1,$1+$1,$2,$3,$4,$5,0*
20,1,$1+$1,$4,$5,$6,$7,0*
20,1,$1+$1,$6,$7,$8,$9,0*
20,1,$1+$1,$8,$9,$2,$3,0*%
G04 Aperture macros list end*
%ADD10RoundRect,0.175000X-0.175000X-0.300000X0.175000X-0.300000X0.175000X0.300000X-0.175000X0.300000X0*%
%ADD11RoundRect,0.087500X-0.587500X-0.087500X0.587500X-0.087500X0.587500X0.087500X-0.587500X0.087500X0*%
%ADD12RoundRect,0.140000X-0.170000X0.140000X-0.170000X-0.140000X0.170000X-0.140000X0.170000X0.140000X0*%
%ADD13RoundRect,0.150000X0.150000X-0.587500X0.150000X0.587500X-0.150000X0.587500X-0.150000X-0.587500X0*%
%ADD14RoundRect,0.135000X-0.135000X-0.185000X0.135000X-0.185000X0.135000X0.185000X-0.135000X0.185000X0*%
%ADD15RoundRect,0.140000X0.170000X-0.140000X0.170000X0.140000X-0.170000X0.140000X-0.170000X-0.140000X0*%
%ADD16RoundRect,0.140000X0.140000X0.170000X-0.140000X0.170000X-0.140000X-0.170000X0.140000X-0.170000X0*%
%ADD17RoundRect,0.135000X-0.185000X0.135000X-0.185000X-0.135000X0.185000X-0.135000X0.185000X0.135000X0*%
%ADD18RoundRect,0.150000X0.512500X0.150000X-0.512500X0.150000X-0.512500X-0.150000X0.512500X-0.150000X0*%
%ADD19RoundRect,0.135000X0.135000X0.185000X-0.135000X0.185000X-0.135000X-0.185000X0.135000X-0.185000X0*%
G04 APERTURE END LIST*
D10*
%TO.C,U1*%
X147845000Y-115035000D03*
X147845000Y-116215000D03*
X148705000Y-115035000D03*
X148705000Y-116215000D03*
D11*
X146100000Y-116600000D03*
X146100000Y-115950000D03*
X146100000Y-115300000D03*
X146100000Y-114650000D03*
X150450000Y-114650000D03*
X150450000Y-115300000D03*
X150450000Y-115950000D03*
X150450000Y-116600000D03*
%TD*%
D12*
%TO.C,C14*%
X159220000Y-118290000D03*
X159220000Y-119250000D03*
%TD*%
D13*
%TO.C,U8*%
X159460000Y-129465000D03*
X157560000Y-129465000D03*
X158510000Y-127590000D03*
%TD*%
D14*
%TO.C,R29*%
X159250000Y-112450000D03*
X160270000Y-112450000D03*
%TD*%
D15*
%TO.C,C19*%
X155660000Y-128920000D03*
X155660000Y-127960000D03*
%TD*%
D12*
%TO.C,C25*%
X123430000Y-130710000D03*
X123430000Y-131670000D03*
%TD*%
D16*
%TO.C,C9*%
X141270000Y-113970000D03*
X140310000Y-113970000D03*
%TD*%
D17*
%TO.C,R31*%
X162760000Y-135890000D03*
X162760000Y-136910000D03*
%TD*%
D18*
%TO.C,U7*%
X161500000Y-114240000D03*
X161500000Y-115190000D03*
X161500000Y-116140000D03*
X159225000Y-116140000D03*
X159225000Y-114240000D03*
%TD*%
D17*
%TO.C,R32*%
X161500000Y-118430000D03*
X161500000Y-119450000D03*
%TD*%
%TO.C,R33*%
X157590000Y-120620000D03*
X157590000Y-121640000D03*
%TD*%
D12*
%TO.C,C7*%
X143470000Y-117360000D03*
X143470000Y-118320000D03*
%TD*%
%TO.C,C11*%
X124530000Y-130720000D03*
X124530000Y-131680000D03*
%TD*%
D14*
%TO.C,R16*%
X144160000Y-119990000D03*
X145180000Y-119990000D03*
%TD*%
D19*
%TO.C,R18*%
X143770000Y-113970000D03*
X142750000Y-113970000D03*
%TD*%
D12*
%TO.C,C5*%
X153280000Y-115200000D03*
X153280000Y-116160000D03*
%TD*%
%TO.C,C18*%
X161180000Y-128190000D03*
X161180000Y-129150000D03*
%TD*%
%TO.C,C6*%
X154760000Y-115200000D03*
X154760000Y-116160000D03*
%TD*%
D19*
%TO.C,R28*%
X165900000Y-114300000D03*
X164880000Y-114300000D03*
%TD*%
M02*
