%TF.GenerationSoftware,KiCad,Pcbnew,8.0.9-8.0.9-0~ubuntu24.04.1*%
%TF.CreationDate,2025-05-04T14:54:54+03:00*%
%TF.ProjectId,vario_kicad,76617269-6f5f-46b6-9963-61642e6b6963,rev?*%
%TF.SameCoordinates,Original*%
%TF.FileFunction,Copper,L3,Inr*%
%TF.FilePolarity,Positive*%
%FSLAX46Y46*%
G04 Gerber Fmt 4.6, Leading zero omitted, Abs format (unit mm)*
G04 Created by KiCad (PCBNEW 8.0.9-8.0.9-0~ubuntu24.04.1) date 2025-05-04 14:54:54*
%MOMM*%
%LPD*%
G01*
G04 APERTURE LIST*
%TA.AperFunction,ComponentPad*%
%ADD10C,1.700000*%
%TD*%
%TA.AperFunction,ComponentPad*%
%ADD11C,3.500000*%
%TD*%
%TA.AperFunction,ComponentPad*%
%ADD12C,1.524000*%
%TD*%
%TA.AperFunction,HeatsinkPad*%
%ADD13O,2.100000X1.000000*%
%TD*%
%TA.AperFunction,HeatsinkPad*%
%ADD14O,1.800000X1.000000*%
%TD*%
%TA.AperFunction,ViaPad*%
%ADD15C,0.500000*%
%TD*%
%TA.AperFunction,Conductor*%
%ADD16C,0.500000*%
%TD*%
G04 APERTURE END LIST*
D10*
%TO.N,Net-(U1-VoP)*%
%TO.C,LS1*%
X150500000Y-120250000D03*
%TO.N,Net-(U1-VoN)*%
X150500000Y-110250000D03*
%TD*%
D11*
%TO.N,GND*%
%TO.C,H3*%
X165000000Y-105000000D03*
%TD*%
%TO.N,GND*%
%TO.C,H4*%
X165000000Y-145000000D03*
%TD*%
%TO.N,GND*%
%TO.C,H2*%
X105000000Y-145000000D03*
%TD*%
D12*
%TO.N,VCC*%
%TO.C,J2*%
X104800000Y-137350000D03*
%TO.N,/mcu/SWDIO*%
X106567767Y-139117767D03*
%TO.N,/mcu/SWCLK*%
X108335534Y-140885534D03*
%TO.N,/mcu/NRST*%
X110103301Y-142653301D03*
%TO.N,/mcu/BOOT0*%
X111871068Y-144421068D03*
%TO.N,GND*%
X113638835Y-146188835D03*
%TD*%
D13*
%TO.N,GND*%
%TO.C,U4*%
X106830000Y-120360000D03*
D14*
X102650000Y-120360000D03*
D13*
X106830000Y-129000000D03*
D14*
X102650000Y-129000000D03*
%TD*%
D11*
%TO.N,GND*%
%TO.C,H1*%
X105000000Y-105000000D03*
%TD*%
D12*
%TO.N,VBATT*%
%TO.C,BT2*%
X165050000Y-125100000D03*
%TO.N,Net-(BT2--)*%
X165050000Y-132100000D03*
%TD*%
D15*
%TO.N,VBATT*%
X162700000Y-128910000D03*
%TO.N,GND*%
X165000000Y-138500000D03*
X129020000Y-139300000D03*
X107990000Y-117230000D03*
X122750000Y-118030000D03*
X135890000Y-139680000D03*
X133560000Y-128570000D03*
X153280000Y-117260000D03*
X130160000Y-134320000D03*
X118360000Y-102880000D03*
X130210000Y-138610000D03*
X124410000Y-123510000D03*
X142870000Y-119570000D03*
X107070000Y-112330000D03*
X115610000Y-140810000D03*
X125040000Y-135470000D03*
X141600000Y-146790000D03*
X166000000Y-139500000D03*
X163050000Y-138200000D03*
X129200000Y-146490000D03*
X115720000Y-135540000D03*
X120740000Y-125300000D03*
X139090000Y-113970000D03*
X125460000Y-131930000D03*
X166000000Y-140500000D03*
X164000000Y-140500000D03*
X165000000Y-140500000D03*
X142620000Y-115220000D03*
X152010000Y-129400000D03*
X128400000Y-102870000D03*
X159220000Y-120570000D03*
X155660000Y-126900000D03*
X154360000Y-146100000D03*
X123510000Y-102870000D03*
X124800000Y-140280000D03*
X164000000Y-139500000D03*
X159460000Y-131000000D03*
X142920000Y-139400000D03*
X129940000Y-108200000D03*
X122640000Y-120940000D03*
X128330000Y-125570000D03*
X164000000Y-138500000D03*
X166000000Y-138490000D03*
X134830000Y-131820000D03*
X161510000Y-112450000D03*
X126450000Y-115100000D03*
X132330000Y-139850000D03*
X163410000Y-115370000D03*
X165000000Y-139500000D03*
%TO.N,VCC*%
X131870000Y-112980000D03*
X156500000Y-131000000D03*
X125400000Y-130720000D03*
X157500000Y-131000000D03*
X155500000Y-130000000D03*
X118890000Y-128600000D03*
X139600000Y-146760000D03*
X118640000Y-136970000D03*
X113540000Y-112010000D03*
X127490000Y-136580000D03*
X127620000Y-146740000D03*
X151780000Y-146790000D03*
X126570000Y-136680000D03*
X156500000Y-130000000D03*
X155500000Y-131000000D03*
%TO.N,VBATT_SW*%
X153960000Y-118510000D03*
%TO.N,V_USB*%
X109130000Y-127080000D03*
X109130000Y-122280000D03*
X157590000Y-119110000D03*
%TO.N,/mcu/WKUP1*%
X140250000Y-142100000D03*
X128540000Y-130920000D03*
%TO.N,/mcu/NRST*%
X113960000Y-139830000D03*
X124640000Y-132690000D03*
%TO.N,Net-(D5-K)*%
X165390000Y-116410000D03*
%TO.N,/mcu/VBATT_SW_EN*%
X121120000Y-138690000D03*
X128110000Y-140040000D03*
%TO.N,/mcu/MEM_CS_ALT*%
X120900000Y-123640000D03*
X121550000Y-130620000D03*
%TO.N,/mcu/SPI1_NSS*%
X119860000Y-123360000D03*
X120540000Y-131350000D03*
%TO.N,/mcu/SPI1_MISO*%
X121890000Y-121440000D03*
X123760000Y-124290000D03*
%TO.N,/audio_amp/AUDIO_AMP_ENABLE*%
X130970000Y-127750000D03*
%TO.N,Net-(U1-INP)*%
X143430000Y-115630000D03*
%TO.N,/mcu/ADC_IN3*%
X127490000Y-128470000D03*
X150590000Y-132130000D03*
%TO.N,/mcu/BOOT0*%
X123430000Y-139250000D03*
X121220000Y-139880000D03*
%TO.N,/mcu/RTC_CALIB*%
X142010000Y-139400000D03*
X128460000Y-135360000D03*
%TD*%
D16*
%TO.N,V_USB*%
X157590000Y-119110000D02*
X157590000Y-109360000D01*
X157590000Y-109360000D02*
X154220000Y-105990000D01*
X115680000Y-105990000D02*
X109130000Y-112540000D01*
X154220000Y-105990000D02*
X115680000Y-105990000D01*
X109130000Y-122280000D02*
X109130000Y-127080000D01*
X109130000Y-112540000D02*
X109130000Y-122280000D01*
%TD*%
%TA.AperFunction,Conductor*%
%TO.N,VCC*%
G36*
X165004585Y-101000711D02*
G01*
X165359837Y-101017136D01*
X165378137Y-101018831D01*
X165725812Y-101067330D01*
X165743854Y-101070703D01*
X166085564Y-101151072D01*
X166103230Y-101156099D01*
X166436073Y-101267657D01*
X166453190Y-101274287D01*
X166722790Y-101393327D01*
X166774308Y-101416075D01*
X166790762Y-101424268D01*
X166991087Y-101535848D01*
X167097434Y-101595083D01*
X167113041Y-101604747D01*
X167402654Y-101803135D01*
X167417317Y-101814209D01*
X167687371Y-102038459D01*
X167700954Y-102050842D01*
X167949157Y-102299045D01*
X167961540Y-102312628D01*
X168185790Y-102582682D01*
X168196866Y-102597349D01*
X168395248Y-102886952D01*
X168404919Y-102902571D01*
X168575731Y-103209237D01*
X168583924Y-103225691D01*
X168725707Y-103546798D01*
X168732347Y-103563938D01*
X168843898Y-103896762D01*
X168848928Y-103914441D01*
X168929293Y-104256132D01*
X168932671Y-104274200D01*
X168981167Y-104621860D01*
X168982863Y-104640162D01*
X168999288Y-104995413D01*
X168999500Y-105004604D01*
X168999500Y-144995395D01*
X168999288Y-145004586D01*
X168982863Y-145359837D01*
X168981167Y-145378139D01*
X168932671Y-145725799D01*
X168929293Y-145743867D01*
X168848928Y-146085558D01*
X168843898Y-146103237D01*
X168732347Y-146436061D01*
X168725707Y-146453201D01*
X168583924Y-146774308D01*
X168575731Y-146790762D01*
X168404919Y-147097428D01*
X168395243Y-147113056D01*
X168196868Y-147402648D01*
X168185790Y-147417317D01*
X167961540Y-147687371D01*
X167949157Y-147700954D01*
X167700954Y-147949157D01*
X167687371Y-147961540D01*
X167417317Y-148185790D01*
X167402648Y-148196868D01*
X167113056Y-148395243D01*
X167097428Y-148404919D01*
X166790762Y-148575731D01*
X166774308Y-148583924D01*
X166453201Y-148725707D01*
X166436061Y-148732347D01*
X166103237Y-148843898D01*
X166085558Y-148848928D01*
X165743867Y-148929293D01*
X165725799Y-148932671D01*
X165378139Y-148981167D01*
X165359837Y-148982863D01*
X165030176Y-148998104D01*
X165004584Y-148999288D01*
X164995396Y-148999500D01*
X105004604Y-148999500D01*
X104995415Y-148999288D01*
X104968505Y-148998043D01*
X104640162Y-148982863D01*
X104621860Y-148981167D01*
X104274200Y-148932671D01*
X104256132Y-148929293D01*
X103914441Y-148848928D01*
X103896762Y-148843898D01*
X103563938Y-148732347D01*
X103546798Y-148725707D01*
X103225691Y-148583924D01*
X103209237Y-148575731D01*
X102902571Y-148404919D01*
X102886952Y-148395248D01*
X102597349Y-148196866D01*
X102582682Y-148185790D01*
X102312628Y-147961540D01*
X102299045Y-147949157D01*
X102050842Y-147700954D01*
X102038459Y-147687371D01*
X101814209Y-147417317D01*
X101803131Y-147402648D01*
X101752875Y-147329283D01*
X101604747Y-147113041D01*
X101595080Y-147097428D01*
X101593461Y-147094522D01*
X101492833Y-146913860D01*
X101424268Y-146790762D01*
X101416075Y-146774308D01*
X101359783Y-146646818D01*
X101274287Y-146453190D01*
X101267657Y-146436073D01*
X101156099Y-146103230D01*
X101151071Y-146085558D01*
X101070703Y-145743854D01*
X101067330Y-145725812D01*
X101018831Y-145378137D01*
X101017136Y-145359836D01*
X101000712Y-145004585D01*
X101000606Y-145000000D01*
X102844475Y-145000000D01*
X102864552Y-145293511D01*
X102894480Y-145437532D01*
X102924408Y-145581555D01*
X103022929Y-145858767D01*
X103070576Y-145950720D01*
X103158278Y-146119976D01*
X103206883Y-146188834D01*
X103327929Y-146360318D01*
X103327938Y-146360330D01*
X103528740Y-146575335D01*
X103616605Y-146646819D01*
X103756949Y-146760997D01*
X103756949Y-146760998D01*
X104008319Y-146913860D01*
X104084204Y-146946821D01*
X104278159Y-147031067D01*
X104496439Y-147092226D01*
X104561430Y-147110436D01*
X104561434Y-147110436D01*
X104561445Y-147110440D01*
X104852902Y-147150500D01*
X104852906Y-147150500D01*
X105147094Y-147150500D01*
X105147098Y-147150500D01*
X105438555Y-147110440D01*
X105721841Y-147031067D01*
X105954760Y-146929896D01*
X105991680Y-146913860D01*
X105991681Y-146913860D01*
X106173264Y-146803436D01*
X106243049Y-146760999D01*
X106471260Y-146575335D01*
X106672065Y-146360326D01*
X106841722Y-146119976D01*
X106977072Y-145858764D01*
X107075592Y-145581554D01*
X107135448Y-145293511D01*
X107155525Y-145000000D01*
X107135448Y-144706489D01*
X107075592Y-144418446D01*
X106977072Y-144141236D01*
X106841722Y-143880024D01*
X106672065Y-143639674D01*
X106672063Y-143639672D01*
X106672061Y-143639669D01*
X106471259Y-143424664D01*
X106278573Y-143267902D01*
X106243050Y-143239001D01*
X105991680Y-143086139D01*
X105721846Y-142968935D01*
X105721844Y-142968934D01*
X105721841Y-142968933D01*
X105721834Y-142968931D01*
X105438569Y-142889563D01*
X105438556Y-142889560D01*
X105380263Y-142881548D01*
X105147098Y-142849500D01*
X104852902Y-142849500D01*
X104658597Y-142876206D01*
X104561443Y-142889560D01*
X104561430Y-142889563D01*
X104278165Y-142968931D01*
X104278153Y-142968935D01*
X104008319Y-143086139D01*
X104008318Y-143086139D01*
X103756949Y-143239001D01*
X103756949Y-143239002D01*
X103528740Y-143424664D01*
X103327938Y-143639669D01*
X103327929Y-143639681D01*
X103207786Y-143809887D01*
X103158278Y-143880024D01*
X103118560Y-143956675D01*
X103022929Y-144141232D01*
X102924408Y-144418444D01*
X102864552Y-144706489D01*
X102844475Y-145000000D01*
X101000606Y-145000000D01*
X101000500Y-144995395D01*
X101000500Y-137099999D01*
X103560468Y-137099999D01*
X103560469Y-137100000D01*
X104511184Y-137100000D01*
X104495124Y-137116060D01*
X104444964Y-137202939D01*
X104419000Y-137299840D01*
X104419000Y-137400160D01*
X104444964Y-137497061D01*
X104495124Y-137583940D01*
X104511184Y-137600000D01*
X103560468Y-137600000D01*
X103609576Y-137783274D01*
X103702901Y-137983411D01*
X103702905Y-137983417D01*
X103829560Y-138164299D01*
X103985700Y-138320439D01*
X104166582Y-138447094D01*
X104166588Y-138447098D01*
X104366726Y-138540423D01*
X104366725Y-138540423D01*
X104549999Y-138589531D01*
X104550000Y-138589531D01*
X104550000Y-137638816D01*
X104566060Y-137654876D01*
X104652939Y-137705036D01*
X104749840Y-137731000D01*
X104850160Y-137731000D01*
X104947061Y-137705036D01*
X105033940Y-137654876D01*
X105050000Y-137638816D01*
X105050000Y-138589530D01*
X105208405Y-138547086D01*
X105296907Y-138543774D01*
X105378081Y-138579190D01*
X105435850Y-138646318D01*
X105458772Y-138731864D01*
X105451315Y-138793762D01*
X105420166Y-138903239D01*
X105420165Y-138903246D01*
X105400287Y-139117766D01*
X105400287Y-139117767D01*
X105420165Y-139332287D01*
X105420165Y-139332289D01*
X105420166Y-139332291D01*
X105435339Y-139385619D01*
X105479123Y-139539508D01*
X105575155Y-139732368D01*
X105704989Y-139904294D01*
X105823899Y-140012694D01*
X105864203Y-140049436D01*
X105864205Y-140049437D01*
X105864206Y-140049438D01*
X106047369Y-140162848D01*
X106047368Y-140162848D01*
X106047372Y-140162849D01*
X106047376Y-140162852D01*
X106248271Y-140240679D01*
X106460046Y-140280267D01*
X106460048Y-140280267D01*
X106675486Y-140280267D01*
X106675488Y-140280267D01*
X106887263Y-140240679D01*
X106991835Y-140200167D01*
X107079463Y-140187354D01*
X107163976Y-140213830D01*
X107228632Y-140274353D01*
X107260626Y-140356935D01*
X107253619Y-140445221D01*
X107249285Y-140457609D01*
X107246893Y-140463782D01*
X107187933Y-140671010D01*
X107187932Y-140671013D01*
X107168054Y-140885533D01*
X107168054Y-140885534D01*
X107187932Y-141100054D01*
X107187932Y-141100056D01*
X107187933Y-141100058D01*
X107192049Y-141114523D01*
X107246890Y-141307275D01*
X107342922Y-141500135D01*
X107472756Y-141672061D01*
X107608053Y-141795400D01*
X107631970Y-141817203D01*
X107631972Y-141817204D01*
X107631973Y-141817205D01*
X107815136Y-141930615D01*
X107815135Y-141930615D01*
X107815139Y-141930616D01*
X107815143Y-141930619D01*
X108016038Y-142008446D01*
X108227813Y-142048034D01*
X108227815Y-142048034D01*
X108443253Y-142048034D01*
X108443255Y-142048034D01*
X108655030Y-142008446D01*
X108759602Y-141967934D01*
X108847230Y-141955121D01*
X108931743Y-141981597D01*
X108996399Y-142042120D01*
X109028393Y-142124702D01*
X109021386Y-142212988D01*
X109017052Y-142225376D01*
X109014660Y-142231549D01*
X108955700Y-142438777D01*
X108955699Y-142438780D01*
X108935821Y-142653300D01*
X108935821Y-142653301D01*
X108955699Y-142867821D01*
X108955700Y-142867824D01*
X109014657Y-143075042D01*
X109110689Y-143267902D01*
X109240523Y-143439828D01*
X109375820Y-143563167D01*
X109399737Y-143584970D01*
X109399739Y-143584971D01*
X109399740Y-143584972D01*
X109582903Y-143698382D01*
X109582902Y-143698382D01*
X109582906Y-143698383D01*
X109582910Y-143698386D01*
X109783805Y-143776213D01*
X109995580Y-143815801D01*
X109995582Y-143815801D01*
X110211020Y-143815801D01*
X110211022Y-143815801D01*
X110422797Y-143776213D01*
X110527369Y-143735701D01*
X110614997Y-143722888D01*
X110699510Y-143749364D01*
X110764166Y-143809887D01*
X110796160Y-143892469D01*
X110789153Y-143980755D01*
X110784819Y-143993143D01*
X110782427Y-143999316D01*
X110723467Y-144206544D01*
X110723466Y-144206547D01*
X110703588Y-144421067D01*
X110703588Y-144421068D01*
X110723466Y-144635588D01*
X110723467Y-144635591D01*
X110782424Y-144842809D01*
X110878456Y-145035669D01*
X111008290Y-145207595D01*
X111102535Y-145293510D01*
X111167504Y-145352737D01*
X111167506Y-145352738D01*
X111167507Y-145352739D01*
X111350670Y-145466149D01*
X111350669Y-145466149D01*
X111350673Y-145466150D01*
X111350677Y-145466153D01*
X111551572Y-145543980D01*
X111763347Y-145583568D01*
X111763349Y-145583568D01*
X111978787Y-145583568D01*
X111978789Y-145583568D01*
X112190564Y-145543980D01*
X112295136Y-145503468D01*
X112382764Y-145490655D01*
X112467277Y-145517131D01*
X112531933Y-145577654D01*
X112563927Y-145660236D01*
X112556920Y-145748522D01*
X112552586Y-145760910D01*
X112550194Y-145767083D01*
X112491234Y-145974311D01*
X112491233Y-145974314D01*
X112471355Y-146188834D01*
X112471355Y-146188835D01*
X112491233Y-146403355D01*
X112491233Y-146403357D01*
X112491234Y-146403359D01*
X112503021Y-146444786D01*
X112550191Y-146610576D01*
X112646223Y-146803436D01*
X112776057Y-146975362D01*
X112889171Y-147078478D01*
X112935271Y-147120504D01*
X112935273Y-147120505D01*
X112935274Y-147120506D01*
X113118437Y-147233916D01*
X113118436Y-147233916D01*
X113118440Y-147233917D01*
X113118444Y-147233920D01*
X113319339Y-147311747D01*
X113531114Y-147351335D01*
X113531116Y-147351335D01*
X113746554Y-147351335D01*
X113746556Y-147351335D01*
X113958331Y-147311747D01*
X114159226Y-147233920D01*
X114159231Y-147233916D01*
X114159233Y-147233916D01*
X114234723Y-147187174D01*
X114342399Y-147120504D01*
X114501613Y-146975361D01*
X114548057Y-146913859D01*
X114631446Y-146803436D01*
X114652577Y-146760999D01*
X114727478Y-146610577D01*
X114761785Y-146489999D01*
X128544722Y-146489999D01*
X128544722Y-146490000D01*
X128563763Y-146646819D01*
X128563763Y-146646821D01*
X128619777Y-146794518D01*
X128619779Y-146794520D01*
X128619780Y-146794523D01*
X128709517Y-146924530D01*
X128827760Y-147029283D01*
X128967635Y-147102696D01*
X129121015Y-147140500D01*
X129121017Y-147140500D01*
X129278983Y-147140500D01*
X129278985Y-147140500D01*
X129432365Y-147102696D01*
X129572240Y-147029283D01*
X129690483Y-146924530D01*
X129780220Y-146794523D01*
X129781936Y-146789999D01*
X140944722Y-146789999D01*
X140944722Y-146790000D01*
X140963763Y-146946819D01*
X140963763Y-146946821D01*
X141019777Y-147094518D01*
X141019779Y-147094520D01*
X141019780Y-147094523D01*
X141109517Y-147224530D01*
X141227760Y-147329283D01*
X141361011Y-147399219D01*
X141367543Y-147402648D01*
X141367635Y-147402696D01*
X141521015Y-147440500D01*
X141521017Y-147440500D01*
X141678983Y-147440500D01*
X141678985Y-147440500D01*
X141832365Y-147402696D01*
X141972240Y-147329283D01*
X142090483Y-147224530D01*
X142180220Y-147094523D01*
X142236237Y-146946818D01*
X142255278Y-146790000D01*
X142236237Y-146633182D01*
X142236236Y-146633179D01*
X142236236Y-146633178D01*
X142180222Y-146485481D01*
X142180221Y-146485479D01*
X142180220Y-146485477D01*
X142090483Y-146355470D01*
X141972240Y-146250717D01*
X141902302Y-146214010D01*
X141832366Y-146177304D01*
X141781238Y-146164702D01*
X141678985Y-146139500D01*
X141521015Y-146139500D01*
X141444325Y-146158402D01*
X141367633Y-146177304D01*
X141227760Y-146250717D01*
X141227756Y-146250720D01*
X141109518Y-146355468D01*
X141019780Y-146485477D01*
X141019777Y-146485481D01*
X140963763Y-146633178D01*
X140963763Y-146633180D01*
X140944722Y-146789999D01*
X129781936Y-146789999D01*
X129836237Y-146646818D01*
X129855278Y-146490000D01*
X129836237Y-146333182D01*
X129836236Y-146333179D01*
X129836236Y-146333178D01*
X129780222Y-146185481D01*
X129780221Y-146185479D01*
X129780220Y-146185477D01*
X129721219Y-146099999D01*
X153704722Y-146099999D01*
X153704722Y-146100000D01*
X153723763Y-146256819D01*
X153723763Y-146256821D01*
X153779777Y-146404518D01*
X153779779Y-146404520D01*
X153779780Y-146404523D01*
X153869517Y-146534530D01*
X153987760Y-146639283D01*
X154127635Y-146712696D01*
X154281015Y-146750500D01*
X154281017Y-146750500D01*
X154438983Y-146750500D01*
X154438985Y-146750500D01*
X154592365Y-146712696D01*
X154732240Y-146639283D01*
X154850483Y-146534530D01*
X154940220Y-146404523D01*
X154940222Y-146404518D01*
X154996236Y-146256821D01*
X154996236Y-146256820D01*
X154996237Y-146256818D01*
X155015278Y-146100000D01*
X154996237Y-145943182D01*
X154996236Y-145943179D01*
X154996236Y-145943178D01*
X154940222Y-145795481D01*
X154940221Y-145795479D01*
X154940220Y-145795477D01*
X154850483Y-145665470D01*
X154732240Y-145560717D01*
X154649195Y-145517131D01*
X154592366Y-145487304D01*
X154506550Y-145466153D01*
X154438985Y-145449500D01*
X154281015Y-145449500D01*
X154213466Y-145466149D01*
X154127633Y-145487304D01*
X153987760Y-145560717D01*
X153987756Y-145560720D01*
X153869518Y-145665468D01*
X153779780Y-145795477D01*
X153779777Y-145795481D01*
X153723763Y-145943178D01*
X153723763Y-145943180D01*
X153704722Y-146099999D01*
X129721219Y-146099999D01*
X129690483Y-146055470D01*
X129572240Y-145950717D01*
X129502302Y-145914010D01*
X129432366Y-145877304D01*
X129381238Y-145864702D01*
X129278985Y-145839500D01*
X129121015Y-145839500D01*
X129044325Y-145858402D01*
X128967633Y-145877304D01*
X128827760Y-145950717D01*
X128827756Y-145950720D01*
X128709518Y-146055468D01*
X128619780Y-146185477D01*
X128619777Y-146185481D01*
X128563763Y-146333178D01*
X128563763Y-146333180D01*
X128544722Y-146489999D01*
X114761785Y-146489999D01*
X114786436Y-146403359D01*
X114806315Y-146188835D01*
X114805246Y-146177304D01*
X114786436Y-145974314D01*
X114786436Y-145974311D01*
X114727478Y-145767093D01*
X114636094Y-145583568D01*
X114631446Y-145574233D01*
X114501612Y-145402307D01*
X114342400Y-145257167D01*
X114342395Y-145257163D01*
X114159232Y-145143753D01*
X114159233Y-145143753D01*
X114159227Y-145143750D01*
X114159226Y-145143750D01*
X114062900Y-145106433D01*
X113958332Y-145065923D01*
X113958333Y-145065923D01*
X113852443Y-145046129D01*
X113746556Y-145026335D01*
X113531114Y-145026335D01*
X113446404Y-145042170D01*
X113319336Y-145065923D01*
X113319329Y-145065925D01*
X113214767Y-145106433D01*
X113127136Y-145119247D01*
X113042623Y-145092770D01*
X112977967Y-145032246D01*
X112965475Y-145000000D01*
X162844475Y-145000000D01*
X162864552Y-145293511D01*
X162894480Y-145437532D01*
X162924408Y-145581555D01*
X163022929Y-145858767D01*
X163070576Y-145950720D01*
X163158278Y-146119976D01*
X163206883Y-146188834D01*
X163327929Y-146360318D01*
X163327938Y-146360330D01*
X163528740Y-146575335D01*
X163616605Y-146646819D01*
X163756949Y-146760997D01*
X163756949Y-146760998D01*
X164008319Y-146913860D01*
X164084204Y-146946821D01*
X164278159Y-147031067D01*
X164496439Y-147092226D01*
X164561430Y-147110436D01*
X164561434Y-147110436D01*
X164561445Y-147110440D01*
X164852902Y-147150500D01*
X164852906Y-147150500D01*
X165147094Y-147150500D01*
X165147098Y-147150500D01*
X165438555Y-147110440D01*
X165721841Y-147031067D01*
X165954760Y-146929896D01*
X165991680Y-146913860D01*
X165991681Y-146913860D01*
X166173264Y-146803436D01*
X166243049Y-146760999D01*
X166471260Y-146575335D01*
X166672065Y-146360326D01*
X166841722Y-146119976D01*
X166977072Y-145858764D01*
X167075592Y-145581554D01*
X167135448Y-145293511D01*
X167155525Y-145000000D01*
X167135448Y-144706489D01*
X167075592Y-144418446D01*
X166977072Y-144141236D01*
X166841722Y-143880024D01*
X166672065Y-143639674D01*
X166672063Y-143639672D01*
X166672061Y-143639669D01*
X166471259Y-143424664D01*
X166278573Y-143267902D01*
X166243050Y-143239001D01*
X165991680Y-143086139D01*
X165721846Y-142968935D01*
X165721844Y-142968934D01*
X165721841Y-142968933D01*
X165721834Y-142968931D01*
X165438569Y-142889563D01*
X165438556Y-142889560D01*
X165380263Y-142881548D01*
X165147098Y-142849500D01*
X164852902Y-142849500D01*
X164658597Y-142876206D01*
X164561443Y-142889560D01*
X164561430Y-142889563D01*
X164278165Y-142968931D01*
X164278153Y-142968935D01*
X164008319Y-143086139D01*
X164008318Y-143086139D01*
X163756949Y-143239001D01*
X163756949Y-143239002D01*
X163528740Y-143424664D01*
X163327938Y-143639669D01*
X163327929Y-143639681D01*
X163207786Y-143809887D01*
X163158278Y-143880024D01*
X163118560Y-143956675D01*
X163022929Y-144141232D01*
X162924408Y-144418444D01*
X162864552Y-144706489D01*
X162844475Y-145000000D01*
X112965475Y-145000000D01*
X112945975Y-144949663D01*
X112952982Y-144861378D01*
X112957322Y-144848977D01*
X112959707Y-144842817D01*
X112959711Y-144842810D01*
X113018669Y-144635592D01*
X113038548Y-144421068D01*
X113018669Y-144206544D01*
X112959711Y-143999326D01*
X112900306Y-143880024D01*
X112863679Y-143806466D01*
X112733845Y-143634540D01*
X112574633Y-143489400D01*
X112574628Y-143489396D01*
X112391465Y-143375986D01*
X112391466Y-143375986D01*
X112391460Y-143375983D01*
X112391459Y-143375983D01*
X112295133Y-143338666D01*
X112190565Y-143298156D01*
X112190566Y-143298156D01*
X112084676Y-143278362D01*
X111978789Y-143258568D01*
X111763347Y-143258568D01*
X111678637Y-143274403D01*
X111551569Y-143298156D01*
X111551562Y-143298158D01*
X111447000Y-143338666D01*
X111359369Y-143351480D01*
X111274856Y-143325003D01*
X111210200Y-143264479D01*
X111178208Y-143181896D01*
X111185215Y-143093611D01*
X111189555Y-143081210D01*
X111191940Y-143075050D01*
X111191944Y-143075043D01*
X111250902Y-142867825D01*
X111270781Y-142653301D01*
X111250902Y-142438777D01*
X111191944Y-142231559D01*
X111126435Y-142099999D01*
X139594722Y-142099999D01*
X139594722Y-142100000D01*
X139613763Y-142256819D01*
X139613763Y-142256821D01*
X139669777Y-142404518D01*
X139669779Y-142404520D01*
X139669780Y-142404523D01*
X139759517Y-142534530D01*
X139877760Y-142639283D01*
X140017635Y-142712696D01*
X140171015Y-142750500D01*
X140171017Y-142750500D01*
X140328983Y-142750500D01*
X140328985Y-142750500D01*
X140482365Y-142712696D01*
X140622240Y-142639283D01*
X140740483Y-142534530D01*
X140830220Y-142404523D01*
X140886237Y-142256818D01*
X140905278Y-142100000D01*
X140886237Y-141943182D01*
X140886236Y-141943179D01*
X140886236Y-141943178D01*
X140830222Y-141795481D01*
X140830221Y-141795479D01*
X140830220Y-141795477D01*
X140740483Y-141665470D01*
X140622240Y-141560717D01*
X140552302Y-141524010D01*
X140482366Y-141487304D01*
X140431238Y-141474702D01*
X140328985Y-141449500D01*
X140171015Y-141449500D01*
X140094325Y-141468402D01*
X140017633Y-141487304D01*
X139877760Y-141560717D01*
X139877756Y-141560720D01*
X139759518Y-141665468D01*
X139669780Y-141795477D01*
X139669777Y-141795481D01*
X139613763Y-141943178D01*
X139613763Y-141943180D01*
X139594722Y-142099999D01*
X111126435Y-142099999D01*
X111095913Y-142038702D01*
X111095912Y-142038699D01*
X110966078Y-141866773D01*
X110806866Y-141721633D01*
X110806861Y-141721629D01*
X110623698Y-141608219D01*
X110623699Y-141608219D01*
X110623693Y-141608216D01*
X110623692Y-141608216D01*
X110527366Y-141570899D01*
X110422798Y-141530389D01*
X110422799Y-141530389D01*
X110316909Y-141510595D01*
X110211022Y-141490801D01*
X109995580Y-141490801D01*
X109910870Y-141506636D01*
X109783802Y-141530389D01*
X109783795Y-141530391D01*
X109679233Y-141570899D01*
X109591602Y-141583713D01*
X109507089Y-141557236D01*
X109442433Y-141496712D01*
X109410441Y-141414129D01*
X109417448Y-141325844D01*
X109421788Y-141313443D01*
X109424173Y-141307283D01*
X109424177Y-141307276D01*
X109483135Y-141100058D01*
X109503014Y-140885534D01*
X109496015Y-140809999D01*
X114954722Y-140809999D01*
X114954722Y-140810000D01*
X114973763Y-140966819D01*
X114973763Y-140966821D01*
X115029777Y-141114518D01*
X115029779Y-141114520D01*
X115029780Y-141114523D01*
X115119517Y-141244530D01*
X115237760Y-141349283D01*
X115377635Y-141422696D01*
X115531015Y-141460500D01*
X115531017Y-141460500D01*
X115688983Y-141460500D01*
X115688985Y-141460500D01*
X115842365Y-141422696D01*
X115982240Y-141349283D01*
X116100483Y-141244530D01*
X116190220Y-141114523D01*
X116220566Y-141034508D01*
X116246236Y-140966821D01*
X116246236Y-140966820D01*
X116246237Y-140966818D01*
X116265278Y-140810000D01*
X116246237Y-140653182D01*
X116246236Y-140653179D01*
X116246236Y-140653178D01*
X116190222Y-140505481D01*
X116190221Y-140505479D01*
X116190220Y-140505477D01*
X116100483Y-140375470D01*
X116064032Y-140343178D01*
X115982486Y-140270935D01*
X115982240Y-140270717D01*
X115884240Y-140219282D01*
X115842366Y-140197304D01*
X115790489Y-140184518D01*
X115688985Y-140159500D01*
X115531015Y-140159500D01*
X115454325Y-140178402D01*
X115377633Y-140197304D01*
X115237760Y-140270717D01*
X115237756Y-140270720D01*
X115119518Y-140375468D01*
X115029780Y-140505477D01*
X115029777Y-140505481D01*
X114973763Y-140653178D01*
X114973763Y-140653180D01*
X114954722Y-140809999D01*
X109496015Y-140809999D01*
X109483135Y-140671010D01*
X109424177Y-140463792D01*
X109414930Y-140445221D01*
X109328145Y-140270932D01*
X109198311Y-140099006D01*
X109039099Y-139953866D01*
X109039094Y-139953862D01*
X108855931Y-139840452D01*
X108855932Y-139840452D01*
X108855926Y-139840449D01*
X108855925Y-139840449D01*
X108828951Y-139829999D01*
X113304722Y-139829999D01*
X113304722Y-139830000D01*
X113323763Y-139986819D01*
X113323763Y-139986821D01*
X113379777Y-140134518D01*
X113379779Y-140134520D01*
X113379780Y-140134523D01*
X113469517Y-140264530D01*
X113587760Y-140369283D01*
X113727635Y-140442696D01*
X113881015Y-140480500D01*
X113881017Y-140480500D01*
X114038983Y-140480500D01*
X114038985Y-140480500D01*
X114192365Y-140442696D01*
X114332240Y-140369283D01*
X114450483Y-140264530D01*
X114540220Y-140134523D01*
X114572086Y-140050500D01*
X114596236Y-139986821D01*
X114596236Y-139986820D01*
X114596237Y-139986818D01*
X114615278Y-139830000D01*
X114596237Y-139673182D01*
X114596236Y-139673179D01*
X114596236Y-139673178D01*
X114540222Y-139525481D01*
X114540221Y-139525479D01*
X114540220Y-139525477D01*
X114450483Y-139395470D01*
X114439363Y-139385619D01*
X114354819Y-139310720D01*
X114332240Y-139290717D01*
X114246030Y-139245470D01*
X114192366Y-139217304D01*
X114126508Y-139201072D01*
X114038985Y-139179500D01*
X113881015Y-139179500D01*
X113804325Y-139198402D01*
X113727633Y-139217304D01*
X113587760Y-139290717D01*
X113587756Y-139290720D01*
X113469518Y-139395468D01*
X113379780Y-139525477D01*
X113379777Y-139525481D01*
X113323763Y-139673178D01*
X113323763Y-139673180D01*
X113304722Y-139829999D01*
X108828951Y-139829999D01*
X108759599Y-139803132D01*
X108655031Y-139762622D01*
X108655032Y-139762622D01*
X108537850Y-139740717D01*
X108443255Y-139723034D01*
X108227813Y-139723034D01*
X108143103Y-139738869D01*
X108016035Y-139762622D01*
X108016028Y-139762624D01*
X107911466Y-139803132D01*
X107823835Y-139815946D01*
X107739322Y-139789469D01*
X107674666Y-139728945D01*
X107642674Y-139646362D01*
X107649681Y-139558077D01*
X107654021Y-139545676D01*
X107656406Y-139539516D01*
X107656410Y-139539509D01*
X107715368Y-139332291D01*
X107735247Y-139117767D01*
X107733181Y-139095477D01*
X107723871Y-138995000D01*
X107715368Y-138903243D01*
X107656410Y-138696025D01*
X107653409Y-138689999D01*
X120464722Y-138689999D01*
X120464722Y-138690000D01*
X120483763Y-138846819D01*
X120483763Y-138846821D01*
X120539777Y-138994518D01*
X120539779Y-138994520D01*
X120539780Y-138994523D01*
X120629517Y-139124530D01*
X120697075Y-139184381D01*
X120748636Y-139256387D01*
X120763848Y-139343634D01*
X120739699Y-139428841D01*
X120728889Y-139446379D01*
X120639782Y-139575472D01*
X120639777Y-139575481D01*
X120583763Y-139723178D01*
X120583763Y-139723180D01*
X120564722Y-139879999D01*
X120564722Y-139880000D01*
X120583763Y-140036819D01*
X120583763Y-140036821D01*
X120639777Y-140184518D01*
X120639779Y-140184520D01*
X120639780Y-140184523D01*
X120729517Y-140314530D01*
X120847760Y-140419283D01*
X120987635Y-140492696D01*
X121141015Y-140530500D01*
X121141017Y-140530500D01*
X121298983Y-140530500D01*
X121298985Y-140530500D01*
X121452365Y-140492696D01*
X121592240Y-140419283D01*
X121710483Y-140314530D01*
X121734318Y-140279999D01*
X124144722Y-140279999D01*
X124144722Y-140280000D01*
X124163763Y-140436819D01*
X124163763Y-140436821D01*
X124219777Y-140584518D01*
X124219779Y-140584520D01*
X124219780Y-140584523D01*
X124309517Y-140714530D01*
X124427760Y-140819283D01*
X124567635Y-140892696D01*
X124721015Y-140930500D01*
X124721017Y-140930500D01*
X124878983Y-140930500D01*
X124878985Y-140930500D01*
X125032365Y-140892696D01*
X125172240Y-140819283D01*
X125290483Y-140714530D01*
X125380220Y-140584523D01*
X125419671Y-140480500D01*
X125436236Y-140436821D01*
X125436236Y-140436820D01*
X125436237Y-140436818D01*
X125455278Y-140280000D01*
X125436237Y-140123182D01*
X125436236Y-140123179D01*
X125436236Y-140123178D01*
X125404690Y-140039999D01*
X127454722Y-140039999D01*
X127454722Y-140040000D01*
X127473763Y-140196819D01*
X127473763Y-140196821D01*
X127529777Y-140344518D01*
X127529779Y-140344520D01*
X127529780Y-140344523D01*
X127619517Y-140474530D01*
X127737760Y-140579283D01*
X127877635Y-140652696D01*
X128031015Y-140690500D01*
X128031017Y-140690500D01*
X128188983Y-140690500D01*
X128188985Y-140690500D01*
X128342365Y-140652696D01*
X128482240Y-140579283D01*
X128600483Y-140474530D01*
X128690220Y-140344523D01*
X128695538Y-140330500D01*
X128746236Y-140196821D01*
X128746236Y-140196820D01*
X128746237Y-140196818D01*
X128754895Y-140125513D01*
X128784866Y-140042175D01*
X128848028Y-139980094D01*
X128931871Y-139951566D01*
X128952444Y-139950500D01*
X129098983Y-139950500D01*
X129098985Y-139950500D01*
X129252365Y-139912696D01*
X129371823Y-139849999D01*
X131674722Y-139849999D01*
X131674722Y-139850000D01*
X131693763Y-140006819D01*
X131693763Y-140006821D01*
X131749777Y-140154518D01*
X131749779Y-140154520D01*
X131749780Y-140154523D01*
X131839517Y-140284530D01*
X131957760Y-140389283D01*
X132097635Y-140462696D01*
X132251015Y-140500500D01*
X132251017Y-140500500D01*
X132408983Y-140500500D01*
X132408985Y-140500500D01*
X132562365Y-140462696D01*
X132702240Y-140389283D01*
X132820483Y-140284530D01*
X132910220Y-140154523D01*
X132925387Y-140114530D01*
X132966236Y-140006821D01*
X132966236Y-140006820D01*
X132966237Y-140006818D01*
X132985278Y-139850000D01*
X132966237Y-139693182D01*
X132966236Y-139693179D01*
X132966236Y-139693178D01*
X132961238Y-139679999D01*
X135234722Y-139679999D01*
X135234722Y-139680000D01*
X135253763Y-139836819D01*
X135253763Y-139836821D01*
X135309777Y-139984518D01*
X135309779Y-139984520D01*
X135309780Y-139984523D01*
X135399517Y-140114530D01*
X135517760Y-140219283D01*
X135657635Y-140292696D01*
X135811015Y-140330500D01*
X135811017Y-140330500D01*
X135968983Y-140330500D01*
X135968985Y-140330500D01*
X136122365Y-140292696D01*
X136262240Y-140219283D01*
X136380483Y-140114530D01*
X136470220Y-139984523D01*
X136473651Y-139975477D01*
X136526236Y-139836821D01*
X136526236Y-139836820D01*
X136526237Y-139836818D01*
X136545278Y-139680000D01*
X136526237Y-139523182D01*
X136526236Y-139523179D01*
X136526236Y-139523178D01*
X136479520Y-139399999D01*
X141354722Y-139399999D01*
X141354722Y-139400000D01*
X141373763Y-139556819D01*
X141373763Y-139556821D01*
X141429777Y-139704518D01*
X141429779Y-139704520D01*
X141429780Y-139704523D01*
X141519517Y-139834530D01*
X141519518Y-139834531D01*
X141524881Y-139839282D01*
X141637760Y-139939283D01*
X141777635Y-140012696D01*
X141931015Y-140050500D01*
X141931017Y-140050500D01*
X142088983Y-140050500D01*
X142088985Y-140050500D01*
X142242365Y-140012696D01*
X142253565Y-140006818D01*
X142291669Y-139986819D01*
X142372520Y-139944384D01*
X142458128Y-139921708D01*
X142545100Y-139938422D01*
X142557468Y-139944378D01*
X142616721Y-139975477D01*
X142687630Y-140012694D01*
X142687632Y-140012694D01*
X142687635Y-140012696D01*
X142841015Y-140050500D01*
X142841017Y-140050500D01*
X142998983Y-140050500D01*
X142998985Y-140050500D01*
X143152365Y-140012696D01*
X143292240Y-139939283D01*
X143410483Y-139834530D01*
X143500220Y-139704523D01*
X143522278Y-139646362D01*
X143556236Y-139556821D01*
X143556236Y-139556820D01*
X143556237Y-139556818D01*
X143575278Y-139400000D01*
X143556237Y-139243182D01*
X143556236Y-139243179D01*
X143556236Y-139243178D01*
X143500222Y-139095481D01*
X143500221Y-139095479D01*
X143500220Y-139095477D01*
X143410483Y-138965470D01*
X143292240Y-138860717D01*
X143212722Y-138818982D01*
X143152366Y-138787304D01*
X143069248Y-138766818D01*
X142998985Y-138749500D01*
X142841015Y-138749500D01*
X142770752Y-138766818D01*
X142687633Y-138787304D01*
X142627278Y-138818982D01*
X142557479Y-138855615D01*
X142471871Y-138878291D01*
X142384899Y-138861577D01*
X142372531Y-138855621D01*
X142275173Y-138804523D01*
X142242366Y-138787304D01*
X142159248Y-138766818D01*
X142088985Y-138749500D01*
X141931015Y-138749500D01*
X141860752Y-138766818D01*
X141777633Y-138787304D01*
X141637760Y-138860717D01*
X141637756Y-138860720D01*
X141519518Y-138965468D01*
X141429780Y-139095477D01*
X141429777Y-139095481D01*
X141373763Y-139243178D01*
X141373763Y-139243180D01*
X141354722Y-139399999D01*
X136479520Y-139399999D01*
X136470222Y-139375481D01*
X136470221Y-139375479D01*
X136470220Y-139375477D01*
X136380483Y-139245470D01*
X136377900Y-139243182D01*
X136271908Y-139149282D01*
X136262240Y-139140717D01*
X136176051Y-139095481D01*
X136122366Y-139067304D01*
X136029965Y-139044530D01*
X135968985Y-139029500D01*
X135811015Y-139029500D01*
X135750035Y-139044530D01*
X135657633Y-139067304D01*
X135517760Y-139140717D01*
X135517756Y-139140720D01*
X135399518Y-139245468D01*
X135309780Y-139375477D01*
X135309777Y-139375481D01*
X135253763Y-139523178D01*
X135253763Y-139523180D01*
X135234722Y-139679999D01*
X132961238Y-139679999D01*
X132910222Y-139545481D01*
X132910221Y-139545479D01*
X132910220Y-139545477D01*
X132820483Y-139415470D01*
X132797907Y-139395470D01*
X132762774Y-139364345D01*
X132702240Y-139310717D01*
X132632302Y-139274010D01*
X132562366Y-139237304D01*
X132481220Y-139217304D01*
X132408985Y-139199500D01*
X132251015Y-139199500D01*
X132178780Y-139217304D01*
X132097633Y-139237304D01*
X131957760Y-139310717D01*
X131957756Y-139310720D01*
X131839518Y-139415468D01*
X131749780Y-139545477D01*
X131749777Y-139545481D01*
X131693763Y-139693178D01*
X131693763Y-139693180D01*
X131674722Y-139849999D01*
X129371823Y-139849999D01*
X129392240Y-139839283D01*
X129510483Y-139734530D01*
X129600220Y-139604523D01*
X129618312Y-139556818D01*
X129656236Y-139456821D01*
X129656236Y-139456820D01*
X129656237Y-139456818D01*
X129667465Y-139364344D01*
X129697436Y-139281007D01*
X129760597Y-139218926D01*
X129844440Y-139190397D01*
X129932358Y-139201072D01*
X129957494Y-139212125D01*
X129977635Y-139222696D01*
X130131015Y-139260500D01*
X130131017Y-139260500D01*
X130288983Y-139260500D01*
X130288985Y-139260500D01*
X130442365Y-139222696D01*
X130582240Y-139149283D01*
X130700483Y-139044530D01*
X130790220Y-138914523D01*
X130794498Y-138903243D01*
X130846236Y-138766821D01*
X130846236Y-138766820D01*
X130846237Y-138766818D01*
X130865278Y-138610000D01*
X130846237Y-138453182D01*
X130846236Y-138453179D01*
X130846236Y-138453178D01*
X130790222Y-138305481D01*
X130790221Y-138305479D01*
X130790220Y-138305477D01*
X130717414Y-138199999D01*
X162394722Y-138199999D01*
X162394722Y-138200000D01*
X162413763Y-138356819D01*
X162413763Y-138356821D01*
X162469777Y-138504518D01*
X162469779Y-138504520D01*
X162469780Y-138504523D01*
X162559517Y-138634530D01*
X162677760Y-138739283D01*
X162817635Y-138812696D01*
X162971015Y-138850500D01*
X162971017Y-138850500D01*
X163128984Y-138850500D01*
X163128985Y-138850500D01*
X163256861Y-138818981D01*
X163345409Y-138817453D01*
X163425853Y-138854496D01*
X163482259Y-138922774D01*
X163503453Y-139008764D01*
X163485239Y-139095434D01*
X163468258Y-139125242D01*
X163419781Y-139195473D01*
X163419777Y-139195481D01*
X163363763Y-139343178D01*
X163363763Y-139343180D01*
X163344722Y-139499999D01*
X163344722Y-139500000D01*
X163363763Y-139656819D01*
X163363763Y-139656821D01*
X163419777Y-139804518D01*
X163419779Y-139804521D01*
X163419780Y-139804523D01*
X163440492Y-139834530D01*
X163476679Y-139886956D01*
X163509508Y-139969210D01*
X163503397Y-140057563D01*
X163476679Y-140113044D01*
X163419779Y-140195478D01*
X163419777Y-140195481D01*
X163363763Y-140343178D01*
X163363763Y-140343180D01*
X163344722Y-140499999D01*
X163344722Y-140500000D01*
X163363763Y-140656819D01*
X163363763Y-140656821D01*
X163419777Y-140804518D01*
X163419779Y-140804520D01*
X163419780Y-140804523D01*
X163509517Y-140934530D01*
X163627760Y-141039283D01*
X163767635Y-141112696D01*
X163921015Y-141150500D01*
X163921017Y-141150500D01*
X164078983Y-141150500D01*
X164078985Y-141150500D01*
X164232365Y-141112696D01*
X164372240Y-141039283D01*
X164372248Y-141039275D01*
X164382147Y-141032444D01*
X164383572Y-141034508D01*
X164445722Y-141000503D01*
X164534166Y-140995913D01*
X164615844Y-141030152D01*
X164624284Y-141036883D01*
X164627754Y-141039278D01*
X164627760Y-141039283D01*
X164767635Y-141112696D01*
X164921015Y-141150500D01*
X164921017Y-141150500D01*
X165078983Y-141150500D01*
X165078985Y-141150500D01*
X165232365Y-141112696D01*
X165372240Y-141039283D01*
X165372248Y-141039275D01*
X165382147Y-141032444D01*
X165383572Y-141034508D01*
X165445722Y-141000503D01*
X165534166Y-140995913D01*
X165615844Y-141030152D01*
X165624284Y-141036883D01*
X165627754Y-141039278D01*
X165627760Y-141039283D01*
X165767635Y-141112696D01*
X165921015Y-141150500D01*
X165921017Y-141150500D01*
X166078983Y-141150500D01*
X166078985Y-141150500D01*
X166232365Y-141112696D01*
X166372240Y-141039283D01*
X166490483Y-140934530D01*
X166580220Y-140804523D01*
X166580222Y-140804518D01*
X166636236Y-140656821D01*
X166636236Y-140656820D01*
X166636237Y-140656818D01*
X166655278Y-140500000D01*
X166636237Y-140343182D01*
X166636236Y-140343179D01*
X166636236Y-140343178D01*
X166580222Y-140195481D01*
X166580220Y-140195478D01*
X166580220Y-140195477D01*
X166523320Y-140113043D01*
X166490492Y-140030791D01*
X166496602Y-139942439D01*
X166523321Y-139886956D01*
X166580220Y-139804523D01*
X166606406Y-139735477D01*
X166636236Y-139656821D01*
X166636236Y-139656820D01*
X166636237Y-139656818D01*
X166655278Y-139500000D01*
X166636237Y-139343182D01*
X166636236Y-139343179D01*
X166636236Y-139343178D01*
X166580222Y-139195481D01*
X166580221Y-139195479D01*
X166580220Y-139195477D01*
X166519869Y-139108044D01*
X166487041Y-139025791D01*
X166493151Y-138937438D01*
X166519870Y-138881955D01*
X166522399Y-138878291D01*
X166580220Y-138794523D01*
X166636237Y-138646818D01*
X166655278Y-138490000D01*
X166636237Y-138333182D01*
X166636236Y-138333179D01*
X166636236Y-138333178D01*
X166580222Y-138185481D01*
X166580221Y-138185479D01*
X166580220Y-138185477D01*
X166490483Y-138055470D01*
X166472456Y-138039500D01*
X166423160Y-137995828D01*
X166372240Y-137950717D01*
X166266998Y-137895481D01*
X166232366Y-137877304D01*
X166181238Y-137864702D01*
X166078985Y-137839500D01*
X165921015Y-137839500D01*
X165844325Y-137858402D01*
X165767633Y-137877304D01*
X165627760Y-137950717D01*
X165627751Y-137950723D01*
X165626208Y-137952091D01*
X165624099Y-137953244D01*
X165617853Y-137957556D01*
X165617404Y-137956906D01*
X165548510Y-137994593D01*
X165460065Y-137999174D01*
X165381208Y-137966907D01*
X165372244Y-137960720D01*
X165372242Y-137960719D01*
X165372240Y-137960717D01*
X165247945Y-137895481D01*
X165232366Y-137887304D01*
X165181238Y-137874702D01*
X165078985Y-137849500D01*
X164921015Y-137849500D01*
X164844325Y-137868402D01*
X164767633Y-137887304D01*
X164627760Y-137960717D01*
X164617853Y-137967556D01*
X164616429Y-137965493D01*
X164554256Y-137999502D01*
X164465811Y-138004082D01*
X164384138Y-137969834D01*
X164375710Y-137963113D01*
X164372243Y-137960720D01*
X164372240Y-137960717D01*
X164256519Y-137899981D01*
X164232366Y-137887304D01*
X164181238Y-137874702D01*
X164078985Y-137849500D01*
X163921015Y-137849500D01*
X163921013Y-137849500D01*
X163778743Y-137884565D01*
X163690193Y-137886093D01*
X163609750Y-137849048D01*
X163567351Y-137804395D01*
X163540483Y-137765470D01*
X163422240Y-137660717D01*
X163352302Y-137624010D01*
X163282366Y-137587304D01*
X163231238Y-137574702D01*
X163128985Y-137549500D01*
X162971015Y-137549500D01*
X162894325Y-137568402D01*
X162817633Y-137587304D01*
X162677760Y-137660717D01*
X162677756Y-137660720D01*
X162559518Y-137765468D01*
X162469780Y-137895477D01*
X162469777Y-137895481D01*
X162413763Y-138043178D01*
X162413763Y-138043180D01*
X162394722Y-138199999D01*
X130717414Y-138199999D01*
X130700483Y-138175470D01*
X130687873Y-138164299D01*
X130653185Y-138133568D01*
X130582240Y-138070717D01*
X130512302Y-138034010D01*
X130442366Y-137997304D01*
X130385998Y-137983411D01*
X130288985Y-137959500D01*
X130131015Y-137959500D01*
X130054325Y-137978402D01*
X129977633Y-137997304D01*
X129837760Y-138070717D01*
X129837756Y-138070720D01*
X129719518Y-138175468D01*
X129629780Y-138305477D01*
X129629777Y-138305481D01*
X129573763Y-138453178D01*
X129573763Y-138453179D01*
X129562534Y-138545656D01*
X129532562Y-138628994D01*
X129469400Y-138691074D01*
X129385557Y-138719602D01*
X129297639Y-138708926D01*
X129272505Y-138697874D01*
X129252366Y-138687304D01*
X129201238Y-138674702D01*
X129098985Y-138649500D01*
X128941015Y-138649500D01*
X128864325Y-138668402D01*
X128787633Y-138687304D01*
X128647760Y-138760717D01*
X128647756Y-138760720D01*
X128529518Y-138865468D01*
X128439780Y-138995477D01*
X128439777Y-138995481D01*
X128383763Y-139143178D01*
X128383763Y-139143180D01*
X128375105Y-139214487D01*
X128345134Y-139297825D01*
X128281972Y-139359906D01*
X128198129Y-139388434D01*
X128177556Y-139389500D01*
X128031015Y-139389500D01*
X127960752Y-139406818D01*
X127877633Y-139427304D01*
X127737760Y-139500717D01*
X127737756Y-139500720D01*
X127619518Y-139605468D01*
X127529780Y-139735477D01*
X127529777Y-139735481D01*
X127473763Y-139883178D01*
X127473763Y-139883180D01*
X127454722Y-140039999D01*
X125404690Y-140039999D01*
X125380222Y-139975481D01*
X125380221Y-139975479D01*
X125380220Y-139975477D01*
X125290483Y-139845470D01*
X125284815Y-139840449D01*
X125172243Y-139740720D01*
X125172240Y-139740717D01*
X125065188Y-139684531D01*
X125032366Y-139667304D01*
X124947398Y-139646362D01*
X124878985Y-139629500D01*
X124721015Y-139629500D01*
X124652602Y-139646362D01*
X124567633Y-139667304D01*
X124427760Y-139740717D01*
X124427756Y-139740720D01*
X124309518Y-139845468D01*
X124219780Y-139975477D01*
X124219777Y-139975481D01*
X124163763Y-140123178D01*
X124163763Y-140123180D01*
X124144722Y-140279999D01*
X121734318Y-140279999D01*
X121800220Y-140184523D01*
X121809710Y-140159500D01*
X121856236Y-140036821D01*
X121856236Y-140036820D01*
X121856237Y-140036818D01*
X121875278Y-139880000D01*
X121856237Y-139723182D01*
X121856236Y-139723179D01*
X121856236Y-139723178D01*
X121800222Y-139575481D01*
X121800221Y-139575479D01*
X121800220Y-139575477D01*
X121710483Y-139445470D01*
X121642923Y-139385617D01*
X121591363Y-139313612D01*
X121580272Y-139249999D01*
X122774722Y-139249999D01*
X122774722Y-139250000D01*
X122793763Y-139406819D01*
X122793763Y-139406821D01*
X122849777Y-139554518D01*
X122849779Y-139554520D01*
X122849780Y-139554523D01*
X122939517Y-139684530D01*
X123057760Y-139789283D01*
X123197635Y-139862696D01*
X123351015Y-139900500D01*
X123351017Y-139900500D01*
X123508983Y-139900500D01*
X123508985Y-139900500D01*
X123662365Y-139862696D01*
X123802240Y-139789283D01*
X123920483Y-139684530D01*
X124010220Y-139554523D01*
X124015914Y-139539509D01*
X124066236Y-139406821D01*
X124066236Y-139406820D01*
X124066237Y-139406818D01*
X124085278Y-139250000D01*
X124066237Y-139093182D01*
X124066236Y-139093179D01*
X124066236Y-139093178D01*
X124010222Y-138945481D01*
X124010221Y-138945479D01*
X124010220Y-138945477D01*
X123920483Y-138815470D01*
X123896838Y-138794523D01*
X123846017Y-138749500D01*
X123802240Y-138710717D01*
X123732302Y-138674010D01*
X123662366Y-138637304D01*
X123611238Y-138624702D01*
X123508985Y-138599500D01*
X123351015Y-138599500D01*
X123274325Y-138618402D01*
X123197633Y-138637304D01*
X123057760Y-138710717D01*
X123057756Y-138710720D01*
X122939518Y-138815468D01*
X122849780Y-138945477D01*
X122849777Y-138945481D01*
X122793763Y-139093178D01*
X122793763Y-139093180D01*
X122774722Y-139249999D01*
X121580272Y-139249999D01*
X121576151Y-139226365D01*
X121600300Y-139141158D01*
X121611098Y-139123638D01*
X121700220Y-138994523D01*
X121718821Y-138945477D01*
X121756236Y-138846821D01*
X121756236Y-138846820D01*
X121756237Y-138846818D01*
X121775278Y-138690000D01*
X121756237Y-138533182D01*
X121756236Y-138533179D01*
X121756236Y-138533178D01*
X121700222Y-138385481D01*
X121700221Y-138385479D01*
X121700220Y-138385477D01*
X121610483Y-138255470D01*
X121492240Y-138150717D01*
X121422302Y-138114010D01*
X121352366Y-138077304D01*
X121301238Y-138064702D01*
X121198985Y-138039500D01*
X121041015Y-138039500D01*
X120976229Y-138055468D01*
X120887633Y-138077304D01*
X120747760Y-138150717D01*
X120747756Y-138150720D01*
X120629518Y-138255468D01*
X120539780Y-138385477D01*
X120539777Y-138385481D01*
X120483763Y-138533178D01*
X120483763Y-138533180D01*
X120464722Y-138689999D01*
X107653409Y-138689999D01*
X107652067Y-138687304D01*
X107560378Y-138503165D01*
X107430544Y-138331239D01*
X107271332Y-138186099D01*
X107271327Y-138186095D01*
X107088164Y-138072685D01*
X107088165Y-138072685D01*
X107088159Y-138072682D01*
X107088158Y-138072682D01*
X106911081Y-138004082D01*
X106887264Y-137994855D01*
X106887265Y-137994855D01*
X106781375Y-137975061D01*
X106675488Y-137955267D01*
X106460046Y-137955267D01*
X106401480Y-137966215D01*
X106248267Y-137994855D01*
X106245255Y-137995713D01*
X106243064Y-137995828D01*
X106239227Y-137996546D01*
X106239131Y-137996036D01*
X106156814Y-138000381D01*
X106075107Y-137966215D01*
X106016315Y-137899981D01*
X105992084Y-137814797D01*
X105998588Y-137752801D01*
X106039531Y-137600000D01*
X105088816Y-137600000D01*
X105104876Y-137583940D01*
X105155036Y-137497061D01*
X105181000Y-137400160D01*
X105181000Y-137299840D01*
X105155036Y-137202939D01*
X105104876Y-137116060D01*
X105088816Y-137100000D01*
X106039531Y-137100000D01*
X106039531Y-137099999D01*
X105990423Y-136916726D01*
X105897099Y-136716590D01*
X105897098Y-136716589D01*
X105770444Y-136535707D01*
X105770442Y-136535705D01*
X105614295Y-136379557D01*
X105433417Y-136252905D01*
X105433411Y-136252901D01*
X105233278Y-136159578D01*
X105050000Y-136110468D01*
X105050000Y-137061184D01*
X105033940Y-137045124D01*
X104947061Y-136994964D01*
X104850160Y-136969000D01*
X104749840Y-136969000D01*
X104652939Y-136994964D01*
X104566060Y-137045124D01*
X104550000Y-137061184D01*
X104550000Y-136110468D01*
X104549999Y-136110468D01*
X104366721Y-136159578D01*
X104366717Y-136159580D01*
X104166591Y-136252900D01*
X104166589Y-136252901D01*
X103985707Y-136379555D01*
X103985699Y-136379562D01*
X103829562Y-136535699D01*
X103829555Y-136535707D01*
X103702901Y-136716589D01*
X103702900Y-136716590D01*
X103609576Y-136916726D01*
X103560468Y-137099999D01*
X101000500Y-137099999D01*
X101000500Y-135539999D01*
X115064722Y-135539999D01*
X115064722Y-135540000D01*
X115083763Y-135696819D01*
X115083763Y-135696821D01*
X115139777Y-135844518D01*
X115139779Y-135844520D01*
X115139780Y-135844523D01*
X115229517Y-135974530D01*
X115347760Y-136079283D01*
X115487635Y-136152696D01*
X115641015Y-136190500D01*
X115641017Y-136190500D01*
X115798983Y-136190500D01*
X115798985Y-136190500D01*
X115952365Y-136152696D01*
X116092240Y-136079283D01*
X116210483Y-135974530D01*
X116300220Y-135844523D01*
X116300222Y-135844518D01*
X116356236Y-135696821D01*
X116356236Y-135696820D01*
X116356237Y-135696818D01*
X116375278Y-135540000D01*
X116366778Y-135469999D01*
X124384722Y-135469999D01*
X124384722Y-135470000D01*
X124403763Y-135626819D01*
X124403763Y-135626821D01*
X124459777Y-135774518D01*
X124459779Y-135774520D01*
X124459780Y-135774523D01*
X124549517Y-135904530D01*
X124667760Y-136009283D01*
X124807635Y-136082696D01*
X124961015Y-136120500D01*
X124961017Y-136120500D01*
X125118983Y-136120500D01*
X125118985Y-136120500D01*
X125272365Y-136082696D01*
X125412240Y-136009283D01*
X125530483Y-135904530D01*
X125620220Y-135774523D01*
X125620222Y-135774518D01*
X125676236Y-135626821D01*
X125676236Y-135626820D01*
X125676237Y-135626818D01*
X125695278Y-135470000D01*
X125681922Y-135359999D01*
X127804722Y-135359999D01*
X127804722Y-135360000D01*
X127823763Y-135516819D01*
X127823763Y-135516821D01*
X127879777Y-135664518D01*
X127879779Y-135664520D01*
X127879780Y-135664523D01*
X127969517Y-135794530D01*
X128087760Y-135899283D01*
X128227635Y-135972696D01*
X128381015Y-136010500D01*
X128381017Y-136010500D01*
X128538983Y-136010500D01*
X128538985Y-136010500D01*
X128692365Y-135972696D01*
X128832240Y-135899283D01*
X128950483Y-135794530D01*
X129040220Y-135664523D01*
X129040222Y-135664518D01*
X129096236Y-135516821D01*
X129096236Y-135516820D01*
X129096237Y-135516818D01*
X129115278Y-135360000D01*
X129096237Y-135203182D01*
X129096236Y-135203179D01*
X129096236Y-135203178D01*
X129040222Y-135055481D01*
X129040221Y-135055479D01*
X129040220Y-135055477D01*
X128950483Y-134925470D01*
X128832240Y-134820717D01*
X128762302Y-134784010D01*
X128692366Y-134747304D01*
X128641238Y-134734702D01*
X128538985Y-134709500D01*
X128381015Y-134709500D01*
X128304325Y-134728402D01*
X128227633Y-134747304D01*
X128087760Y-134820717D01*
X128087756Y-134820720D01*
X127969518Y-134925468D01*
X127879780Y-135055477D01*
X127879777Y-135055481D01*
X127823763Y-135203178D01*
X127823763Y-135203180D01*
X127804722Y-135359999D01*
X125681922Y-135359999D01*
X125676237Y-135313182D01*
X125676236Y-135313179D01*
X125676236Y-135313178D01*
X125620222Y-135165481D01*
X125620221Y-135165479D01*
X125620220Y-135165477D01*
X125530483Y-135035470D01*
X125412240Y-134930717D01*
X125333709Y-134889500D01*
X125272366Y-134857304D01*
X125221238Y-134844702D01*
X125118985Y-134819500D01*
X124961015Y-134819500D01*
X124884325Y-134838402D01*
X124807633Y-134857304D01*
X124667760Y-134930717D01*
X124667756Y-134930720D01*
X124549518Y-135035468D01*
X124459780Y-135165477D01*
X124459777Y-135165481D01*
X124403763Y-135313178D01*
X124403763Y-135313180D01*
X124384722Y-135469999D01*
X116366778Y-135469999D01*
X116356237Y-135383182D01*
X116356236Y-135383179D01*
X116356236Y-135383178D01*
X116300222Y-135235481D01*
X116300221Y-135235479D01*
X116300220Y-135235477D01*
X116210483Y-135105470D01*
X116092240Y-135000717D01*
X116022302Y-134964010D01*
X115952366Y-134927304D01*
X115901238Y-134914702D01*
X115798985Y-134889500D01*
X115641015Y-134889500D01*
X115564325Y-134908402D01*
X115487633Y-134927304D01*
X115347760Y-135000717D01*
X115347756Y-135000720D01*
X115229518Y-135105468D01*
X115139780Y-135235477D01*
X115139777Y-135235481D01*
X115083763Y-135383178D01*
X115083763Y-135383180D01*
X115064722Y-135539999D01*
X101000500Y-135539999D01*
X101000500Y-134319999D01*
X129504722Y-134319999D01*
X129504722Y-134320000D01*
X129523763Y-134476819D01*
X129523763Y-134476821D01*
X129579777Y-134624518D01*
X129579779Y-134624520D01*
X129579780Y-134624523D01*
X129669517Y-134754530D01*
X129787760Y-134859283D01*
X129927635Y-134932696D01*
X130081015Y-134970500D01*
X130081017Y-134970500D01*
X130238983Y-134970500D01*
X130238985Y-134970500D01*
X130392365Y-134932696D01*
X130532240Y-134859283D01*
X130650483Y-134754530D01*
X130740220Y-134624523D01*
X130796237Y-134476818D01*
X130815278Y-134320000D01*
X130796237Y-134163182D01*
X130796236Y-134163179D01*
X130796236Y-134163178D01*
X130740222Y-134015481D01*
X130740221Y-134015479D01*
X130740220Y-134015477D01*
X130650483Y-133885470D01*
X130532240Y-133780717D01*
X130462302Y-133744010D01*
X130392366Y-133707304D01*
X130341238Y-133694702D01*
X130238985Y-133669500D01*
X130081015Y-133669500D01*
X130004325Y-133688402D01*
X129927633Y-133707304D01*
X129787760Y-133780717D01*
X129787756Y-133780720D01*
X129669518Y-133885468D01*
X129579780Y-134015477D01*
X129579777Y-134015481D01*
X129523763Y-134163178D01*
X129523763Y-134163180D01*
X129504722Y-134319999D01*
X101000500Y-134319999D01*
X101000500Y-132689999D01*
X123984722Y-132689999D01*
X123984722Y-132690000D01*
X124003763Y-132846819D01*
X124003763Y-132846821D01*
X124059777Y-132994518D01*
X124059779Y-132994520D01*
X124059780Y-132994523D01*
X124149517Y-133124530D01*
X124267760Y-133229283D01*
X124407635Y-133302696D01*
X124561015Y-133340500D01*
X124561017Y-133340500D01*
X124718983Y-133340500D01*
X124718985Y-133340500D01*
X124872365Y-133302696D01*
X125012240Y-133229283D01*
X125130483Y-133124530D01*
X125220220Y-132994523D01*
X125220222Y-132994518D01*
X125276236Y-132846821D01*
X125276236Y-132846820D01*
X125276237Y-132846818D01*
X125287323Y-132755513D01*
X125317294Y-132672176D01*
X125380455Y-132610095D01*
X125464298Y-132581566D01*
X125484872Y-132580500D01*
X125538983Y-132580500D01*
X125538985Y-132580500D01*
X125692365Y-132542696D01*
X125832240Y-132469283D01*
X125950483Y-132364530D01*
X126040220Y-132234523D01*
X126079861Y-132129999D01*
X126096236Y-132086821D01*
X126096236Y-132086820D01*
X126096237Y-132086818D01*
X126115278Y-131930000D01*
X126101922Y-131819999D01*
X134174722Y-131819999D01*
X134174722Y-131820000D01*
X134193763Y-131976819D01*
X134193763Y-131976821D01*
X134249777Y-132124518D01*
X134249779Y-132124520D01*
X134249780Y-132124523D01*
X134339517Y-132254530D01*
X134457760Y-132359283D01*
X134597635Y-132432696D01*
X134751015Y-132470500D01*
X134751017Y-132470500D01*
X134908983Y-132470500D01*
X134908985Y-132470500D01*
X135062365Y-132432696D01*
X135202240Y-132359283D01*
X135320483Y-132254530D01*
X135406440Y-132129999D01*
X149934722Y-132129999D01*
X149934722Y-132130000D01*
X149953763Y-132286819D01*
X149953763Y-132286821D01*
X150009777Y-132434518D01*
X150009779Y-132434520D01*
X150009780Y-132434523D01*
X150099517Y-132564530D01*
X150217760Y-132669283D01*
X150357635Y-132742696D01*
X150511015Y-132780500D01*
X150511017Y-132780500D01*
X150668983Y-132780500D01*
X150668985Y-132780500D01*
X150822365Y-132742696D01*
X150962240Y-132669283D01*
X151080483Y-132564530D01*
X151170220Y-132434523D01*
X151188821Y-132385477D01*
X151226236Y-132286821D01*
X151226236Y-132286820D01*
X151226237Y-132286818D01*
X151245278Y-132130000D01*
X151241635Y-132099999D01*
X163882520Y-132099999D01*
X163882520Y-132100000D01*
X163902398Y-132314520D01*
X163902399Y-132314523D01*
X163961356Y-132521741D01*
X164057388Y-132714601D01*
X164187222Y-132886527D01*
X164305683Y-132994518D01*
X164346436Y-133031669D01*
X164346438Y-133031670D01*
X164346439Y-133031671D01*
X164529602Y-133145081D01*
X164529601Y-133145081D01*
X164529605Y-133145082D01*
X164529609Y-133145085D01*
X164730504Y-133222912D01*
X164942279Y-133262500D01*
X164942281Y-133262500D01*
X165157719Y-133262500D01*
X165157721Y-133262500D01*
X165369496Y-133222912D01*
X165570391Y-133145085D01*
X165570396Y-133145081D01*
X165570398Y-133145081D01*
X165645888Y-133098339D01*
X165753564Y-133031669D01*
X165912778Y-132886526D01*
X165992846Y-132780500D01*
X166042611Y-132714601D01*
X166063736Y-132672176D01*
X166138643Y-132521742D01*
X166197601Y-132314524D01*
X166217480Y-132100000D01*
X166216258Y-132086818D01*
X166208260Y-132000500D01*
X166197601Y-131885476D01*
X166138643Y-131678258D01*
X166105997Y-131612695D01*
X166042611Y-131485398D01*
X165912777Y-131313472D01*
X165753565Y-131168332D01*
X165753560Y-131168328D01*
X165570397Y-131054918D01*
X165570398Y-131054918D01*
X165570392Y-131054915D01*
X165570391Y-131054915D01*
X165428639Y-131000000D01*
X165369497Y-130977088D01*
X165369498Y-130977088D01*
X165263608Y-130957294D01*
X165157721Y-130937500D01*
X164942279Y-130937500D01*
X164857569Y-130953335D01*
X164730501Y-130977088D01*
X164529601Y-131054918D01*
X164346439Y-131168328D01*
X164346434Y-131168332D01*
X164187222Y-131313472D01*
X164057388Y-131485398D01*
X163961356Y-131678258D01*
X163902399Y-131885476D01*
X163902398Y-131885479D01*
X163882520Y-132099999D01*
X151241635Y-132099999D01*
X151226237Y-131973182D01*
X151226236Y-131973179D01*
X151226236Y-131973178D01*
X151170222Y-131825481D01*
X151170221Y-131825479D01*
X151170220Y-131825477D01*
X151080483Y-131695470D01*
X151061054Y-131678258D01*
X150962243Y-131590720D01*
X150962240Y-131590717D01*
X150864240Y-131539282D01*
X150822366Y-131517304D01*
X150771238Y-131504702D01*
X150668985Y-131479500D01*
X150511015Y-131479500D01*
X150446229Y-131495468D01*
X150357633Y-131517304D01*
X150217760Y-131590717D01*
X150217756Y-131590720D01*
X150099518Y-131695468D01*
X150009780Y-131825477D01*
X150009777Y-131825481D01*
X149953763Y-131973178D01*
X149953763Y-131973180D01*
X149934722Y-132129999D01*
X135406440Y-132129999D01*
X135410220Y-132124523D01*
X135419521Y-132099999D01*
X135466236Y-131976821D01*
X135466236Y-131976820D01*
X135466237Y-131976818D01*
X135485278Y-131820000D01*
X135466237Y-131663182D01*
X135466236Y-131663179D01*
X135466236Y-131663178D01*
X135410222Y-131515481D01*
X135410221Y-131515479D01*
X135410220Y-131515477D01*
X135320483Y-131385470D01*
X135202240Y-131280717D01*
X135095171Y-131224522D01*
X135062366Y-131207304D01*
X135011238Y-131194702D01*
X134908985Y-131169500D01*
X134751015Y-131169500D01*
X134674325Y-131188402D01*
X134597633Y-131207304D01*
X134457760Y-131280717D01*
X134457756Y-131280720D01*
X134339518Y-131385468D01*
X134249780Y-131515477D01*
X134249777Y-131515481D01*
X134193763Y-131663178D01*
X134193763Y-131663180D01*
X134174722Y-131819999D01*
X126101922Y-131819999D01*
X126096237Y-131773182D01*
X126096236Y-131773179D01*
X126096236Y-131773178D01*
X126040222Y-131625481D01*
X126040221Y-131625479D01*
X126040220Y-131625477D01*
X125950483Y-131495470D01*
X125939117Y-131485401D01*
X125832243Y-131390720D01*
X125832240Y-131390717D01*
X125754659Y-131349999D01*
X125692366Y-131317304D01*
X125640489Y-131304518D01*
X125538985Y-131279500D01*
X125381015Y-131279500D01*
X125304325Y-131298402D01*
X125227633Y-131317304D01*
X125087760Y-131390717D01*
X125087756Y-131390720D01*
X124969518Y-131495468D01*
X124879780Y-131625477D01*
X124879777Y-131625481D01*
X124823763Y-131773178D01*
X124823763Y-131773180D01*
X124812677Y-131864486D01*
X124782706Y-131947824D01*
X124719545Y-132009905D01*
X124635702Y-132038434D01*
X124615128Y-132039500D01*
X124561015Y-132039500D01*
X124484325Y-132058402D01*
X124407633Y-132077304D01*
X124267760Y-132150717D01*
X124267756Y-132150720D01*
X124149518Y-132255468D01*
X124059780Y-132385477D01*
X124059777Y-132385481D01*
X124003763Y-132533178D01*
X124003763Y-132533180D01*
X123984722Y-132689999D01*
X101000500Y-132689999D01*
X101000500Y-131349999D01*
X119884722Y-131349999D01*
X119884722Y-131350000D01*
X119903763Y-131506819D01*
X119903763Y-131506821D01*
X119959777Y-131654518D01*
X119959779Y-131654520D01*
X119959780Y-131654523D01*
X120049517Y-131784530D01*
X120167760Y-131889283D01*
X120307635Y-131962696D01*
X120461015Y-132000500D01*
X120461017Y-132000500D01*
X120618983Y-132000500D01*
X120618985Y-132000500D01*
X120772365Y-131962696D01*
X120912240Y-131889283D01*
X121030483Y-131784530D01*
X121120220Y-131654523D01*
X121176237Y-131506818D01*
X121185587Y-131429806D01*
X121215557Y-131346471D01*
X121278719Y-131284390D01*
X121362561Y-131255861D01*
X121430758Y-131260577D01*
X121471015Y-131270500D01*
X121471016Y-131270500D01*
X121628983Y-131270500D01*
X121628985Y-131270500D01*
X121782365Y-131232696D01*
X121922240Y-131159283D01*
X122040483Y-131054530D01*
X122130220Y-130924523D01*
X122131936Y-130919999D01*
X127884722Y-130919999D01*
X127884722Y-130920000D01*
X127903763Y-131076819D01*
X127903763Y-131076821D01*
X127959777Y-131224518D01*
X127959779Y-131224520D01*
X127959780Y-131224523D01*
X128049517Y-131354530D01*
X128167760Y-131459283D01*
X128307635Y-131532696D01*
X128461015Y-131570500D01*
X128461017Y-131570500D01*
X128618983Y-131570500D01*
X128618985Y-131570500D01*
X128772365Y-131532696D01*
X128912240Y-131459283D01*
X129030483Y-131354530D01*
X129120220Y-131224523D01*
X129132108Y-131193178D01*
X129176236Y-131076821D01*
X129176236Y-131076820D01*
X129176237Y-131076818D01*
X129185564Y-130999999D01*
X158804722Y-130999999D01*
X158804722Y-131000000D01*
X158823763Y-131156819D01*
X158823763Y-131156821D01*
X158879777Y-131304518D01*
X158879779Y-131304520D01*
X158879780Y-131304523D01*
X158969517Y-131434530D01*
X159087760Y-131539283D01*
X159227635Y-131612696D01*
X159381015Y-131650500D01*
X159381017Y-131650500D01*
X159538983Y-131650500D01*
X159538985Y-131650500D01*
X159692365Y-131612696D01*
X159832240Y-131539283D01*
X159950483Y-131434530D01*
X160040220Y-131304523D01*
X160040222Y-131304518D01*
X160096236Y-131156821D01*
X160096236Y-131156820D01*
X160096237Y-131156818D01*
X160115278Y-131000000D01*
X160096237Y-130843182D01*
X160096236Y-130843179D01*
X160096236Y-130843178D01*
X160040222Y-130695481D01*
X160040221Y-130695479D01*
X160040220Y-130695477D01*
X159950483Y-130565470D01*
X159832240Y-130460717D01*
X159762302Y-130424010D01*
X159692366Y-130387304D01*
X159641238Y-130374702D01*
X159538985Y-130349500D01*
X159381015Y-130349500D01*
X159304325Y-130368402D01*
X159227633Y-130387304D01*
X159087760Y-130460717D01*
X159087756Y-130460720D01*
X158969518Y-130565468D01*
X158879780Y-130695477D01*
X158879777Y-130695481D01*
X158823763Y-130843178D01*
X158823763Y-130843180D01*
X158804722Y-130999999D01*
X129185564Y-130999999D01*
X129195278Y-130920000D01*
X129176237Y-130763182D01*
X129176236Y-130763179D01*
X129176236Y-130763178D01*
X129120222Y-130615481D01*
X129120221Y-130615479D01*
X129120220Y-130615477D01*
X129030483Y-130485470D01*
X129005321Y-130463179D01*
X128912243Y-130380720D01*
X128912240Y-130380717D01*
X128842302Y-130344010D01*
X128772366Y-130307304D01*
X128721238Y-130294702D01*
X128618985Y-130269500D01*
X128461015Y-130269500D01*
X128384325Y-130288402D01*
X128307633Y-130307304D01*
X128167760Y-130380717D01*
X128167756Y-130380720D01*
X128049518Y-130485468D01*
X127959780Y-130615477D01*
X127959777Y-130615481D01*
X127903763Y-130763178D01*
X127903763Y-130763180D01*
X127884722Y-130919999D01*
X122131936Y-130919999D01*
X122186237Y-130776818D01*
X122205278Y-130620000D01*
X122186237Y-130463182D01*
X122186236Y-130463179D01*
X122186236Y-130463178D01*
X122130222Y-130315481D01*
X122130221Y-130315479D01*
X122130220Y-130315477D01*
X122040483Y-130185470D01*
X121922240Y-130080717D01*
X121852302Y-130044010D01*
X121782366Y-130007304D01*
X121731238Y-129994702D01*
X121628985Y-129969500D01*
X121471015Y-129969500D01*
X121394325Y-129988402D01*
X121317633Y-130007304D01*
X121177760Y-130080717D01*
X121177756Y-130080720D01*
X121059518Y-130185468D01*
X120969780Y-130315477D01*
X120969777Y-130315481D01*
X120913763Y-130463178D01*
X120913763Y-130463179D01*
X120904412Y-130540192D01*
X120874440Y-130623530D01*
X120811278Y-130685610D01*
X120727435Y-130714138D01*
X120659241Y-130709422D01*
X120657740Y-130709052D01*
X120618985Y-130699500D01*
X120461015Y-130699500D01*
X120384325Y-130718402D01*
X120307633Y-130737304D01*
X120167760Y-130810717D01*
X120167756Y-130810720D01*
X120049518Y-130915468D01*
X119959780Y-131045477D01*
X119959777Y-131045481D01*
X119903763Y-131193178D01*
X119903763Y-131193180D01*
X119884722Y-131349999D01*
X101000500Y-131349999D01*
X101000500Y-129336998D01*
X101020207Y-129250655D01*
X101075426Y-129181414D01*
X101155218Y-129142987D01*
X101243782Y-129142987D01*
X101323574Y-129181414D01*
X101378793Y-129250655D01*
X101383353Y-129260845D01*
X101384104Y-129262660D01*
X101384106Y-129262666D01*
X101440991Y-129399999D01*
X101451988Y-129426550D01*
X101550535Y-129574034D01*
X101550541Y-129574041D01*
X101675958Y-129699458D01*
X101675965Y-129699464D01*
X101823449Y-129798011D01*
X101823451Y-129798012D01*
X101823453Y-129798013D01*
X101987334Y-129865894D01*
X102161309Y-129900500D01*
X102161310Y-129900500D01*
X103138690Y-129900500D01*
X103138691Y-129900500D01*
X103312666Y-129865894D01*
X103476547Y-129798013D01*
X103624035Y-129699464D01*
X103749464Y-129574035D01*
X103848013Y-129426547D01*
X103915894Y-129262666D01*
X103950500Y-129088691D01*
X103950500Y-128911309D01*
X105379500Y-128911309D01*
X105379500Y-129088690D01*
X105414104Y-129262660D01*
X105481988Y-129426550D01*
X105580535Y-129574034D01*
X105580541Y-129574041D01*
X105705958Y-129699458D01*
X105705965Y-129699464D01*
X105853449Y-129798011D01*
X105853451Y-129798012D01*
X105853453Y-129798013D01*
X106017334Y-129865894D01*
X106191309Y-129900500D01*
X106191310Y-129900500D01*
X107468690Y-129900500D01*
X107468691Y-129900500D01*
X107642666Y-129865894D01*
X107806547Y-129798013D01*
X107954035Y-129699464D01*
X108079464Y-129574035D01*
X108178013Y-129426547D01*
X108189009Y-129399999D01*
X151354722Y-129399999D01*
X151354722Y-129400000D01*
X151373763Y-129556819D01*
X151373763Y-129556821D01*
X151429777Y-129704518D01*
X151429779Y-129704520D01*
X151429780Y-129704523D01*
X151519517Y-129834530D01*
X151637760Y-129939283D01*
X151777635Y-130012696D01*
X151931015Y-130050500D01*
X151931017Y-130050500D01*
X152088983Y-130050500D01*
X152088985Y-130050500D01*
X152242365Y-130012696D01*
X152382240Y-129939283D01*
X152500483Y-129834530D01*
X152590220Y-129704523D01*
X152639705Y-129574041D01*
X152646236Y-129556821D01*
X152646236Y-129556820D01*
X152646237Y-129556818D01*
X152665278Y-129400000D01*
X152646237Y-129243182D01*
X152646236Y-129243179D01*
X152646236Y-129243178D01*
X152590222Y-129095481D01*
X152590221Y-129095479D01*
X152590220Y-129095477D01*
X152500483Y-128965470D01*
X152437868Y-128909999D01*
X162044722Y-128909999D01*
X162044722Y-128910000D01*
X162063763Y-129066819D01*
X162063763Y-129066821D01*
X162119777Y-129214518D01*
X162119779Y-129214520D01*
X162119780Y-129214523D01*
X162209517Y-129344530D01*
X162327760Y-129449283D01*
X162467635Y-129522696D01*
X162621015Y-129560500D01*
X162621017Y-129560500D01*
X162778983Y-129560500D01*
X162778985Y-129560500D01*
X162932365Y-129522696D01*
X163072240Y-129449283D01*
X163190483Y-129344530D01*
X163280220Y-129214523D01*
X163336237Y-129066818D01*
X163355278Y-128910000D01*
X163336237Y-128753182D01*
X163336236Y-128753179D01*
X163336236Y-128753178D01*
X163280222Y-128605481D01*
X163280221Y-128605479D01*
X163280220Y-128605477D01*
X163190483Y-128475470D01*
X163184307Y-128469999D01*
X163134595Y-128425958D01*
X163072240Y-128370717D01*
X162962614Y-128313180D01*
X162932366Y-128297304D01*
X162881238Y-128284702D01*
X162778985Y-128259500D01*
X162621015Y-128259500D01*
X162544325Y-128278402D01*
X162467633Y-128297304D01*
X162327760Y-128370717D01*
X162327756Y-128370720D01*
X162209518Y-128475468D01*
X162119780Y-128605477D01*
X162119777Y-128605481D01*
X162063763Y-128753178D01*
X162063763Y-128753180D01*
X162044722Y-128909999D01*
X152437868Y-128909999D01*
X152382240Y-128860717D01*
X152288243Y-128811383D01*
X152242366Y-128787304D01*
X152190489Y-128774518D01*
X152088985Y-128749500D01*
X151931015Y-128749500D01*
X151854325Y-128768402D01*
X151777633Y-128787304D01*
X151637760Y-128860717D01*
X151637756Y-128860720D01*
X151519518Y-128965468D01*
X151429780Y-129095477D01*
X151429777Y-129095481D01*
X151373763Y-129243178D01*
X151373763Y-129243180D01*
X151354722Y-129399999D01*
X108189009Y-129399999D01*
X108245894Y-129262666D01*
X108280500Y-129088691D01*
X108280500Y-128911309D01*
X108245894Y-128737334D01*
X108178013Y-128573453D01*
X108178011Y-128573450D01*
X108178011Y-128573449D01*
X108108887Y-128469999D01*
X126834722Y-128469999D01*
X126834722Y-128470000D01*
X126853763Y-128626819D01*
X126853763Y-128626821D01*
X126909777Y-128774518D01*
X126909779Y-128774520D01*
X126909780Y-128774523D01*
X126999517Y-128904530D01*
X127117760Y-129009283D01*
X127257635Y-129082696D01*
X127411015Y-129120500D01*
X127411017Y-129120500D01*
X127568983Y-129120500D01*
X127568985Y-129120500D01*
X127722365Y-129082696D01*
X127862240Y-129009283D01*
X127980483Y-128904530D01*
X128070220Y-128774523D01*
X128126237Y-128626818D01*
X128133136Y-128569999D01*
X132904722Y-128569999D01*
X132904722Y-128570000D01*
X132923763Y-128726819D01*
X132923763Y-128726821D01*
X132979777Y-128874518D01*
X132979779Y-128874520D01*
X132979780Y-128874523D01*
X133042555Y-128965468D01*
X133069518Y-129004531D01*
X133074881Y-129009282D01*
X133187760Y-129109283D01*
X133327635Y-129182696D01*
X133481015Y-129220500D01*
X133481017Y-129220500D01*
X133638983Y-129220500D01*
X133638985Y-129220500D01*
X133792365Y-129182696D01*
X133932240Y-129109283D01*
X134050483Y-129004530D01*
X134140220Y-128874523D01*
X134183933Y-128759262D01*
X134196236Y-128726821D01*
X134196236Y-128726820D01*
X134196237Y-128726818D01*
X134215278Y-128570000D01*
X134196237Y-128413182D01*
X134196236Y-128413179D01*
X134196236Y-128413178D01*
X134140222Y-128265481D01*
X134140221Y-128265479D01*
X134140220Y-128265477D01*
X134050483Y-128135470D01*
X134048943Y-128134106D01*
X133987636Y-128079793D01*
X133932240Y-128030717D01*
X133862302Y-127994010D01*
X133792366Y-127957304D01*
X133741238Y-127944702D01*
X133638985Y-127919500D01*
X133481015Y-127919500D01*
X133430677Y-127931907D01*
X133327633Y-127957304D01*
X133187760Y-128030717D01*
X133187756Y-128030720D01*
X133069518Y-128135468D01*
X132979780Y-128265477D01*
X132979777Y-128265481D01*
X132923763Y-128413178D01*
X132923763Y-128413180D01*
X132904722Y-128569999D01*
X128133136Y-128569999D01*
X128145278Y-128470000D01*
X128126237Y-128313182D01*
X128126236Y-128313179D01*
X128126236Y-128313178D01*
X128070222Y-128165481D01*
X128070221Y-128165479D01*
X128070220Y-128165477D01*
X127980483Y-128035470D01*
X127975121Y-128030720D01*
X127862243Y-127930720D01*
X127862240Y-127930717D01*
X127792302Y-127894010D01*
X127722366Y-127857304D01*
X127671238Y-127844702D01*
X127568985Y-127819500D01*
X127411015Y-127819500D01*
X127334325Y-127838402D01*
X127257633Y-127857304D01*
X127117760Y-127930717D01*
X127117756Y-127930720D01*
X126999518Y-128035468D01*
X126909780Y-128165477D01*
X126909777Y-128165481D01*
X126853763Y-128313178D01*
X126853763Y-128313180D01*
X126834722Y-128469999D01*
X108108887Y-128469999D01*
X108079464Y-128425965D01*
X108079458Y-128425958D01*
X107954041Y-128300541D01*
X107954034Y-128300535D01*
X107806550Y-128201988D01*
X107751920Y-128179360D01*
X107642666Y-128134106D01*
X107642663Y-128134105D01*
X107642660Y-128134104D01*
X107502781Y-128106281D01*
X107468691Y-128099500D01*
X107468690Y-128099500D01*
X107033502Y-128099500D01*
X106947159Y-128079793D01*
X106877918Y-128024574D01*
X106839491Y-127944782D01*
X106839491Y-127856218D01*
X106861163Y-127801000D01*
X106866280Y-127792136D01*
X106866281Y-127792135D01*
X106877571Y-127749999D01*
X130314722Y-127749999D01*
X130314722Y-127750000D01*
X130333763Y-127906819D01*
X130333763Y-127906821D01*
X130389777Y-128054518D01*
X130389779Y-128054520D01*
X130389780Y-128054523D01*
X130479517Y-128184530D01*
X130597760Y-128289283D01*
X130737635Y-128362696D01*
X130891015Y-128400500D01*
X130891017Y-128400500D01*
X131048983Y-128400500D01*
X131048985Y-128400500D01*
X131202365Y-128362696D01*
X131342240Y-128289283D01*
X131460483Y-128184530D01*
X131550220Y-128054523D01*
X131559247Y-128030720D01*
X131606236Y-127906821D01*
X131606236Y-127906820D01*
X131606237Y-127906818D01*
X131625278Y-127750000D01*
X131606237Y-127593182D01*
X131606236Y-127593179D01*
X131606236Y-127593178D01*
X131550222Y-127445481D01*
X131550221Y-127445479D01*
X131550220Y-127445477D01*
X131460483Y-127315470D01*
X131342240Y-127210717D01*
X131272302Y-127174010D01*
X131202366Y-127137304D01*
X131129521Y-127119350D01*
X131048985Y-127099500D01*
X130891015Y-127099500D01*
X130814325Y-127118402D01*
X130737633Y-127137304D01*
X130597760Y-127210717D01*
X130597756Y-127210720D01*
X130479518Y-127315468D01*
X130389780Y-127445477D01*
X130389777Y-127445481D01*
X130333763Y-127593178D01*
X130333763Y-127593180D01*
X130314722Y-127749999D01*
X106877571Y-127749999D01*
X106905500Y-127645766D01*
X106905500Y-127494234D01*
X106866281Y-127347865D01*
X106790515Y-127216635D01*
X106683366Y-127109486D01*
X106683367Y-127109486D01*
X106552134Y-127033718D01*
X106467626Y-127011075D01*
X106405766Y-126994500D01*
X106254234Y-126994500D01*
X106203165Y-127008183D01*
X106107865Y-127033718D01*
X105976633Y-127109486D01*
X105869486Y-127216633D01*
X105793718Y-127347865D01*
X105769225Y-127439279D01*
X105754500Y-127494234D01*
X105754500Y-127645766D01*
X105768984Y-127699821D01*
X105793718Y-127792134D01*
X105798837Y-127801000D01*
X105869485Y-127923365D01*
X105869486Y-127923366D01*
X105869489Y-127923371D01*
X105876039Y-127931907D01*
X105912967Y-128012404D01*
X105911311Y-128100952D01*
X105871399Y-128180012D01*
X105828721Y-128218512D01*
X105705966Y-128300535D01*
X105705958Y-128300541D01*
X105580541Y-128425958D01*
X105580535Y-128425965D01*
X105481988Y-128573449D01*
X105414104Y-128737339D01*
X105379500Y-128911309D01*
X103950500Y-128911309D01*
X103915894Y-128737334D01*
X103848013Y-128573453D01*
X103848011Y-128573450D01*
X103848011Y-128573449D01*
X103749464Y-128425965D01*
X103749458Y-128425958D01*
X103624041Y-128300541D01*
X103624034Y-128300535D01*
X103476550Y-128201988D01*
X103421920Y-128179360D01*
X103312666Y-128134106D01*
X103312663Y-128134105D01*
X103312660Y-128134104D01*
X103172781Y-128106281D01*
X103138691Y-128099500D01*
X102161309Y-128099500D01*
X102132576Y-128105215D01*
X101987339Y-128134104D01*
X101823449Y-128201988D01*
X101675965Y-128300535D01*
X101675958Y-128300541D01*
X101550541Y-128425958D01*
X101550535Y-128425965D01*
X101451988Y-128573450D01*
X101451984Y-128573457D01*
X101383352Y-128739154D01*
X101332104Y-128811383D01*
X101254591Y-128854223D01*
X101166167Y-128859190D01*
X101084345Y-128825298D01*
X101025331Y-128759262D01*
X101000813Y-128674160D01*
X101000500Y-128663001D01*
X101000500Y-120696998D01*
X101020207Y-120610655D01*
X101075426Y-120541414D01*
X101155218Y-120502987D01*
X101243782Y-120502987D01*
X101323574Y-120541414D01*
X101378793Y-120610655D01*
X101383353Y-120620845D01*
X101384104Y-120622660D01*
X101384106Y-120622666D01*
X101427247Y-120726818D01*
X101451988Y-120786550D01*
X101550535Y-120934034D01*
X101550541Y-120934041D01*
X101675958Y-121059458D01*
X101675965Y-121059464D01*
X101823449Y-121158011D01*
X101823451Y-121158012D01*
X101823453Y-121158013D01*
X101987334Y-121225894D01*
X102161309Y-121260500D01*
X102161310Y-121260500D01*
X103138690Y-121260500D01*
X103138691Y-121260500D01*
X103312666Y-121225894D01*
X103476547Y-121158013D01*
X103624035Y-121059464D01*
X103749464Y-120934035D01*
X103848013Y-120786547D01*
X103915894Y-120622666D01*
X103950500Y-120448691D01*
X103950500Y-120271309D01*
X105379500Y-120271309D01*
X105379500Y-120448690D01*
X105414104Y-120622660D01*
X105414105Y-120622663D01*
X105414106Y-120622666D01*
X105430012Y-120661066D01*
X105481988Y-120786550D01*
X105580535Y-120934034D01*
X105580541Y-120934041D01*
X105705958Y-121059458D01*
X105705965Y-121059464D01*
X105828722Y-121141488D01*
X105889563Y-121205842D01*
X105916458Y-121290223D01*
X105904077Y-121377917D01*
X105876043Y-121428088D01*
X105869488Y-121436631D01*
X105869486Y-121436633D01*
X105869485Y-121436635D01*
X105838536Y-121490238D01*
X105793718Y-121567865D01*
X105773000Y-121645190D01*
X105754500Y-121714234D01*
X105754500Y-121865766D01*
X105756849Y-121874531D01*
X105793718Y-122012134D01*
X105869486Y-122143366D01*
X105976633Y-122250513D01*
X105976632Y-122250513D01*
X105976634Y-122250514D01*
X105976635Y-122250515D01*
X106107865Y-122326281D01*
X106254234Y-122365500D01*
X106254236Y-122365500D01*
X106405764Y-122365500D01*
X106405766Y-122365500D01*
X106552135Y-122326281D01*
X106683365Y-122250515D01*
X106790515Y-122143365D01*
X106866281Y-122012135D01*
X106905500Y-121865766D01*
X106905500Y-121714234D01*
X106866281Y-121567865D01*
X106861163Y-121559000D01*
X106835058Y-121474372D01*
X106848258Y-121386797D01*
X106898147Y-121313623D01*
X106974845Y-121269341D01*
X107033502Y-121260500D01*
X107468690Y-121260500D01*
X107468691Y-121260500D01*
X107642666Y-121225894D01*
X107806547Y-121158013D01*
X107954035Y-121059464D01*
X108079464Y-120934035D01*
X108115038Y-120880794D01*
X108179393Y-120819953D01*
X108263774Y-120793058D01*
X108351468Y-120805439D01*
X108425106Y-120854642D01*
X108470102Y-120930923D01*
X108479500Y-120991354D01*
X108479500Y-122228612D01*
X108478049Y-122252598D01*
X108474722Y-122279998D01*
X108474722Y-122279999D01*
X108478049Y-122307399D01*
X108479500Y-122331387D01*
X108479500Y-127028612D01*
X108478049Y-127052598D01*
X108474722Y-127079998D01*
X108474722Y-127079999D01*
X108478049Y-127107399D01*
X108479500Y-127131387D01*
X108479500Y-127144069D01*
X108485737Y-127175428D01*
X108488109Y-127190258D01*
X108493763Y-127236818D01*
X108495958Y-127242606D01*
X108496694Y-127244547D01*
X108501274Y-127260505D01*
X108501660Y-127260388D01*
X108504497Y-127269741D01*
X108524090Y-127317044D01*
X108526304Y-127322625D01*
X108530820Y-127334531D01*
X108549780Y-127384523D01*
X108591031Y-127444285D01*
X108591063Y-127444331D01*
X108592753Y-127446820D01*
X108624724Y-127494669D01*
X108626297Y-127496586D01*
X108636237Y-127509778D01*
X108639517Y-127514530D01*
X108679441Y-127549899D01*
X108688195Y-127558140D01*
X108715331Y-127585276D01*
X108720516Y-127588740D01*
X108741917Y-127605247D01*
X108757760Y-127619283D01*
X108787908Y-127635106D01*
X108805987Y-127645850D01*
X108821873Y-127656465D01*
X108845461Y-127666235D01*
X108861792Y-127673884D01*
X108878239Y-127682516D01*
X108897635Y-127692696D01*
X108911925Y-127696218D01*
X108939574Y-127705294D01*
X108940250Y-127705499D01*
X108940252Y-127705499D01*
X108940256Y-127705501D01*
X108984248Y-127714252D01*
X108992956Y-127716190D01*
X109051015Y-127730500D01*
X109051018Y-127730500D01*
X109208984Y-127730500D01*
X109208985Y-127730500D01*
X109267029Y-127716193D01*
X109275768Y-127714248D01*
X109319744Y-127705501D01*
X109319749Y-127705498D01*
X109320457Y-127705284D01*
X109348066Y-127696219D01*
X109362365Y-127692696D01*
X109398208Y-127673882D01*
X109414533Y-127666237D01*
X109438127Y-127656465D01*
X109454024Y-127645842D01*
X109472090Y-127635106D01*
X109502240Y-127619283D01*
X109518084Y-127605245D01*
X109539487Y-127588738D01*
X109544669Y-127585276D01*
X109571815Y-127558128D01*
X109580535Y-127549919D01*
X109620483Y-127514530D01*
X109623751Y-127509793D01*
X109633713Y-127496573D01*
X109635273Y-127494672D01*
X109635273Y-127494671D01*
X109635276Y-127494669D01*
X109667304Y-127446732D01*
X109668936Y-127444331D01*
X109710220Y-127384523D01*
X109733696Y-127322618D01*
X109735908Y-127317044D01*
X109755501Y-127269744D01*
X109755503Y-127269732D01*
X109758339Y-127260387D01*
X109758728Y-127260505D01*
X109763313Y-127244527D01*
X109766237Y-127236818D01*
X109771890Y-127190258D01*
X109774262Y-127175428D01*
X109780500Y-127144067D01*
X109780500Y-127131387D01*
X109781951Y-127107399D01*
X109785278Y-127079999D01*
X109785278Y-127079998D01*
X109781951Y-127052598D01*
X109780500Y-127028612D01*
X109780500Y-126899999D01*
X155004722Y-126899999D01*
X155004722Y-126900000D01*
X155023763Y-127056819D01*
X155023763Y-127056821D01*
X155079777Y-127204518D01*
X155079779Y-127204520D01*
X155079780Y-127204523D01*
X155169517Y-127334530D01*
X155287760Y-127439283D01*
X155427635Y-127512696D01*
X155581015Y-127550500D01*
X155581017Y-127550500D01*
X155738983Y-127550500D01*
X155738985Y-127550500D01*
X155892365Y-127512696D01*
X156032240Y-127439283D01*
X156150483Y-127334530D01*
X156240220Y-127204523D01*
X156296237Y-127056818D01*
X156315278Y-126900000D01*
X156296237Y-126743182D01*
X156296236Y-126743179D01*
X156296236Y-126743178D01*
X156240222Y-126595481D01*
X156240221Y-126595479D01*
X156240220Y-126595477D01*
X156150483Y-126465470D01*
X156032240Y-126360717D01*
X155962302Y-126324010D01*
X155892366Y-126287304D01*
X155841238Y-126274702D01*
X155738985Y-126249500D01*
X155581015Y-126249500D01*
X155528271Y-126262500D01*
X155427633Y-126287304D01*
X155287760Y-126360717D01*
X155287756Y-126360720D01*
X155169518Y-126465468D01*
X155079780Y-126595477D01*
X155079777Y-126595481D01*
X155023763Y-126743178D01*
X155023763Y-126743180D01*
X155004722Y-126899999D01*
X109780500Y-126899999D01*
X109780500Y-125299999D01*
X120084722Y-125299999D01*
X120084722Y-125300000D01*
X120103763Y-125456819D01*
X120103763Y-125456821D01*
X120159777Y-125604518D01*
X120159779Y-125604520D01*
X120159780Y-125604523D01*
X120249517Y-125734530D01*
X120367760Y-125839283D01*
X120507635Y-125912696D01*
X120661015Y-125950500D01*
X120661017Y-125950500D01*
X120818983Y-125950500D01*
X120818985Y-125950500D01*
X120972365Y-125912696D01*
X121112240Y-125839283D01*
X121230483Y-125734530D01*
X121320220Y-125604523D01*
X121333313Y-125569999D01*
X127674722Y-125569999D01*
X127674722Y-125570000D01*
X127693763Y-125726819D01*
X127693763Y-125726821D01*
X127749777Y-125874518D01*
X127749779Y-125874520D01*
X127749780Y-125874523D01*
X127839517Y-126004530D01*
X127957760Y-126109283D01*
X128097635Y-126182696D01*
X128251015Y-126220500D01*
X128251017Y-126220500D01*
X128408983Y-126220500D01*
X128408985Y-126220500D01*
X128562365Y-126182696D01*
X128702240Y-126109283D01*
X128820483Y-126004530D01*
X128910220Y-125874523D01*
X128966237Y-125726818D01*
X128985278Y-125570000D01*
X128966237Y-125413182D01*
X128966236Y-125413179D01*
X128966236Y-125413178D01*
X128910222Y-125265481D01*
X128910221Y-125265479D01*
X128910220Y-125265477D01*
X128820483Y-125135470D01*
X128780444Y-125099999D01*
X163882520Y-125099999D01*
X163882520Y-125100000D01*
X163902398Y-125314520D01*
X163902399Y-125314523D01*
X163961356Y-125521741D01*
X164057388Y-125714601D01*
X164187222Y-125886527D01*
X164316666Y-126004530D01*
X164346436Y-126031669D01*
X164346438Y-126031670D01*
X164346439Y-126031671D01*
X164529602Y-126145081D01*
X164529601Y-126145081D01*
X164529605Y-126145082D01*
X164529609Y-126145085D01*
X164730504Y-126222912D01*
X164942279Y-126262500D01*
X164942281Y-126262500D01*
X165157719Y-126262500D01*
X165157721Y-126262500D01*
X165369496Y-126222912D01*
X165570391Y-126145085D01*
X165570396Y-126145081D01*
X165570398Y-126145081D01*
X165645888Y-126098339D01*
X165753564Y-126031669D01*
X165912778Y-125886526D01*
X166027561Y-125734530D01*
X166042611Y-125714601D01*
X166097423Y-125604523D01*
X166138643Y-125521742D01*
X166197601Y-125314524D01*
X166217480Y-125100000D01*
X166197601Y-124885476D01*
X166138643Y-124678258D01*
X166096946Y-124594518D01*
X166042611Y-124485398D01*
X165912777Y-124313472D01*
X165753565Y-124168332D01*
X165753560Y-124168328D01*
X165570397Y-124054918D01*
X165570398Y-124054918D01*
X165570392Y-124054915D01*
X165570391Y-124054915D01*
X165484698Y-124021717D01*
X165369497Y-123977088D01*
X165369498Y-123977088D01*
X165243601Y-123953554D01*
X165157721Y-123937500D01*
X164942279Y-123937500D01*
X164857569Y-123953335D01*
X164730501Y-123977088D01*
X164529601Y-124054918D01*
X164346439Y-124168328D01*
X164346434Y-124168332D01*
X164187222Y-124313472D01*
X164057388Y-124485398D01*
X163961356Y-124678258D01*
X163902399Y-124885476D01*
X163902398Y-124885479D01*
X163882520Y-125099999D01*
X128780444Y-125099999D01*
X128702240Y-125030717D01*
X128632302Y-124994010D01*
X128562366Y-124957304D01*
X128494187Y-124940500D01*
X128408985Y-124919500D01*
X128251015Y-124919500D01*
X128174325Y-124938402D01*
X128097633Y-124957304D01*
X127957760Y-125030717D01*
X127957756Y-125030720D01*
X127839518Y-125135468D01*
X127749780Y-125265477D01*
X127749777Y-125265481D01*
X127693763Y-125413178D01*
X127693763Y-125413180D01*
X127674722Y-125569999D01*
X121333313Y-125569999D01*
X121376237Y-125456818D01*
X121395278Y-125300000D01*
X121376237Y-125143182D01*
X121376236Y-125143179D01*
X121376236Y-125143178D01*
X121320222Y-124995481D01*
X121320221Y-124995479D01*
X121320220Y-124995477D01*
X121230483Y-124865470D01*
X121112240Y-124760717D01*
X121062472Y-124734596D01*
X120972363Y-124687302D01*
X120950337Y-124681874D01*
X120871220Y-124642077D01*
X120817205Y-124571892D01*
X120812519Y-124549595D01*
X120763412Y-124609042D01*
X120682968Y-124646087D01*
X120666034Y-124648890D01*
X120661021Y-124649498D01*
X120507633Y-124687304D01*
X120367760Y-124760717D01*
X120367756Y-124760720D01*
X120249518Y-124865468D01*
X120159780Y-124995477D01*
X120159777Y-124995481D01*
X120103763Y-125143178D01*
X120103763Y-125143180D01*
X120084722Y-125299999D01*
X109780500Y-125299999D01*
X109780500Y-123359999D01*
X119204722Y-123359999D01*
X119204722Y-123360000D01*
X119223763Y-123516819D01*
X119223763Y-123516821D01*
X119279777Y-123664518D01*
X119279779Y-123664520D01*
X119279780Y-123664523D01*
X119369517Y-123794530D01*
X119487760Y-123899283D01*
X119627635Y-123972696D01*
X119781015Y-124010500D01*
X119781017Y-124010500D01*
X119938983Y-124010500D01*
X119938985Y-124010500D01*
X120092365Y-123972696D01*
X120117471Y-123959518D01*
X120203078Y-123936842D01*
X120290050Y-123953554D01*
X120361158Y-124006347D01*
X120373726Y-124022678D01*
X120409517Y-124074530D01*
X120527760Y-124179283D01*
X120667633Y-124252695D01*
X120667635Y-124252696D01*
X120689658Y-124258124D01*
X120768776Y-124297920D01*
X120822793Y-124368103D01*
X120827479Y-124390402D01*
X120876590Y-124330954D01*
X120957035Y-124293911D01*
X120973978Y-124291107D01*
X120978971Y-124290500D01*
X120978985Y-124290500D01*
X120981018Y-124289999D01*
X123104722Y-124289999D01*
X123104722Y-124290000D01*
X123123763Y-124446819D01*
X123123763Y-124446821D01*
X123179777Y-124594518D01*
X123179779Y-124594520D01*
X123179780Y-124594523D01*
X123269517Y-124724530D01*
X123387760Y-124829283D01*
X123527635Y-124902696D01*
X123681015Y-124940500D01*
X123681017Y-124940500D01*
X123838983Y-124940500D01*
X123838985Y-124940500D01*
X123992365Y-124902696D01*
X124132240Y-124829283D01*
X124250483Y-124724530D01*
X124340220Y-124594523D01*
X124357259Y-124549595D01*
X124396236Y-124446821D01*
X124396236Y-124446820D01*
X124396237Y-124446818D01*
X124412656Y-124311589D01*
X124442627Y-124228253D01*
X124505788Y-124166172D01*
X124562579Y-124142361D01*
X124642365Y-124122696D01*
X124782240Y-124049283D01*
X124900483Y-123944530D01*
X124990220Y-123814523D01*
X124990222Y-123814518D01*
X125046236Y-123666821D01*
X125046236Y-123666820D01*
X125046237Y-123666818D01*
X125065278Y-123510000D01*
X125046237Y-123353182D01*
X125046236Y-123353179D01*
X125046236Y-123353178D01*
X124990222Y-123205481D01*
X124990221Y-123205479D01*
X124990220Y-123205477D01*
X124900483Y-123075470D01*
X124886584Y-123063157D01*
X124782243Y-122970720D01*
X124782240Y-122970717D01*
X124696030Y-122925470D01*
X124642366Y-122897304D01*
X124591238Y-122884702D01*
X124488985Y-122859500D01*
X124331015Y-122859500D01*
X124254325Y-122878402D01*
X124177633Y-122897304D01*
X124037760Y-122970717D01*
X124037756Y-122970720D01*
X123919518Y-123075468D01*
X123829780Y-123205477D01*
X123829777Y-123205481D01*
X123773763Y-123353178D01*
X123773763Y-123353179D01*
X123757343Y-123488410D01*
X123727372Y-123571747D01*
X123664210Y-123633828D01*
X123607417Y-123657640D01*
X123527633Y-123677304D01*
X123387760Y-123750717D01*
X123387756Y-123750720D01*
X123269518Y-123855468D01*
X123179780Y-123985477D01*
X123179777Y-123985481D01*
X123123763Y-124133178D01*
X123123763Y-124133180D01*
X123104722Y-124289999D01*
X120981018Y-124289999D01*
X121132365Y-124252696D01*
X121272240Y-124179283D01*
X121390483Y-124074530D01*
X121480220Y-123944523D01*
X121480222Y-123944518D01*
X121536236Y-123796821D01*
X121536236Y-123796820D01*
X121536237Y-123796818D01*
X121555278Y-123640000D01*
X121536237Y-123483182D01*
X121536236Y-123483179D01*
X121536236Y-123483178D01*
X121480222Y-123335481D01*
X121480221Y-123335479D01*
X121480220Y-123335477D01*
X121390483Y-123205470D01*
X121387900Y-123203182D01*
X121272243Y-123100720D01*
X121272240Y-123100717D01*
X121186051Y-123055481D01*
X121132366Y-123027304D01*
X121081238Y-123014702D01*
X120978985Y-122989500D01*
X120821015Y-122989500D01*
X120667635Y-123027304D01*
X120667631Y-123027305D01*
X120642522Y-123040483D01*
X120556910Y-123063157D01*
X120469939Y-123046439D01*
X120398834Y-122993643D01*
X120386272Y-122977320D01*
X120350483Y-122925470D01*
X120232240Y-122820717D01*
X120162302Y-122784010D01*
X120092366Y-122747304D01*
X120041238Y-122734702D01*
X119938985Y-122709500D01*
X119781015Y-122709500D01*
X119704325Y-122728402D01*
X119627633Y-122747304D01*
X119487760Y-122820717D01*
X119487756Y-122820720D01*
X119369518Y-122925468D01*
X119279780Y-123055477D01*
X119279777Y-123055481D01*
X119223763Y-123203178D01*
X119223763Y-123203180D01*
X119204722Y-123359999D01*
X109780500Y-123359999D01*
X109780500Y-122331387D01*
X109781951Y-122307399D01*
X109785278Y-122279999D01*
X109785278Y-122279998D01*
X109781951Y-122252598D01*
X109780500Y-122228612D01*
X109780500Y-121439999D01*
X121234722Y-121439999D01*
X121234722Y-121440000D01*
X121253763Y-121596819D01*
X121253763Y-121596821D01*
X121309777Y-121744518D01*
X121309779Y-121744520D01*
X121309780Y-121744523D01*
X121399517Y-121874530D01*
X121517760Y-121979283D01*
X121657635Y-122052696D01*
X121811015Y-122090500D01*
X121811017Y-122090500D01*
X121968983Y-122090500D01*
X121968985Y-122090500D01*
X122122365Y-122052696D01*
X122262240Y-121979283D01*
X122380483Y-121874530D01*
X122470220Y-121744523D01*
X122479925Y-121718934D01*
X122528969Y-121645190D01*
X122605152Y-121600029D01*
X122665993Y-121590500D01*
X122718983Y-121590500D01*
X122718985Y-121590500D01*
X122872365Y-121552696D01*
X123012240Y-121479283D01*
X123130483Y-121374530D01*
X123220220Y-121244523D01*
X123276237Y-121096818D01*
X123295278Y-120940000D01*
X123294554Y-120934041D01*
X123292646Y-120918326D01*
X123276237Y-120783182D01*
X123276236Y-120783179D01*
X123276236Y-120783178D01*
X123220222Y-120635481D01*
X123220221Y-120635479D01*
X123220220Y-120635477D01*
X123130483Y-120505470D01*
X123012240Y-120400717D01*
X122942302Y-120364010D01*
X122872366Y-120327304D01*
X122821238Y-120314702D01*
X122718985Y-120289500D01*
X122561015Y-120289500D01*
X122484325Y-120308402D01*
X122407633Y-120327304D01*
X122267760Y-120400717D01*
X122267756Y-120400720D01*
X122149518Y-120505468D01*
X122059780Y-120635477D01*
X122059777Y-120635481D01*
X122050075Y-120661066D01*
X122001031Y-120734810D01*
X121924848Y-120779971D01*
X121864007Y-120789500D01*
X121811015Y-120789500D01*
X121746347Y-120805439D01*
X121657633Y-120827304D01*
X121517760Y-120900717D01*
X121517756Y-120900720D01*
X121399518Y-121005468D01*
X121309780Y-121135477D01*
X121309777Y-121135481D01*
X121253763Y-121283178D01*
X121253763Y-121283180D01*
X121234722Y-121439999D01*
X109780500Y-121439999D01*
X109780500Y-120250000D01*
X149244723Y-120250000D01*
X149263792Y-120467972D01*
X149263793Y-120467979D01*
X149320424Y-120679328D01*
X149320427Y-120679335D01*
X149412897Y-120877638D01*
X149412899Y-120877642D01*
X149538403Y-121056879D01*
X149693120Y-121211596D01*
X149872357Y-121337100D01*
X149872361Y-121337102D01*
X150070670Y-121429575D01*
X150282023Y-121486207D01*
X150500000Y-121505277D01*
X150717977Y-121486207D01*
X150929330Y-121429575D01*
X151127639Y-121337102D01*
X151306877Y-121211598D01*
X151461598Y-121056877D01*
X151587102Y-120877639D01*
X151679575Y-120679330D01*
X151708870Y-120569999D01*
X158564722Y-120569999D01*
X158564722Y-120570000D01*
X158583763Y-120726819D01*
X158583763Y-120726821D01*
X158639777Y-120874518D01*
X158639779Y-120874520D01*
X158639780Y-120874523D01*
X158729517Y-121004530D01*
X158847760Y-121109283D01*
X158987635Y-121182696D01*
X159141015Y-121220500D01*
X159141017Y-121220500D01*
X159298983Y-121220500D01*
X159298985Y-121220500D01*
X159452365Y-121182696D01*
X159592240Y-121109283D01*
X159710483Y-121004530D01*
X159800220Y-120874523D01*
X159856237Y-120726818D01*
X159875278Y-120570000D01*
X159856237Y-120413182D01*
X159856236Y-120413179D01*
X159856236Y-120413178D01*
X159800222Y-120265481D01*
X159800221Y-120265479D01*
X159800220Y-120265477D01*
X159710483Y-120135470D01*
X159592240Y-120030717D01*
X159522302Y-119994010D01*
X159452366Y-119957304D01*
X159401238Y-119944702D01*
X159298985Y-119919500D01*
X159141015Y-119919500D01*
X159064325Y-119938402D01*
X158987633Y-119957304D01*
X158847760Y-120030717D01*
X158847756Y-120030720D01*
X158729518Y-120135468D01*
X158639780Y-120265477D01*
X158639777Y-120265481D01*
X158583763Y-120413178D01*
X158583763Y-120413180D01*
X158564722Y-120569999D01*
X151708870Y-120569999D01*
X151736207Y-120467977D01*
X151755277Y-120250000D01*
X151736207Y-120032023D01*
X151679575Y-119820670D01*
X151676925Y-119814988D01*
X151587103Y-119622364D01*
X151582137Y-119615272D01*
X151461598Y-119443123D01*
X151306877Y-119288402D01*
X151306876Y-119288401D01*
X151306875Y-119288400D01*
X151127642Y-119162899D01*
X151127638Y-119162897D01*
X150929335Y-119070427D01*
X150929328Y-119070424D01*
X150717979Y-119013793D01*
X150717972Y-119013792D01*
X150500000Y-118994723D01*
X150282027Y-119013792D01*
X150282020Y-119013793D01*
X150070671Y-119070424D01*
X150070665Y-119070426D01*
X149872364Y-119162896D01*
X149693127Y-119288398D01*
X149693119Y-119288405D01*
X149538405Y-119443119D01*
X149538398Y-119443127D01*
X149412896Y-119622364D01*
X149320426Y-119820665D01*
X149320424Y-119820671D01*
X149263793Y-120032020D01*
X149263792Y-120032027D01*
X149244723Y-120250000D01*
X109780500Y-120250000D01*
X109780500Y-119569999D01*
X142214722Y-119569999D01*
X142214722Y-119570000D01*
X142233763Y-119726819D01*
X142233763Y-119726821D01*
X142289777Y-119874518D01*
X142289779Y-119874520D01*
X142289780Y-119874523D01*
X142379517Y-120004530D01*
X142497760Y-120109283D01*
X142637635Y-120182696D01*
X142791015Y-120220500D01*
X142791017Y-120220500D01*
X142948983Y-120220500D01*
X142948985Y-120220500D01*
X143102365Y-120182696D01*
X143242240Y-120109283D01*
X143360483Y-120004530D01*
X143450220Y-119874523D01*
X143472799Y-119814988D01*
X143506236Y-119726821D01*
X143506236Y-119726820D01*
X143506237Y-119726818D01*
X143525278Y-119570000D01*
X143506237Y-119413182D01*
X143506236Y-119413179D01*
X143506236Y-119413178D01*
X143450222Y-119265481D01*
X143450221Y-119265479D01*
X143450220Y-119265477D01*
X143360483Y-119135470D01*
X143242240Y-119030717D01*
X143172302Y-118994010D01*
X143102366Y-118957304D01*
X143050538Y-118944530D01*
X142948985Y-118919500D01*
X142791015Y-118919500D01*
X142714325Y-118938402D01*
X142637633Y-118957304D01*
X142497760Y-119030717D01*
X142497756Y-119030720D01*
X142379518Y-119135468D01*
X142289780Y-119265477D01*
X142289777Y-119265481D01*
X142233763Y-119413178D01*
X142233763Y-119413180D01*
X142214722Y-119569999D01*
X109780500Y-119569999D01*
X109780500Y-118029999D01*
X122094722Y-118029999D01*
X122094722Y-118030000D01*
X122113763Y-118186819D01*
X122113763Y-118186821D01*
X122169777Y-118334518D01*
X122169779Y-118334520D01*
X122169780Y-118334523D01*
X122259517Y-118464530D01*
X122377760Y-118569283D01*
X122517635Y-118642696D01*
X122671015Y-118680500D01*
X122671017Y-118680500D01*
X122828983Y-118680500D01*
X122828985Y-118680500D01*
X122982365Y-118642696D01*
X123122240Y-118569283D01*
X123240483Y-118464530D01*
X123330220Y-118334523D01*
X123379159Y-118205481D01*
X123386236Y-118186821D01*
X123386236Y-118186820D01*
X123386237Y-118186818D01*
X123405278Y-118030000D01*
X123386237Y-117873182D01*
X123386236Y-117873179D01*
X123386236Y-117873178D01*
X123330222Y-117725481D01*
X123330221Y-117725479D01*
X123330220Y-117725477D01*
X123240483Y-117595470D01*
X123122240Y-117490717D01*
X123052302Y-117454010D01*
X122982366Y-117417304D01*
X122931238Y-117404702D01*
X122828985Y-117379500D01*
X122671015Y-117379500D01*
X122594325Y-117398402D01*
X122517633Y-117417304D01*
X122377760Y-117490717D01*
X122377756Y-117490720D01*
X122259518Y-117595468D01*
X122169780Y-117725477D01*
X122169777Y-117725481D01*
X122113763Y-117873178D01*
X122113763Y-117873180D01*
X122094722Y-118029999D01*
X109780500Y-118029999D01*
X109780500Y-117259999D01*
X152624722Y-117259999D01*
X152624722Y-117260000D01*
X152643763Y-117416819D01*
X152643763Y-117416821D01*
X152699777Y-117564518D01*
X152699778Y-117564519D01*
X152699780Y-117564523D01*
X152789517Y-117694530D01*
X152907760Y-117799283D01*
X153047635Y-117872696D01*
X153201015Y-117910500D01*
X153201017Y-117910500D01*
X153205410Y-117910500D01*
X153210404Y-117911639D01*
X153212966Y-117911951D01*
X153212933Y-117912217D01*
X153291753Y-117930207D01*
X153360994Y-117985426D01*
X153399421Y-118065218D01*
X153399421Y-118153782D01*
X153381614Y-118201983D01*
X153379778Y-118205480D01*
X153323763Y-118353178D01*
X153323763Y-118353180D01*
X153304722Y-118509999D01*
X153304722Y-118510000D01*
X153323763Y-118666819D01*
X153323763Y-118666821D01*
X153379777Y-118814518D01*
X153379779Y-118814520D01*
X153379780Y-118814523D01*
X153469517Y-118944530D01*
X153587760Y-119049283D01*
X153727635Y-119122696D01*
X153881015Y-119160500D01*
X153881017Y-119160500D01*
X154038983Y-119160500D01*
X154038985Y-119160500D01*
X154192365Y-119122696D01*
X154332240Y-119049283D01*
X154450483Y-118944530D01*
X154540220Y-118814523D01*
X154596237Y-118666818D01*
X154615278Y-118510000D01*
X154596237Y-118353182D01*
X154596236Y-118353179D01*
X154596236Y-118353178D01*
X154540222Y-118205481D01*
X154540221Y-118205479D01*
X154540220Y-118205477D01*
X154450483Y-118075470D01*
X154332240Y-117970717D01*
X154255056Y-117930207D01*
X154192366Y-117897304D01*
X154124187Y-117880500D01*
X154038985Y-117859500D01*
X154034590Y-117859500D01*
X154029595Y-117858360D01*
X154027034Y-117858049D01*
X154027066Y-117857782D01*
X153948247Y-117839793D01*
X153879006Y-117784574D01*
X153840579Y-117704782D01*
X153840579Y-117616218D01*
X153858386Y-117568017D01*
X153860215Y-117564529D01*
X153860220Y-117564523D01*
X153916237Y-117416818D01*
X153935278Y-117260000D01*
X153916237Y-117103182D01*
X153916236Y-117103179D01*
X153916236Y-117103178D01*
X153860222Y-116955481D01*
X153860221Y-116955479D01*
X153860220Y-116955477D01*
X153770483Y-116825470D01*
X153735636Y-116794599D01*
X153652243Y-116720720D01*
X153652240Y-116720717D01*
X153582302Y-116684010D01*
X153512366Y-116647304D01*
X153461238Y-116634702D01*
X153358985Y-116609500D01*
X153201015Y-116609500D01*
X153155623Y-116620688D01*
X153047633Y-116647304D01*
X152907760Y-116720717D01*
X152907756Y-116720720D01*
X152789518Y-116825468D01*
X152699780Y-116955477D01*
X152699777Y-116955481D01*
X152643763Y-117103178D01*
X152643763Y-117103180D01*
X152624722Y-117259999D01*
X109780500Y-117259999D01*
X109780500Y-115099999D01*
X125794722Y-115099999D01*
X125794722Y-115100000D01*
X125813763Y-115256819D01*
X125813763Y-115256821D01*
X125869777Y-115404518D01*
X125869779Y-115404520D01*
X125869780Y-115404523D01*
X125959517Y-115534530D01*
X126077760Y-115639283D01*
X126217635Y-115712696D01*
X126371015Y-115750500D01*
X126371017Y-115750500D01*
X126528983Y-115750500D01*
X126528985Y-115750500D01*
X126682365Y-115712696D01*
X126822240Y-115639283D01*
X126940483Y-115534530D01*
X127030220Y-115404523D01*
X127086237Y-115256818D01*
X127090708Y-115219999D01*
X141964722Y-115219999D01*
X141964722Y-115220000D01*
X141983763Y-115376819D01*
X141983763Y-115376821D01*
X142039777Y-115524518D01*
X142039779Y-115524520D01*
X142039780Y-115524523D01*
X142129517Y-115654530D01*
X142247760Y-115759283D01*
X142387635Y-115832696D01*
X142541015Y-115870500D01*
X142541017Y-115870500D01*
X142701145Y-115870500D01*
X142787488Y-115890207D01*
X142856729Y-115945426D01*
X142864912Y-115956445D01*
X142939517Y-116064530D01*
X143057760Y-116169283D01*
X143197635Y-116242696D01*
X143351015Y-116280500D01*
X143351017Y-116280500D01*
X143508983Y-116280500D01*
X143508985Y-116280500D01*
X143662365Y-116242696D01*
X143802240Y-116169283D01*
X143920483Y-116064530D01*
X144010220Y-115934523D01*
X144066237Y-115786818D01*
X144085278Y-115630000D01*
X144066237Y-115473182D01*
X144066236Y-115473179D01*
X144066236Y-115473178D01*
X144010222Y-115325481D01*
X144010221Y-115325479D01*
X144010220Y-115325477D01*
X143920483Y-115195470D01*
X143802240Y-115090717D01*
X143732302Y-115054010D01*
X143662366Y-115017304D01*
X143611238Y-115004702D01*
X143508985Y-114979500D01*
X143351015Y-114979500D01*
X143348855Y-114979500D01*
X143262512Y-114959793D01*
X143193271Y-114904574D01*
X143185081Y-114893545D01*
X143110483Y-114785470D01*
X142992240Y-114680717D01*
X142877508Y-114620500D01*
X142852366Y-114607304D01*
X142801238Y-114594702D01*
X142698985Y-114569500D01*
X142541015Y-114569500D01*
X142487480Y-114582695D01*
X142387633Y-114607304D01*
X142247760Y-114680717D01*
X142247756Y-114680720D01*
X142129518Y-114785468D01*
X142039780Y-114915477D01*
X142039777Y-114915481D01*
X141983763Y-115063178D01*
X141983763Y-115063180D01*
X141964722Y-115219999D01*
X127090708Y-115219999D01*
X127105278Y-115100000D01*
X127086237Y-114943182D01*
X127086236Y-114943179D01*
X127086236Y-114943178D01*
X127030222Y-114795481D01*
X127030221Y-114795479D01*
X127030220Y-114795477D01*
X126940483Y-114665470D01*
X126822240Y-114560717D01*
X126724240Y-114509282D01*
X126682366Y-114487304D01*
X126631238Y-114474702D01*
X126528985Y-114449500D01*
X126371015Y-114449500D01*
X126294325Y-114468402D01*
X126217633Y-114487304D01*
X126077760Y-114560717D01*
X126077756Y-114560720D01*
X125959518Y-114665468D01*
X125869780Y-114795477D01*
X125869777Y-114795481D01*
X125813763Y-114943178D01*
X125813763Y-114943180D01*
X125794722Y-115099999D01*
X109780500Y-115099999D01*
X109780500Y-113969999D01*
X138434722Y-113969999D01*
X138434722Y-113970000D01*
X138453763Y-114126819D01*
X138453763Y-114126821D01*
X138509777Y-114274518D01*
X138509779Y-114274520D01*
X138509780Y-114274523D01*
X138599517Y-114404530D01*
X138717760Y-114509283D01*
X138857635Y-114582696D01*
X139011015Y-114620500D01*
X139011017Y-114620500D01*
X139168983Y-114620500D01*
X139168985Y-114620500D01*
X139322365Y-114582696D01*
X139462240Y-114509283D01*
X139580483Y-114404530D01*
X139670220Y-114274523D01*
X139726237Y-114126818D01*
X139745278Y-113970000D01*
X139726237Y-113813182D01*
X139726236Y-113813179D01*
X139726236Y-113813178D01*
X139670222Y-113665481D01*
X139670221Y-113665479D01*
X139670220Y-113665477D01*
X139580483Y-113535470D01*
X139462240Y-113430717D01*
X139392302Y-113394010D01*
X139322366Y-113357304D01*
X139271238Y-113344702D01*
X139168985Y-113319500D01*
X139011015Y-113319500D01*
X138934325Y-113338402D01*
X138857633Y-113357304D01*
X138717760Y-113430717D01*
X138717756Y-113430720D01*
X138599518Y-113535468D01*
X138509780Y-113665477D01*
X138509777Y-113665481D01*
X138453763Y-113813178D01*
X138453763Y-113813180D01*
X138434722Y-113969999D01*
X109780500Y-113969999D01*
X109780500Y-112891874D01*
X109800207Y-112805531D01*
X109838786Y-112751160D01*
X112339946Y-110250000D01*
X149244723Y-110250000D01*
X149263792Y-110467972D01*
X149263793Y-110467979D01*
X149320424Y-110679328D01*
X149320427Y-110679335D01*
X149412897Y-110877638D01*
X149412899Y-110877642D01*
X149538403Y-111056879D01*
X149693120Y-111211596D01*
X149872357Y-111337100D01*
X149872361Y-111337102D01*
X150070670Y-111429575D01*
X150282023Y-111486207D01*
X150500000Y-111505277D01*
X150717977Y-111486207D01*
X150929330Y-111429575D01*
X151127639Y-111337102D01*
X151306877Y-111211598D01*
X151461598Y-111056877D01*
X151587102Y-110877639D01*
X151679575Y-110679330D01*
X151736207Y-110467977D01*
X151755277Y-110250000D01*
X151736207Y-110032023D01*
X151679575Y-109820670D01*
X151628842Y-109711874D01*
X151587103Y-109622364D01*
X151461601Y-109443127D01*
X151461599Y-109443125D01*
X151461598Y-109443123D01*
X151306877Y-109288402D01*
X151306876Y-109288401D01*
X151306875Y-109288400D01*
X151127642Y-109162899D01*
X151127638Y-109162897D01*
X150929335Y-109070427D01*
X150929328Y-109070424D01*
X150717979Y-109013793D01*
X150717972Y-109013792D01*
X150500000Y-108994723D01*
X150282027Y-109013792D01*
X150282020Y-109013793D01*
X150070671Y-109070424D01*
X150070665Y-109070426D01*
X149872364Y-109162896D01*
X149693127Y-109288398D01*
X149693119Y-109288405D01*
X149538405Y-109443119D01*
X149538398Y-109443127D01*
X149412896Y-109622364D01*
X149320426Y-109820665D01*
X149320424Y-109820671D01*
X149263793Y-110032020D01*
X149263792Y-110032027D01*
X149244723Y-110250000D01*
X112339946Y-110250000D01*
X114389947Y-108199999D01*
X129284722Y-108199999D01*
X129284722Y-108200000D01*
X129303763Y-108356819D01*
X129303763Y-108356821D01*
X129359777Y-108504518D01*
X129359779Y-108504520D01*
X129359780Y-108504523D01*
X129449517Y-108634530D01*
X129567760Y-108739283D01*
X129707635Y-108812696D01*
X129861015Y-108850500D01*
X129861017Y-108850500D01*
X130018983Y-108850500D01*
X130018985Y-108850500D01*
X130172365Y-108812696D01*
X130312240Y-108739283D01*
X130430483Y-108634530D01*
X130520220Y-108504523D01*
X130576237Y-108356818D01*
X130595278Y-108200000D01*
X130576237Y-108043182D01*
X130576236Y-108043179D01*
X130576236Y-108043178D01*
X130520222Y-107895481D01*
X130520221Y-107895479D01*
X130520220Y-107895477D01*
X130430483Y-107765470D01*
X130312240Y-107660717D01*
X130242302Y-107624010D01*
X130172366Y-107587304D01*
X130121238Y-107574702D01*
X130018985Y-107549500D01*
X129861015Y-107549500D01*
X129784325Y-107568402D01*
X129707633Y-107587304D01*
X129567760Y-107660717D01*
X129567756Y-107660720D01*
X129449518Y-107765468D01*
X129359780Y-107895477D01*
X129359777Y-107895481D01*
X129303763Y-108043178D01*
X129303763Y-108043180D01*
X129284722Y-108199999D01*
X114389947Y-108199999D01*
X115891160Y-106698786D01*
X115966148Y-106651667D01*
X116031874Y-106640500D01*
X153868126Y-106640500D01*
X153954469Y-106660207D01*
X154008840Y-106698786D01*
X156881214Y-109571160D01*
X156928333Y-109646148D01*
X156939500Y-109711874D01*
X156939500Y-119058612D01*
X156938049Y-119082598D01*
X156934722Y-119110000D01*
X156937814Y-119135468D01*
X156938049Y-119137399D01*
X156939500Y-119161387D01*
X156939500Y-119174069D01*
X156945737Y-119205428D01*
X156948109Y-119220258D01*
X156953763Y-119266818D01*
X156955958Y-119272606D01*
X156956694Y-119274547D01*
X156961274Y-119290505D01*
X156961660Y-119290388D01*
X156964497Y-119299741D01*
X156984090Y-119347044D01*
X156986304Y-119352625D01*
X157009271Y-119413182D01*
X157009780Y-119414523D01*
X157029523Y-119443125D01*
X157051063Y-119474331D01*
X157052746Y-119476811D01*
X157064303Y-119494106D01*
X157084724Y-119524669D01*
X157086297Y-119526586D01*
X157096237Y-119539778D01*
X157099517Y-119544530D01*
X157139441Y-119579899D01*
X157148195Y-119588140D01*
X157175331Y-119615276D01*
X157180516Y-119618740D01*
X157201917Y-119635247D01*
X157217760Y-119649283D01*
X157247908Y-119665106D01*
X157265987Y-119675850D01*
X157281873Y-119686465D01*
X157305461Y-119696235D01*
X157321792Y-119703884D01*
X157338239Y-119712516D01*
X157357635Y-119722696D01*
X157371925Y-119726218D01*
X157399574Y-119735294D01*
X157400250Y-119735499D01*
X157400252Y-119735499D01*
X157400256Y-119735501D01*
X157444248Y-119744252D01*
X157452956Y-119746190D01*
X157511015Y-119760500D01*
X157511018Y-119760500D01*
X157668984Y-119760500D01*
X157668985Y-119760500D01*
X157727029Y-119746193D01*
X157735768Y-119744248D01*
X157779744Y-119735501D01*
X157779749Y-119735498D01*
X157780457Y-119735284D01*
X157808066Y-119726219D01*
X157822365Y-119722696D01*
X157858208Y-119703882D01*
X157874533Y-119696237D01*
X157898127Y-119686465D01*
X157914024Y-119675842D01*
X157932090Y-119665106D01*
X157962240Y-119649283D01*
X157978084Y-119635245D01*
X157999487Y-119618738D01*
X158004669Y-119615276D01*
X158031815Y-119588128D01*
X158040535Y-119579919D01*
X158080483Y-119544530D01*
X158083751Y-119539793D01*
X158093713Y-119526573D01*
X158095273Y-119524672D01*
X158095273Y-119524671D01*
X158095276Y-119524669D01*
X158127304Y-119476732D01*
X158128936Y-119474331D01*
X158170220Y-119414523D01*
X158170730Y-119413180D01*
X158193692Y-119352631D01*
X158195908Y-119347044D01*
X158215501Y-119299744D01*
X158215503Y-119299732D01*
X158218339Y-119290387D01*
X158218728Y-119290505D01*
X158223313Y-119274527D01*
X158226237Y-119266818D01*
X158231890Y-119220258D01*
X158234262Y-119205428D01*
X158240500Y-119174067D01*
X158240500Y-119161387D01*
X158241951Y-119137399D01*
X158242186Y-119135468D01*
X158245278Y-119110000D01*
X158241951Y-119082598D01*
X158240500Y-119058612D01*
X158240500Y-116409999D01*
X164734722Y-116409999D01*
X164734722Y-116410000D01*
X164753763Y-116566819D01*
X164753763Y-116566821D01*
X164809777Y-116714518D01*
X164809779Y-116714520D01*
X164809780Y-116714523D01*
X164899517Y-116844530D01*
X165017760Y-116949283D01*
X165157635Y-117022696D01*
X165311015Y-117060500D01*
X165311017Y-117060500D01*
X165468983Y-117060500D01*
X165468985Y-117060500D01*
X165622365Y-117022696D01*
X165762240Y-116949283D01*
X165880483Y-116844530D01*
X165970220Y-116714523D01*
X165979247Y-116690720D01*
X166026236Y-116566821D01*
X166026236Y-116566820D01*
X166026237Y-116566818D01*
X166045278Y-116410000D01*
X166026237Y-116253182D01*
X166026236Y-116253179D01*
X166026236Y-116253178D01*
X165970222Y-116105481D01*
X165970221Y-116105479D01*
X165970220Y-116105477D01*
X165880483Y-115975470D01*
X165762240Y-115870717D01*
X165689796Y-115832695D01*
X165622366Y-115797304D01*
X165571238Y-115784702D01*
X165468985Y-115759500D01*
X165311015Y-115759500D01*
X165234325Y-115778402D01*
X165157633Y-115797304D01*
X165017760Y-115870717D01*
X165017756Y-115870720D01*
X164899518Y-115975468D01*
X164809780Y-116105477D01*
X164809777Y-116105481D01*
X164753763Y-116253178D01*
X164753763Y-116253180D01*
X164734722Y-116409999D01*
X158240500Y-116409999D01*
X158240500Y-115369999D01*
X162754722Y-115369999D01*
X162754722Y-115370000D01*
X162773763Y-115526819D01*
X162773763Y-115526821D01*
X162829777Y-115674518D01*
X162829779Y-115674520D01*
X162829780Y-115674523D01*
X162919517Y-115804530D01*
X163037760Y-115909283D01*
X163177635Y-115982696D01*
X163331015Y-116020500D01*
X163331017Y-116020500D01*
X163488983Y-116020500D01*
X163488985Y-116020500D01*
X163642365Y-115982696D01*
X163782240Y-115909283D01*
X163900483Y-115804530D01*
X163990220Y-115674523D01*
X164046237Y-115526818D01*
X164065278Y-115370000D01*
X164046237Y-115213182D01*
X164046236Y-115213179D01*
X164046236Y-115213178D01*
X163990222Y-115065481D01*
X163990221Y-115065479D01*
X163990220Y-115065477D01*
X163900483Y-114935470D01*
X163782240Y-114830717D01*
X163696030Y-114785470D01*
X163642366Y-114757304D01*
X163591238Y-114744702D01*
X163488985Y-114719500D01*
X163331015Y-114719500D01*
X163254325Y-114738402D01*
X163177633Y-114757304D01*
X163037760Y-114830717D01*
X163037756Y-114830720D01*
X162919518Y-114935468D01*
X162829780Y-115065477D01*
X162829777Y-115065481D01*
X162773763Y-115213178D01*
X162773763Y-115213180D01*
X162754722Y-115369999D01*
X158240500Y-115369999D01*
X158240500Y-112449999D01*
X160854722Y-112449999D01*
X160854722Y-112450000D01*
X160873763Y-112606819D01*
X160873763Y-112606821D01*
X160929777Y-112754518D01*
X160929779Y-112754520D01*
X160929780Y-112754523D01*
X161019517Y-112884530D01*
X161137760Y-112989283D01*
X161277635Y-113062696D01*
X161431015Y-113100500D01*
X161431017Y-113100500D01*
X161588983Y-113100500D01*
X161588985Y-113100500D01*
X161742365Y-113062696D01*
X161882240Y-112989283D01*
X162000483Y-112884530D01*
X162090220Y-112754523D01*
X162090222Y-112754518D01*
X162146236Y-112606821D01*
X162146236Y-112606820D01*
X162146237Y-112606818D01*
X162165278Y-112450000D01*
X162146237Y-112293182D01*
X162146236Y-112293179D01*
X162146236Y-112293178D01*
X162090222Y-112145481D01*
X162090221Y-112145479D01*
X162090220Y-112145477D01*
X162000483Y-112015470D01*
X161882240Y-111910717D01*
X161812302Y-111874010D01*
X161742366Y-111837304D01*
X161691238Y-111824702D01*
X161588985Y-111799500D01*
X161431015Y-111799500D01*
X161354325Y-111818402D01*
X161277633Y-111837304D01*
X161137760Y-111910717D01*
X161137756Y-111910720D01*
X161019518Y-112015468D01*
X160929780Y-112145477D01*
X160929777Y-112145481D01*
X160873763Y-112293178D01*
X160873763Y-112293180D01*
X160854722Y-112449999D01*
X158240500Y-112449999D01*
X158240500Y-109295931D01*
X158215501Y-109170258D01*
X158215501Y-109170256D01*
X158180828Y-109086549D01*
X158166467Y-109051877D01*
X158166466Y-109051876D01*
X158166465Y-109051873D01*
X158128279Y-108994723D01*
X158128278Y-108994721D01*
X158095281Y-108945336D01*
X158095274Y-108945328D01*
X154634671Y-105484725D01*
X154634663Y-105484718D01*
X154528130Y-105413537D01*
X154528122Y-105413532D01*
X154434258Y-105374653D01*
X154409744Y-105364499D01*
X154409742Y-105364498D01*
X154409741Y-105364498D01*
X154325582Y-105347757D01*
X154284069Y-105339500D01*
X115615931Y-105339500D01*
X115584725Y-105345707D01*
X115490258Y-105364498D01*
X115371877Y-105413532D01*
X115371869Y-105413537D01*
X115265336Y-105484718D01*
X115265328Y-105484725D01*
X108624725Y-112125328D01*
X108624718Y-112125336D01*
X108553537Y-112231869D01*
X108553532Y-112231877D01*
X108504498Y-112350258D01*
X108479500Y-112475931D01*
X108479500Y-116426677D01*
X108459793Y-116513020D01*
X108404574Y-116582261D01*
X108324782Y-116620688D01*
X108236218Y-116620688D01*
X108232878Y-116619895D01*
X108166286Y-116603482D01*
X108068985Y-116579500D01*
X107911015Y-116579500D01*
X107834325Y-116598402D01*
X107757633Y-116617304D01*
X107617760Y-116690717D01*
X107617756Y-116690720D01*
X107499518Y-116795468D01*
X107409780Y-116925477D01*
X107409777Y-116925481D01*
X107353763Y-117073178D01*
X107353763Y-117073180D01*
X107334722Y-117229999D01*
X107334722Y-117230000D01*
X107353763Y-117386819D01*
X107353763Y-117386821D01*
X107409777Y-117534518D01*
X107409779Y-117534520D01*
X107409780Y-117534523D01*
X107499517Y-117664530D01*
X107617760Y-117769283D01*
X107757635Y-117842696D01*
X107911015Y-117880500D01*
X107911017Y-117880500D01*
X108068983Y-117880500D01*
X108068985Y-117880500D01*
X108222365Y-117842696D01*
X108222368Y-117842694D01*
X108232877Y-117840104D01*
X108321427Y-117838576D01*
X108401871Y-117875619D01*
X108458276Y-117943898D01*
X108479470Y-118029887D01*
X108479500Y-118033322D01*
X108479500Y-119728645D01*
X108459793Y-119814988D01*
X108404574Y-119884229D01*
X108324782Y-119922656D01*
X108236218Y-119922656D01*
X108156426Y-119884229D01*
X108115039Y-119839205D01*
X108079466Y-119785968D01*
X108079458Y-119785958D01*
X107954041Y-119660541D01*
X107954034Y-119660535D01*
X107806550Y-119561988D01*
X107724900Y-119528168D01*
X107642666Y-119494106D01*
X107642663Y-119494105D01*
X107642660Y-119494104D01*
X107503108Y-119466346D01*
X107468691Y-119459500D01*
X106191309Y-119459500D01*
X106162576Y-119465215D01*
X106017339Y-119494104D01*
X105853449Y-119561988D01*
X105705965Y-119660535D01*
X105705958Y-119660541D01*
X105580541Y-119785958D01*
X105580535Y-119785965D01*
X105481988Y-119933449D01*
X105414104Y-120097339D01*
X105379500Y-120271309D01*
X103950500Y-120271309D01*
X103915894Y-120097334D01*
X103848013Y-119933453D01*
X103848011Y-119933450D01*
X103848011Y-119933449D01*
X103749464Y-119785965D01*
X103749458Y-119785958D01*
X103624041Y-119660541D01*
X103624034Y-119660535D01*
X103476550Y-119561988D01*
X103394900Y-119528168D01*
X103312666Y-119494106D01*
X103312663Y-119494105D01*
X103312660Y-119494104D01*
X103173108Y-119466346D01*
X103138691Y-119459500D01*
X102161309Y-119459500D01*
X102132576Y-119465215D01*
X101987339Y-119494104D01*
X101823449Y-119561988D01*
X101675965Y-119660535D01*
X101675958Y-119660541D01*
X101550541Y-119785958D01*
X101550535Y-119785965D01*
X101451988Y-119933450D01*
X101451984Y-119933457D01*
X101383352Y-120099154D01*
X101332104Y-120171383D01*
X101254591Y-120214223D01*
X101166167Y-120219190D01*
X101084345Y-120185298D01*
X101025331Y-120119262D01*
X101000813Y-120034160D01*
X101000500Y-120023001D01*
X101000500Y-112329999D01*
X106414722Y-112329999D01*
X106414722Y-112330000D01*
X106433763Y-112486819D01*
X106433763Y-112486821D01*
X106489777Y-112634518D01*
X106489779Y-112634520D01*
X106489780Y-112634523D01*
X106579517Y-112764530D01*
X106697760Y-112869283D01*
X106837635Y-112942696D01*
X106991015Y-112980500D01*
X106991017Y-112980500D01*
X107148983Y-112980500D01*
X107148985Y-112980500D01*
X107302365Y-112942696D01*
X107442240Y-112869283D01*
X107560483Y-112764530D01*
X107650220Y-112634523D01*
X107706237Y-112486818D01*
X107725278Y-112330000D01*
X107706237Y-112173182D01*
X107706236Y-112173179D01*
X107706236Y-112173178D01*
X107650222Y-112025481D01*
X107650221Y-112025479D01*
X107650220Y-112025477D01*
X107560483Y-111895470D01*
X107442240Y-111790717D01*
X107372302Y-111754010D01*
X107302366Y-111717304D01*
X107251238Y-111704702D01*
X107148985Y-111679500D01*
X106991015Y-111679500D01*
X106914325Y-111698402D01*
X106837633Y-111717304D01*
X106697760Y-111790717D01*
X106697756Y-111790720D01*
X106579518Y-111895468D01*
X106489780Y-112025477D01*
X106489777Y-112025481D01*
X106433763Y-112173178D01*
X106433763Y-112173180D01*
X106414722Y-112329999D01*
X101000500Y-112329999D01*
X101000500Y-105004604D01*
X101000606Y-105000000D01*
X102844475Y-105000000D01*
X102864552Y-105293511D01*
X102889493Y-105413532D01*
X102924408Y-105581555D01*
X103022929Y-105858767D01*
X103072363Y-105954170D01*
X103158278Y-106119976D01*
X103264304Y-106270182D01*
X103327929Y-106360318D01*
X103327938Y-106360330D01*
X103528740Y-106575335D01*
X103633061Y-106660207D01*
X103756949Y-106760997D01*
X103756949Y-106760998D01*
X104008319Y-106913860D01*
X104167393Y-106982954D01*
X104278159Y-107031067D01*
X104496439Y-107092226D01*
X104561430Y-107110436D01*
X104561434Y-107110436D01*
X104561445Y-107110440D01*
X104852902Y-107150500D01*
X104852906Y-107150500D01*
X105147094Y-107150500D01*
X105147098Y-107150500D01*
X105438555Y-107110440D01*
X105721841Y-107031067D01*
X105991680Y-106913860D01*
X105991681Y-106913860D01*
X106117365Y-106837429D01*
X106243049Y-106760999D01*
X106471260Y-106575335D01*
X106672065Y-106360326D01*
X106841722Y-106119976D01*
X106977072Y-105858764D01*
X107075592Y-105581554D01*
X107135448Y-105293511D01*
X107155525Y-105000000D01*
X162844475Y-105000000D01*
X162864552Y-105293511D01*
X162889493Y-105413532D01*
X162924408Y-105581555D01*
X163022929Y-105858767D01*
X163072363Y-105954170D01*
X163158278Y-106119976D01*
X163264304Y-106270182D01*
X163327929Y-106360318D01*
X163327938Y-106360330D01*
X163528740Y-106575335D01*
X163633061Y-106660207D01*
X163756949Y-106760997D01*
X163756949Y-106760998D01*
X164008319Y-106913860D01*
X164167393Y-106982954D01*
X164278159Y-107031067D01*
X164496439Y-107092226D01*
X164561430Y-107110436D01*
X164561434Y-107110436D01*
X164561445Y-107110440D01*
X164852902Y-107150500D01*
X164852906Y-107150500D01*
X165147094Y-107150500D01*
X165147098Y-107150500D01*
X165438555Y-107110440D01*
X165721841Y-107031067D01*
X165991680Y-106913860D01*
X165991681Y-106913860D01*
X166117365Y-106837429D01*
X166243049Y-106760999D01*
X166471260Y-106575335D01*
X166672065Y-106360326D01*
X166841722Y-106119976D01*
X166977072Y-105858764D01*
X167075592Y-105581554D01*
X167135448Y-105293511D01*
X167155525Y-105000000D01*
X167135448Y-104706489D01*
X167075592Y-104418446D01*
X166977072Y-104141236D01*
X166841722Y-103880024D01*
X166672065Y-103639674D01*
X166672063Y-103639672D01*
X166672061Y-103639669D01*
X166471259Y-103424664D01*
X166243050Y-103239002D01*
X166243050Y-103239001D01*
X165991680Y-103086139D01*
X165721846Y-102968935D01*
X165721844Y-102968934D01*
X165721841Y-102968933D01*
X165721834Y-102968931D01*
X165438569Y-102889563D01*
X165438556Y-102889560D01*
X165368994Y-102879999D01*
X165147098Y-102849500D01*
X164852902Y-102849500D01*
X164658597Y-102876206D01*
X164561443Y-102889560D01*
X164561430Y-102889563D01*
X164278165Y-102968931D01*
X164278153Y-102968935D01*
X164008319Y-103086139D01*
X164008318Y-103086139D01*
X163756949Y-103239001D01*
X163756949Y-103239002D01*
X163528740Y-103424664D01*
X163327938Y-103639669D01*
X163327929Y-103639681D01*
X163194678Y-103828457D01*
X163158278Y-103880024D01*
X163118560Y-103956675D01*
X163022929Y-104141232D01*
X162924408Y-104418444D01*
X162924408Y-104418446D01*
X162864552Y-104706489D01*
X162844475Y-105000000D01*
X107155525Y-105000000D01*
X107135448Y-104706489D01*
X107075592Y-104418446D01*
X106977072Y-104141236D01*
X106841722Y-103880024D01*
X106672065Y-103639674D01*
X106672063Y-103639672D01*
X106672061Y-103639669D01*
X106471259Y-103424664D01*
X106243050Y-103239002D01*
X106243050Y-103239001D01*
X105991680Y-103086139D01*
X105721846Y-102968935D01*
X105721844Y-102968934D01*
X105721841Y-102968933D01*
X105721834Y-102968931D01*
X105438569Y-102889563D01*
X105438556Y-102889560D01*
X105368994Y-102879999D01*
X117704722Y-102879999D01*
X117704722Y-102880000D01*
X117723763Y-103036819D01*
X117723763Y-103036821D01*
X117779777Y-103184518D01*
X117779779Y-103184520D01*
X117779780Y-103184523D01*
X117869517Y-103314530D01*
X117987760Y-103419283D01*
X118127635Y-103492696D01*
X118281015Y-103530500D01*
X118281017Y-103530500D01*
X118438983Y-103530500D01*
X118438985Y-103530500D01*
X118592365Y-103492696D01*
X118732240Y-103419283D01*
X118850483Y-103314530D01*
X118940220Y-103184523D01*
X118940222Y-103184518D01*
X118996236Y-103036821D01*
X118996236Y-103036820D01*
X118996237Y-103036818D01*
X119015278Y-102880000D01*
X119014064Y-102869999D01*
X122854722Y-102869999D01*
X122854722Y-102870000D01*
X122873763Y-103026819D01*
X122873763Y-103026821D01*
X122929777Y-103174518D01*
X122929779Y-103174520D01*
X122929780Y-103174523D01*
X123019517Y-103304530D01*
X123137760Y-103409283D01*
X123277635Y-103482696D01*
X123431015Y-103520500D01*
X123431017Y-103520500D01*
X123588983Y-103520500D01*
X123588985Y-103520500D01*
X123742365Y-103482696D01*
X123882240Y-103409283D01*
X124000483Y-103304530D01*
X124090220Y-103174523D01*
X124123740Y-103086139D01*
X124146236Y-103026821D01*
X124146236Y-103026820D01*
X124146237Y-103026818D01*
X124165278Y-102870000D01*
X124165278Y-102869999D01*
X127744722Y-102869999D01*
X127744722Y-102870000D01*
X127763763Y-103026819D01*
X127763763Y-103026821D01*
X127819777Y-103174518D01*
X127819779Y-103174520D01*
X127819780Y-103174523D01*
X127909517Y-103304530D01*
X128027760Y-103409283D01*
X128167635Y-103482696D01*
X128321015Y-103520500D01*
X128321017Y-103520500D01*
X128478983Y-103520500D01*
X128478985Y-103520500D01*
X128632365Y-103482696D01*
X128772240Y-103409283D01*
X128890483Y-103304530D01*
X128980220Y-103174523D01*
X129013740Y-103086139D01*
X129036236Y-103026821D01*
X129036236Y-103026820D01*
X129036237Y-103026818D01*
X129055278Y-102870000D01*
X129036237Y-102713182D01*
X129036236Y-102713179D01*
X129036236Y-102713178D01*
X128980222Y-102565481D01*
X128980221Y-102565479D01*
X128980220Y-102565477D01*
X128890483Y-102435470D01*
X128772240Y-102330717D01*
X128702302Y-102294010D01*
X128632366Y-102257304D01*
X128581238Y-102244702D01*
X128478985Y-102219500D01*
X128321015Y-102219500D01*
X128244325Y-102238402D01*
X128167633Y-102257304D01*
X128027760Y-102330717D01*
X128027756Y-102330720D01*
X127909518Y-102435468D01*
X127819780Y-102565477D01*
X127819777Y-102565481D01*
X127763763Y-102713178D01*
X127763763Y-102713180D01*
X127744722Y-102869999D01*
X124165278Y-102869999D01*
X124146237Y-102713182D01*
X124146236Y-102713179D01*
X124146236Y-102713178D01*
X124090222Y-102565481D01*
X124090221Y-102565479D01*
X124090220Y-102565477D01*
X124000483Y-102435470D01*
X123882240Y-102330717D01*
X123812302Y-102294010D01*
X123742366Y-102257304D01*
X123691238Y-102244702D01*
X123588985Y-102219500D01*
X123431015Y-102219500D01*
X123354325Y-102238402D01*
X123277633Y-102257304D01*
X123137760Y-102330717D01*
X123137756Y-102330720D01*
X123019518Y-102435468D01*
X122929780Y-102565477D01*
X122929777Y-102565481D01*
X122873763Y-102713178D01*
X122873763Y-102713180D01*
X122854722Y-102869999D01*
X119014064Y-102869999D01*
X118996237Y-102723182D01*
X118996236Y-102723179D01*
X118996236Y-102723178D01*
X118940222Y-102575481D01*
X118940221Y-102575479D01*
X118940220Y-102575477D01*
X118850483Y-102445470D01*
X118732240Y-102340717D01*
X118652842Y-102299045D01*
X118592366Y-102267304D01*
X118541238Y-102254702D01*
X118438985Y-102229500D01*
X118281015Y-102229500D01*
X118204325Y-102248402D01*
X118127633Y-102267304D01*
X117987760Y-102340717D01*
X117987756Y-102340720D01*
X117869518Y-102445468D01*
X117779780Y-102575477D01*
X117779777Y-102575481D01*
X117723763Y-102723178D01*
X117723763Y-102723180D01*
X117704722Y-102879999D01*
X105368994Y-102879999D01*
X105147098Y-102849500D01*
X104852902Y-102849500D01*
X104658597Y-102876206D01*
X104561443Y-102889560D01*
X104561430Y-102889563D01*
X104278165Y-102968931D01*
X104278153Y-102968935D01*
X104008319Y-103086139D01*
X104008318Y-103086139D01*
X103756949Y-103239001D01*
X103756949Y-103239002D01*
X103528740Y-103424664D01*
X103327938Y-103639669D01*
X103327929Y-103639681D01*
X103194678Y-103828457D01*
X103158278Y-103880024D01*
X103118560Y-103956675D01*
X103022929Y-104141232D01*
X102924408Y-104418444D01*
X102924408Y-104418446D01*
X102864552Y-104706489D01*
X102844475Y-105000000D01*
X101000606Y-105000000D01*
X101000712Y-104995414D01*
X101017136Y-104640163D01*
X101018832Y-104621860D01*
X101047207Y-104418446D01*
X101067331Y-104274183D01*
X101070702Y-104256149D01*
X101151074Y-103914429D01*
X101156097Y-103896774D01*
X101267659Y-103563918D01*
X101274284Y-103546816D01*
X101416077Y-103225685D01*
X101424268Y-103209237D01*
X101492833Y-103086139D01*
X101595089Y-102902555D01*
X101604740Y-102886967D01*
X101803143Y-102597335D01*
X101814199Y-102582695D01*
X102038468Y-102312617D01*
X102050831Y-102299056D01*
X102299056Y-102050831D01*
X102312617Y-102038468D01*
X102582695Y-101814199D01*
X102597335Y-101803143D01*
X102886967Y-101604740D01*
X102902555Y-101595089D01*
X103209237Y-101424268D01*
X103225685Y-101416077D01*
X103546816Y-101274284D01*
X103563918Y-101267659D01*
X103896774Y-101156097D01*
X103914429Y-101151074D01*
X104256149Y-101070702D01*
X104274183Y-101067331D01*
X104621864Y-101018831D01*
X104640160Y-101017136D01*
X104995414Y-101000711D01*
X105004604Y-101000500D01*
X105092710Y-101000500D01*
X164907290Y-101000500D01*
X164995396Y-101000500D01*
X165004585Y-101000711D01*
G37*
%TD.AperFunction*%
%TD*%
M02*
