%TF.GenerationSoftware,KiCad,Pcbnew,8.0.9-8.0.9-0~ubuntu24.04.1*%
%TF.CreationDate,2025-05-04T14:10:30+03:00*%
%TF.ProjectId,vario_kicad,76617269-6f5f-46b6-9963-61642e6b6963,rev?*%
%TF.SameCoordinates,Original*%
%TF.FileFunction,Soldermask,Bot*%
%TF.FilePolarity,Negative*%
%FSLAX46Y46*%
G04 Gerber Fmt 4.6, Leading zero omitted, Abs format (unit mm)*
G04 Created by KiCad (PCBNEW 8.0.9-8.0.9-0~ubuntu24.04.1) date 2025-05-04 14:10:30*
%MOMM*%
%LPD*%
G01*
G04 APERTURE LIST*
G04 Aperture macros list*
%AMRoundRect*
0 Rectangle with rounded corners*
0 $1 Rounding radius*
0 $2 $3 $4 $5 $6 $7 $8 $9 X,Y pos of 4 corners*
0 Add a 4 corners polygon primitive as box body*
4,1,4,$2,$3,$4,$5,$6,$7,$8,$9,$2,$3,0*
0 Add four circle primitives for the rounded corners*
1,1,$1+$1,$2,$3*
1,1,$1+$1,$4,$5*
1,1,$1+$1,$6,$7*
1,1,$1+$1,$8,$9*
0 Add four rect primitives between the rounded corners*
20,1,$1+$1,$2,$3,$4,$5,0*
20,1,$1+$1,$4,$5,$6,$7,0*
20,1,$1+$1,$6,$7,$8,$9,0*
20,1,$1+$1,$8,$9,$2,$3,0*%
%AMFreePoly0*
4,1,6,1.000000,0.000000,0.500000,-0.750000,-0.500000,-0.750000,-0.500000,0.750000,0.500000,0.750000,1.000000,0.000000,1.000000,0.000000,$1*%
%AMFreePoly1*
4,1,6,0.500000,-0.750000,-0.650000,-0.750000,-0.150000,0.000000,-0.650000,0.750000,0.500000,0.750000,0.500000,-0.750000,0.500000,-0.750000,$1*%
G04 Aperture macros list end*
%ADD10C,1.700000*%
%ADD11C,3.500000*%
%ADD12C,1.524000*%
%ADD13C,0.650000*%
%ADD14O,2.100000X1.000000*%
%ADD15O,1.800000X1.000000*%
%ADD16R,1.730000X2.360000*%
%ADD17RoundRect,0.087500X-0.587500X-0.087500X0.587500X-0.087500X0.587500X0.087500X-0.587500X0.087500X0*%
%ADD18RoundRect,0.140000X-0.170000X0.140000X-0.170000X-0.140000X0.170000X-0.140000X0.170000X0.140000X0*%
%ADD19RoundRect,0.150000X0.150000X-0.587500X0.150000X0.587500X-0.150000X0.587500X-0.150000X-0.587500X0*%
%ADD20RoundRect,0.140000X0.140000X0.170000X-0.140000X0.170000X-0.140000X-0.170000X0.140000X-0.170000X0*%
%ADD21FreePoly0,90.000000*%
%ADD22FreePoly1,90.000000*%
%ADD23RoundRect,0.135000X-0.135000X-0.185000X0.135000X-0.185000X0.135000X0.185000X-0.135000X0.185000X0*%
%ADD24RoundRect,0.140000X0.170000X-0.140000X0.170000X0.140000X-0.170000X0.140000X-0.170000X-0.140000X0*%
%ADD25RoundRect,0.135000X-0.185000X0.135000X-0.185000X-0.135000X0.185000X-0.135000X0.185000X0.135000X0*%
%ADD26R,1.100000X1.050000*%
%ADD27RoundRect,0.150000X0.512500X0.150000X-0.512500X0.150000X-0.512500X-0.150000X0.512500X-0.150000X0*%
%ADD28RoundRect,0.135000X0.135000X0.185000X-0.135000X0.185000X-0.135000X-0.185000X0.135000X-0.185000X0*%
G04 APERTURE END LIST*
D10*
%TO.C,LS1*%
X150500000Y-120250000D03*
X150500000Y-110250000D03*
%TD*%
D11*
%TO.C,H3*%
X165000000Y-105000000D03*
%TD*%
%TO.C,H4*%
X165000000Y-145000000D03*
%TD*%
%TO.C,H2*%
X105000000Y-145000000D03*
%TD*%
D12*
%TO.C,J2*%
X104800000Y-137350000D03*
X106567767Y-139117767D03*
X108335534Y-140885534D03*
X110103301Y-142653301D03*
X111871068Y-144421068D03*
X113638835Y-146188835D03*
%TD*%
D13*
%TO.C,U4*%
X106330000Y-121790000D03*
X106330000Y-127570000D03*
D14*
X106830000Y-120360000D03*
D15*
X102650000Y-120360000D03*
D14*
X106830000Y-129000000D03*
D15*
X102650000Y-129000000D03*
%TD*%
D11*
%TO.C,H1*%
X105000000Y-105000000D03*
%TD*%
D16*
%TO.C,U1*%
X148275000Y-115625000D03*
D17*
X146100000Y-116600000D03*
X146100000Y-115950000D03*
X146100000Y-115300000D03*
X146100000Y-114650000D03*
X150450000Y-114650000D03*
X150450000Y-115300000D03*
X150450000Y-115950000D03*
X150450000Y-116600000D03*
%TD*%
D18*
%TO.C,C14*%
X159220000Y-118290000D03*
X159220000Y-119250000D03*
%TD*%
D19*
%TO.C,U8*%
X159460000Y-129465000D03*
X157560000Y-129465000D03*
X158510000Y-127590000D03*
%TD*%
D20*
%TO.C,C27*%
X122040000Y-134240000D03*
X121080000Y-134240000D03*
%TD*%
D21*
%TO.C,JP2*%
X165040000Y-137140000D03*
D22*
X165040000Y-135690000D03*
%TD*%
D23*
%TO.C,R29*%
X159250000Y-112450000D03*
X160270000Y-112450000D03*
%TD*%
D24*
%TO.C,C19*%
X155660000Y-128920000D03*
X155660000Y-127960000D03*
%TD*%
D18*
%TO.C,C25*%
X123430000Y-130710000D03*
X123430000Y-131670000D03*
%TD*%
D20*
%TO.C,C9*%
X141270000Y-113970000D03*
X140310000Y-113970000D03*
%TD*%
D25*
%TO.C,R31*%
X162760000Y-135890000D03*
X162760000Y-136910000D03*
%TD*%
D26*
%TO.C,Y1*%
X123630000Y-134240000D03*
X123630000Y-136090000D03*
%TD*%
D27*
%TO.C,U7*%
X161500000Y-114240000D03*
X161500000Y-115190000D03*
X161500000Y-116140000D03*
X159225000Y-116140000D03*
X159225000Y-114240000D03*
%TD*%
D25*
%TO.C,R32*%
X161500000Y-118430000D03*
X161500000Y-119450000D03*
%TD*%
%TO.C,R33*%
X157590000Y-120620000D03*
X157590000Y-121640000D03*
%TD*%
D18*
%TO.C,C7*%
X143470000Y-117360000D03*
X143470000Y-118320000D03*
%TD*%
%TO.C,C11*%
X124530000Y-130720000D03*
X124530000Y-131680000D03*
%TD*%
D23*
%TO.C,R16*%
X144160000Y-119990000D03*
X145180000Y-119990000D03*
%TD*%
D28*
%TO.C,R18*%
X143770000Y-113970000D03*
X142750000Y-113970000D03*
%TD*%
D12*
%TO.C,BT2*%
X165050000Y-125100000D03*
X165050000Y-132100000D03*
%TD*%
D18*
%TO.C,C5*%
X153280000Y-115200000D03*
X153280000Y-116160000D03*
%TD*%
%TO.C,C18*%
X161180000Y-128190000D03*
X161180000Y-129150000D03*
%TD*%
%TO.C,C6*%
X154760000Y-115200000D03*
X154760000Y-116160000D03*
%TD*%
D20*
%TO.C,C26*%
X122060000Y-136090000D03*
X121100000Y-136090000D03*
%TD*%
D28*
%TO.C,R28*%
X165900000Y-114300000D03*
X164880000Y-114300000D03*
%TD*%
M02*
