%TF.GenerationSoftware,KiCad,Pcbnew,8.0.9-8.0.9-0~ubuntu24.04.1*%
%TF.CreationDate,2025-05-04T14:54:54+03:00*%
%TF.ProjectId,vario_kicad,76617269-6f5f-46b6-9963-61642e6b6963,rev?*%
%TF.SameCoordinates,Original*%
%TF.FileFunction,Legend,Top*%
%TF.FilePolarity,Positive*%
%FSLAX46Y46*%
G04 Gerber Fmt 4.6, Leading zero omitted, Abs format (unit mm)*
G04 Created by KiCad (PCBNEW 8.0.9-8.0.9-0~ubuntu24.04.1) date 2025-05-04 14:54:54*
%MOMM*%
%LPD*%
G01*
G04 APERTURE LIST*
%ADD10C,0.200000*%
%ADD11C,0.120000*%
%ADD12C,0.300000*%
%ADD13C,0.100000*%
G04 APERTURE END LIST*
D10*
X150423006Y-139342742D02*
X150023006Y-138771314D01*
X149737292Y-139342742D02*
X149737292Y-138142742D01*
X149737292Y-138142742D02*
X150194435Y-138142742D01*
X150194435Y-138142742D02*
X150308720Y-138199885D01*
X150308720Y-138199885D02*
X150365863Y-138257028D01*
X150365863Y-138257028D02*
X150423006Y-138371314D01*
X150423006Y-138371314D02*
X150423006Y-138542742D01*
X150423006Y-138542742D02*
X150365863Y-138657028D01*
X150365863Y-138657028D02*
X150308720Y-138714171D01*
X150308720Y-138714171D02*
X150194435Y-138771314D01*
X150194435Y-138771314D02*
X149737292Y-138771314D01*
X151565863Y-139342742D02*
X150880149Y-139342742D01*
X151223006Y-139342742D02*
X151223006Y-138142742D01*
X151223006Y-138142742D02*
X151108720Y-138314171D01*
X151108720Y-138314171D02*
X150994435Y-138428457D01*
X150994435Y-138428457D02*
X150880149Y-138485600D01*
X152080149Y-139228457D02*
X152137292Y-139285600D01*
X152137292Y-139285600D02*
X152080149Y-139342742D01*
X152080149Y-139342742D02*
X152023006Y-139285600D01*
X152023006Y-139285600D02*
X152080149Y-139228457D01*
X152080149Y-139228457D02*
X152080149Y-139342742D01*
X152880149Y-138142742D02*
X152994435Y-138142742D01*
X152994435Y-138142742D02*
X153108721Y-138199885D01*
X153108721Y-138199885D02*
X153165864Y-138257028D01*
X153165864Y-138257028D02*
X153223006Y-138371314D01*
X153223006Y-138371314D02*
X153280149Y-138599885D01*
X153280149Y-138599885D02*
X153280149Y-138885600D01*
X153280149Y-138885600D02*
X153223006Y-139114171D01*
X153223006Y-139114171D02*
X153165864Y-139228457D01*
X153165864Y-139228457D02*
X153108721Y-139285600D01*
X153108721Y-139285600D02*
X152994435Y-139342742D01*
X152994435Y-139342742D02*
X152880149Y-139342742D01*
X152880149Y-139342742D02*
X152765864Y-139285600D01*
X152765864Y-139285600D02*
X152708721Y-139228457D01*
X152708721Y-139228457D02*
X152651578Y-139114171D01*
X152651578Y-139114171D02*
X152594435Y-138885600D01*
X152594435Y-138885600D02*
X152594435Y-138599885D01*
X152594435Y-138599885D02*
X152651578Y-138371314D01*
X152651578Y-138371314D02*
X152708721Y-138257028D01*
X152708721Y-138257028D02*
X152765864Y-138199885D01*
X152765864Y-138199885D02*
X152880149Y-138142742D01*
X150486266Y-112380326D02*
X150486266Y-111618422D01*
X150486266Y-118880326D02*
X150486266Y-118118422D01*
X150867219Y-118499374D02*
X150105314Y-118499374D01*
X104552257Y-122317292D02*
X103580828Y-122317292D01*
X103580828Y-122317292D02*
X103466542Y-122374435D01*
X103466542Y-122374435D02*
X103409400Y-122431578D01*
X103409400Y-122431578D02*
X103352257Y-122545863D01*
X103352257Y-122545863D02*
X103352257Y-122774435D01*
X103352257Y-122774435D02*
X103409400Y-122888720D01*
X103409400Y-122888720D02*
X103466542Y-122945863D01*
X103466542Y-122945863D02*
X103580828Y-123003006D01*
X103580828Y-123003006D02*
X104552257Y-123003006D01*
X103409400Y-123517292D02*
X103352257Y-123688721D01*
X103352257Y-123688721D02*
X103352257Y-123974435D01*
X103352257Y-123974435D02*
X103409400Y-124088721D01*
X103409400Y-124088721D02*
X103466542Y-124145863D01*
X103466542Y-124145863D02*
X103580828Y-124203006D01*
X103580828Y-124203006D02*
X103695114Y-124203006D01*
X103695114Y-124203006D02*
X103809400Y-124145863D01*
X103809400Y-124145863D02*
X103866542Y-124088721D01*
X103866542Y-124088721D02*
X103923685Y-123974435D01*
X103923685Y-123974435D02*
X103980828Y-123745863D01*
X103980828Y-123745863D02*
X104037971Y-123631578D01*
X104037971Y-123631578D02*
X104095114Y-123574435D01*
X104095114Y-123574435D02*
X104209400Y-123517292D01*
X104209400Y-123517292D02*
X104323685Y-123517292D01*
X104323685Y-123517292D02*
X104437971Y-123574435D01*
X104437971Y-123574435D02*
X104495114Y-123631578D01*
X104495114Y-123631578D02*
X104552257Y-123745863D01*
X104552257Y-123745863D02*
X104552257Y-124031578D01*
X104552257Y-124031578D02*
X104495114Y-124203006D01*
X103980828Y-125117292D02*
X103923685Y-125288720D01*
X103923685Y-125288720D02*
X103866542Y-125345863D01*
X103866542Y-125345863D02*
X103752257Y-125403006D01*
X103752257Y-125403006D02*
X103580828Y-125403006D01*
X103580828Y-125403006D02*
X103466542Y-125345863D01*
X103466542Y-125345863D02*
X103409400Y-125288720D01*
X103409400Y-125288720D02*
X103352257Y-125174435D01*
X103352257Y-125174435D02*
X103352257Y-124717292D01*
X103352257Y-124717292D02*
X104552257Y-124717292D01*
X104552257Y-124717292D02*
X104552257Y-125117292D01*
X104552257Y-125117292D02*
X104495114Y-125231578D01*
X104495114Y-125231578D02*
X104437971Y-125288720D01*
X104437971Y-125288720D02*
X104323685Y-125345863D01*
X104323685Y-125345863D02*
X104209400Y-125345863D01*
X104209400Y-125345863D02*
X104095114Y-125288720D01*
X104095114Y-125288720D02*
X104037971Y-125231578D01*
X104037971Y-125231578D02*
X103980828Y-125117292D01*
X103980828Y-125117292D02*
X103980828Y-124717292D01*
X103466542Y-127517292D02*
X103409400Y-127460149D01*
X103409400Y-127460149D02*
X103352257Y-127288721D01*
X103352257Y-127288721D02*
X103352257Y-127174435D01*
X103352257Y-127174435D02*
X103409400Y-127003006D01*
X103409400Y-127003006D02*
X103523685Y-126888721D01*
X103523685Y-126888721D02*
X103637971Y-126831578D01*
X103637971Y-126831578D02*
X103866542Y-126774435D01*
X103866542Y-126774435D02*
X104037971Y-126774435D01*
X104037971Y-126774435D02*
X104266542Y-126831578D01*
X104266542Y-126831578D02*
X104380828Y-126888721D01*
X104380828Y-126888721D02*
X104495114Y-127003006D01*
X104495114Y-127003006D02*
X104552257Y-127174435D01*
X104552257Y-127174435D02*
X104552257Y-127288721D01*
X104552257Y-127288721D02*
X104495114Y-127460149D01*
X104495114Y-127460149D02*
X104437971Y-127517292D01*
D11*
%TO.C,R40*%
X152670000Y-143393641D02*
X152670000Y-143086359D01*
X153430000Y-143393641D02*
X153430000Y-143086359D01*
%TO.C,D2*%
X123815000Y-105225000D02*
X126275000Y-105225000D01*
X126275000Y-103755000D02*
X123815000Y-103755000D01*
X126275000Y-105225000D02*
X126275000Y-103755000D01*
%TO.C,C30*%
X126939190Y-126421693D02*
X127091693Y-126269190D01*
X127448307Y-126930810D02*
X127600810Y-126778307D01*
%TO.C,R37*%
X153993641Y-144650000D02*
X153686359Y-144650000D01*
X153993641Y-145410000D02*
X153686359Y-145410000D01*
%TO.C,R5*%
X119756359Y-111300000D02*
X120063641Y-111300000D01*
X119756359Y-112060000D02*
X120063641Y-112060000D01*
%TO.C,R4*%
X103313641Y-131460000D02*
X103006359Y-131460000D01*
X103313641Y-132220000D02*
X103006359Y-132220000D01*
%TO.C,C2*%
X107402164Y-115750000D02*
X107617836Y-115750000D01*
X107402164Y-116470000D02*
X107617836Y-116470000D01*
%TO.C,C1*%
X109997836Y-115740000D02*
X109782164Y-115740000D01*
X109997836Y-116460000D02*
X109782164Y-116460000D01*
%TO.C,C17*%
X141330000Y-143927836D02*
X141330000Y-143712164D01*
X142050000Y-143927836D02*
X142050000Y-143712164D01*
%TO.C,R36*%
X141253641Y-145320000D02*
X140946359Y-145320000D01*
X141253641Y-146080000D02*
X140946359Y-146080000D01*
%TO.C,R26*%
X114339940Y-144217341D02*
X114122659Y-144000060D01*
X114877341Y-143679940D02*
X114660060Y-143462659D01*
%TO.C,R22*%
X161340000Y-134023641D02*
X161340000Y-133716359D01*
X162100000Y-134023641D02*
X162100000Y-133716359D01*
%TO.C,R30*%
X129403641Y-132150000D02*
X129096359Y-132150000D01*
X129403641Y-132910000D02*
X129096359Y-132910000D01*
%TO.C,D3*%
X118895000Y-105145000D02*
X121355000Y-105145000D01*
X121355000Y-103675000D02*
X118895000Y-103675000D01*
X121355000Y-105145000D02*
X121355000Y-103675000D01*
%TO.C,R23*%
X161340000Y-138153641D02*
X161340000Y-137846359D01*
X162100000Y-138153641D02*
X162100000Y-137846359D01*
%TO.C,TP4*%
X142830000Y-137820000D02*
G75*
G02*
X141430000Y-137820000I-700000J0D01*
G01*
X141430000Y-137820000D02*
G75*
G02*
X142830000Y-137820000I700000J0D01*
G01*
D12*
%TO.C,LS1*%
X162300000Y-115250000D02*
G75*
G02*
X138700000Y-115250000I-11800000J0D01*
G01*
X138700000Y-115250000D02*
G75*
G02*
X162300000Y-115250000I11800000J0D01*
G01*
D11*
%TO.C,C13*%
X132747836Y-135190000D02*
X132532164Y-135190000D01*
X132747836Y-135910000D02*
X132532164Y-135910000D01*
%TO.C,R27*%
X128843641Y-145020000D02*
X128536359Y-145020000D01*
X128843641Y-145780000D02*
X128536359Y-145780000D01*
%TO.C,R25*%
X151620000Y-131093641D02*
X151620000Y-130786359D01*
X152380000Y-131093641D02*
X152380000Y-130786359D01*
%TO.C,R17*%
X137923641Y-127630000D02*
X137616359Y-127630000D01*
X137923641Y-128390000D02*
X137616359Y-128390000D01*
%TO.C,Q1*%
X157140000Y-136430000D02*
X157140000Y-137360000D01*
X157140000Y-136430000D02*
X158600000Y-136430000D01*
X157140000Y-139590000D02*
X157140000Y-138660000D01*
X157940000Y-139590000D02*
X157140000Y-139590000D01*
X157940000Y-139590000D02*
X158740000Y-139590000D01*
X159480000Y-139950000D02*
X159000000Y-139950000D01*
X159240000Y-139620000D01*
X159480000Y-139950000D01*
G36*
X159480000Y-139950000D02*
G01*
X159000000Y-139950000D01*
X159240000Y-139620000D01*
X159480000Y-139950000D01*
G37*
%TO.C,C8*%
X136877836Y-126010000D02*
X136662164Y-126010000D01*
X136877836Y-126730000D02*
X136662164Y-126730000D01*
%TO.C,R39*%
X139870000Y-143993641D02*
X139870000Y-143686359D01*
X140630000Y-143993641D02*
X140630000Y-143686359D01*
%TO.C,C24*%
X128742164Y-136310000D02*
X128957836Y-136310000D01*
X128742164Y-137030000D02*
X128957836Y-137030000D01*
%TO.C,R11*%
X127110000Y-109646359D02*
X127110000Y-109953641D01*
X127870000Y-109646359D02*
X127870000Y-109953641D01*
%TO.C,C27*%
X132890000Y-139272164D02*
X132890000Y-139487836D01*
X133610000Y-139272164D02*
X133610000Y-139487836D01*
%TO.C,C20*%
X132442164Y-129850000D02*
X132657836Y-129850000D01*
X132442164Y-130570000D02*
X132657836Y-130570000D01*
%TO.C,R20*%
X134333641Y-125980000D02*
X134026359Y-125980000D01*
X134333641Y-126740000D02*
X134026359Y-126740000D01*
%TO.C,R19*%
X134353641Y-124270000D02*
X134046359Y-124270000D01*
X134353641Y-125030000D02*
X134046359Y-125030000D01*
%TO.C,R21*%
X130753641Y-125980000D02*
X130446359Y-125980000D01*
X130753641Y-126740000D02*
X130446359Y-126740000D01*
%TO.C,R8*%
X123403641Y-109920000D02*
X123096359Y-109920000D01*
X123403641Y-110680000D02*
X123096359Y-110680000D01*
%TO.C,Y2*%
X130900000Y-134920000D02*
X134200000Y-134920000D01*
X134200000Y-134920000D02*
X134200000Y-130920000D01*
%TO.C,S4*%
D13*
X119000000Y-142000000D02*
X127000000Y-142000000D01*
X127000000Y-147750000D01*
X119000000Y-147750000D01*
X119000000Y-142000000D01*
D11*
%TO.C,C3*%
X129580000Y-109927836D02*
X129580000Y-109712164D01*
X130300000Y-109927836D02*
X130300000Y-109712164D01*
%TO.C,R9*%
X124170000Y-126003641D02*
X124170000Y-125696359D01*
X124930000Y-126003641D02*
X124930000Y-125696359D01*
%TO.C,R7*%
X122620000Y-125993641D02*
X122620000Y-125686359D01*
X123380000Y-125993641D02*
X123380000Y-125686359D01*
%TO.C,R6*%
X119746359Y-113870000D02*
X120053641Y-113870000D01*
X119746359Y-114630000D02*
X120053641Y-114630000D01*
%TO.C,R12*%
X130133641Y-102490000D02*
X129826359Y-102490000D01*
X130133641Y-103250000D02*
X129826359Y-103250000D01*
%TO.C,R24*%
X151620000Y-133473641D02*
X151620000Y-133166359D01*
X152380000Y-133473641D02*
X152380000Y-133166359D01*
%TO.C,R1*%
X111200000Y-110616359D02*
X111200000Y-110923641D01*
X111960000Y-110616359D02*
X111960000Y-110923641D01*
%TO.C,R2*%
X108956359Y-109880000D02*
X109263641Y-109880000D01*
X108956359Y-110640000D02*
X109263641Y-110640000D01*
%TO.C,S5*%
D13*
X131000000Y-142000000D02*
X139000000Y-142000000D01*
X139000000Y-147750000D01*
X131000000Y-147750000D01*
X131000000Y-142000000D01*
D11*
%TO.C,U5*%
X119190000Y-129327500D02*
X119190000Y-129777500D01*
X119190000Y-136547500D02*
X119190000Y-136097500D01*
X119640000Y-129327500D02*
X119190000Y-129327500D01*
X119640000Y-136547500D02*
X119190000Y-136547500D01*
X125960000Y-129327500D02*
X126410000Y-129327500D01*
X125960000Y-136547500D02*
X126410000Y-136547500D01*
X126410000Y-129327500D02*
X126410000Y-129777500D01*
X126410000Y-136547500D02*
X126410000Y-136097500D01*
X127340000Y-136567500D02*
X126660000Y-136567500D01*
X127000000Y-136097500D01*
X127340000Y-136567500D01*
G36*
X127340000Y-136567500D02*
G01*
X126660000Y-136567500D01*
X127000000Y-136097500D01*
X127340000Y-136567500D01*
G37*
%TO.C,R14*%
X120213641Y-102490000D02*
X119906359Y-102490000D01*
X120213641Y-103250000D02*
X119906359Y-103250000D01*
%TO.C,R15*%
X103006359Y-117250000D02*
X103313641Y-117250000D01*
X103006359Y-118010000D02*
X103313641Y-118010000D01*
%TO.C,C4*%
X127923733Y-137590000D02*
X128216267Y-137590000D01*
X127923733Y-138610000D02*
X128216267Y-138610000D01*
%TO.C,Y1*%
X131125000Y-138110000D02*
X133975000Y-138110000D01*
X133975000Y-136510000D02*
X131125000Y-136510000D01*
X133975000Y-138110000D02*
X133975000Y-136510000D01*
%TO.C,R13*%
X125128641Y-102490000D02*
X124821359Y-102490000D01*
X125128641Y-103250000D02*
X124821359Y-103250000D01*
%TO.C,R3*%
X119746359Y-112560000D02*
X120053641Y-112560000D01*
X119746359Y-113320000D02*
X120053641Y-113320000D01*
%TO.C,C29*%
X116632282Y-136961399D02*
X116479779Y-136808896D01*
X117141399Y-136452282D02*
X116988896Y-136299779D01*
%TO.C,C21*%
X113709190Y-141508307D02*
X113861693Y-141660810D01*
X114218307Y-140999190D02*
X114370810Y-141151693D01*
%TO.C,C28*%
X154100000Y-143317836D02*
X154100000Y-143102164D01*
X154820000Y-143317836D02*
X154820000Y-143102164D01*
D13*
%TO.C,J2*%
X115760155Y-146188835D02*
X113638835Y-148310155D01*
X102678680Y-137350000D01*
X104800000Y-135228680D01*
X115760155Y-146188835D01*
D11*
%TO.C,U4*%
X103825000Y-120010000D02*
X105525000Y-120010000D01*
X103825000Y-129350000D02*
X105525000Y-129350000D01*
%TO.C,C10*%
X132110000Y-127972164D02*
X132110000Y-128187836D01*
X132830000Y-127972164D02*
X132830000Y-128187836D01*
%TO.C,U3*%
X123625000Y-112160000D02*
X123625000Y-112420000D01*
X123625000Y-117610000D02*
X123625000Y-117350000D01*
X126350000Y-112160000D02*
X123625000Y-112160000D01*
X126350000Y-112160000D02*
X129075000Y-112160000D01*
X126350000Y-117610000D02*
X123625000Y-117610000D01*
X126350000Y-117610000D02*
X129075000Y-117610000D01*
X129075000Y-112160000D02*
X129075000Y-112420000D01*
X129075000Y-117610000D02*
X129075000Y-117350000D01*
X122842500Y-112420000D02*
X122602500Y-112090000D01*
X123082500Y-112090000D01*
X122842500Y-112420000D01*
G36*
X122842500Y-112420000D02*
G01*
X122602500Y-112090000D01*
X123082500Y-112090000D01*
X122842500Y-112420000D01*
G37*
%TO.C,R38*%
X127610000Y-143703641D02*
X127610000Y-143396359D01*
X128370000Y-143703641D02*
X128370000Y-143396359D01*
%TO.C,S6*%
D13*
X143000000Y-142000000D02*
X151000000Y-142000000D01*
X151000000Y-147750000D01*
X143000000Y-147750000D01*
X143000000Y-142000000D01*
D11*
%TO.C,R10*%
X125330000Y-109656359D02*
X125330000Y-109963641D01*
X126090000Y-109656359D02*
X126090000Y-109963641D01*
%TO.C,D1*%
X128815000Y-105205000D02*
X131275000Y-105205000D01*
X131275000Y-103735000D02*
X128815000Y-103735000D01*
X131275000Y-105205000D02*
X131275000Y-103735000D01*
%TO.C,C16*%
X128960000Y-143637836D02*
X128960000Y-143422164D01*
X129680000Y-143637836D02*
X129680000Y-143422164D01*
%TO.C,C23*%
X120152164Y-126090000D02*
X120367836Y-126090000D01*
X120152164Y-126810000D02*
X120367836Y-126810000D01*
%TO.C,C15*%
X131040000Y-109927836D02*
X131040000Y-109712164D01*
X131760000Y-109927836D02*
X131760000Y-109712164D01*
%TO.C,D5*%
X164185000Y-117435000D02*
X164185000Y-119895000D01*
X165655000Y-117435000D02*
X164185000Y-117435000D01*
X165655000Y-119895000D02*
X165655000Y-117435000D01*
%TO.C,Q2*%
X157100000Y-132320000D02*
X157100000Y-133250000D01*
X157100000Y-132320000D02*
X158560000Y-132320000D01*
X157100000Y-135480000D02*
X157100000Y-134550000D01*
X157900000Y-135480000D02*
X157100000Y-135480000D01*
X157900000Y-135480000D02*
X158700000Y-135480000D01*
X159440000Y-135840000D02*
X158960000Y-135840000D01*
X159200000Y-135510000D01*
X159440000Y-135840000D01*
G36*
X159440000Y-135840000D02*
G01*
X158960000Y-135840000D01*
X159200000Y-135510000D01*
X159440000Y-135840000D01*
G37*
%TO.C,C26*%
X131040000Y-139252164D02*
X131040000Y-139467836D01*
X131760000Y-139252164D02*
X131760000Y-139467836D01*
D13*
%TO.C,U2*%
X107845000Y-112855000D02*
X107845000Y-113855000D01*
X110345000Y-112855000D02*
X110345000Y-113855000D01*
D11*
X107745000Y-112005000D02*
X107385000Y-112005000D01*
X107745000Y-111645000D01*
X107745000Y-112005000D01*
G36*
X107745000Y-112005000D02*
G01*
X107385000Y-112005000D01*
X107745000Y-111645000D01*
X107745000Y-112005000D01*
G37*
%TO.C,C22*%
X125387836Y-139010000D02*
X125172164Y-139010000D01*
X125387836Y-139730000D02*
X125172164Y-139730000D01*
%TD*%
M02*
